M48
;Layer_Color=9474304
;FILE_FORMAT=2:4
INCH,TZ
;TYPE=PLATED
T1F00S00C0.0118
T2F00S00C0.0157
T3F00S00C0.0276
;TYPE=NON_PLATED
T4F00S00C0.0118
%
T01
X1535Y276
Y531
Y787
Y1043
X1811
Y787
Y531
Y276
X2087
Y531
Y787
Y1043
X2362
Y787
Y531
Y276
X2638
Y531
Y787
Y1043
X3268Y1043
Y787
Y531
Y276
X3543
Y531
Y787
Y1043
X3819
Y787
Y531
Y276
X4094
Y531
Y787
Y1043
X4370
Y787
Y531
Y276
X4646
Y531
Y787
Y1043
X4921
Y787
Y531
Y276
X5197
Y531
Y787
Y1043
X5472
Y787
Y531
Y276
X4331Y3780
X2835Y3465
Y4094
Y4724
X2577Y5354
X2835Y5984
X2512Y6960
X1408Y6980
X1772Y5513
X4173Y5591
X4921
X4961Y6319
X4567Y6378
X3819
X803Y5890
Y3976
X709Y1043
Y787
Y531
Y276
X433
Y531
Y787
Y1043
X984
Y787
Y531
Y276
X1260
Y531
Y787
Y1043
X945Y9882
X827Y12874
X591
X354
Y13150
X591Y13150
X827
Y13425
X591
X354
Y14134
X591
X823Y14130
Y14405
X587
X348Y14404
X351Y14681
X587
X823
X1220Y15748
X945Y17677
Y21240
X984Y21969
X1732
X2087Y21181
X1339
X3071Y21575
X3328Y22205
X3071Y22835
X4134Y22046
X5102Y21670
X4498Y20579
X3394Y20600
X4332Y18142
X4961Y17677
X4350Y16890
X3858Y15394
Y15079
Y14764
Y14449
X5079Y14409
X5315
X5551
Y14134
X5315
X5079
Y14685
X5315
X5551
X5555Y13429
X5319
X5082
Y13154
X5319
X5555
X5555Y12878
X5319
X5082
X3858Y12795
Y13110
Y12480
Y12165
X4685Y11811
X4350Y10669
X4331Y9417
X4961Y9882
X4547Y8514
X1574Y9417
X1555Y10669
X2047Y12165
Y12480
Y12795
Y13110
Y14449
Y14764
Y15079
Y15394
X1555Y16890
X1575Y18142
X1358Y19045
X1575Y23780
X3071Y24094
Y23465
X5102Y23583
X5197Y26516
Y26772
Y27028
Y27283
X5472
Y27028
Y26772
Y26516
X4921
Y26772
Y27028
Y27283
X4646
Y27028
Y26772
Y26516
X4370
Y26772
Y27028
Y27283
X4094
Y27028
Y26772
Y26516
X3819
Y26772
Y27028
Y27283
X3543
Y27028
Y26772
Y26516
X3268
Y26772
Y27028
Y27283
X2638Y27283
Y27028
Y26772
Y26516
X2362
Y26772
Y27028
Y27283
X2087
Y27028
Y26772
Y26516
X1811
Y26772
Y27028
Y27283
X1535
Y27028
Y26772
Y26516
X1260
Y26772
Y27028
Y27283
X984
Y27028
Y26772
Y26516
X709
Y26772
Y27028
Y27283
X433
Y27028
Y26772
Y26516
T02
X2480Y4285
X2374Y7746
X3622Y8002
X3532Y19813
X2283Y19557
X3425Y23274
T03
X2559Y12500
X3346
Y15059
X2559
T04
X236Y13780
X945
X1181
X1417
X1654
X1890
X2126
X2362
X2598
X2835
X3071
X3543
X3780
X4016
X4252
X4488
X4724
X4961
X5197
X5433
X5669
M30
