G04*
G04 #@! TF.GenerationSoftware,Altium Limited,Altium Designer,21.0.8 (223)*
G04*
G04 Layer_Physical_Order=1*
G04 Layer_Color=255*
%FSLAX25Y25*%
%MOIN*%
G70*
G04*
G04 #@! TF.SameCoordinates,5BEE501C-0E39-4D07-B5F2-D33AD55358CD*
G04*
G04*
G04 #@! TF.FilePolarity,Positive*
G04*
G01*
G75*
%ADD12C,0.01000*%
%ADD21C,0.04331*%
%ADD26C,0.01181*%
G04:AMPARAMS|DCode=28|XSize=271.65mil|YSize=100.39mil|CornerRadius=30.12mil|HoleSize=0mil|Usage=FLASHONLY|Rotation=0.000|XOffset=0mil|YOffset=0mil|HoleType=Round|Shape=RoundedRectangle|*
%AMROUNDEDRECTD28*
21,1,0.27165,0.04016,0,0,0.0*
21,1,0.21142,0.10039,0,0,0.0*
1,1,0.06024,0.10571,-0.02008*
1,1,0.06024,-0.10571,-0.02008*
1,1,0.06024,-0.10571,0.02008*
1,1,0.06024,0.10571,0.02008*
%
%ADD28ROUNDEDRECTD28*%
%ADD29R,0.05709X0.01772*%
%ADD30R,0.06299X0.11811*%
%ADD31R,0.03937X0.21654*%
%ADD32R,0.03543X0.03740*%
%ADD33R,0.03740X0.03543*%
%ADD34R,0.01968X0.01968*%
%ADD35C,0.03937*%
%ADD36R,0.02362X0.03937*%
%ADD37R,0.20472X0.03937*%
G04:AMPARAMS|DCode=38|XSize=38.19mil|YSize=19.68mil|CornerRadius=2.46mil|HoleSize=0mil|Usage=FLASHONLY|Rotation=90.000|XOffset=0mil|YOffset=0mil|HoleType=Round|Shape=RoundedRectangle|*
%AMROUNDEDRECTD38*
21,1,0.03819,0.01476,0,0,90.0*
21,1,0.03327,0.01968,0,0,90.0*
1,1,0.00492,0.00738,0.01663*
1,1,0.00492,0.00738,-0.01663*
1,1,0.00492,-0.00738,-0.01663*
1,1,0.00492,-0.00738,0.01663*
%
%ADD38ROUNDEDRECTD38*%
G04:AMPARAMS|DCode=39|XSize=78.74mil|YSize=86.61mil|CornerRadius=23.62mil|HoleSize=0mil|Usage=FLASHONLY|Rotation=0.000|XOffset=0mil|YOffset=0mil|HoleType=Round|Shape=RoundedRectangle|*
%AMROUNDEDRECTD39*
21,1,0.07874,0.03937,0,0,0.0*
21,1,0.03150,0.08661,0,0,0.0*
1,1,0.04724,0.01575,-0.01968*
1,1,0.04724,-0.01575,-0.01968*
1,1,0.04724,-0.01575,0.01968*
1,1,0.04724,0.01575,0.01968*
%
%ADD39ROUNDEDRECTD39*%
%ADD40C,0.03937*%
%ADD41C,0.01181*%
%ADD42C,0.01575*%
%ADD43C,0.02362*%
%ADD44C,0.03150*%
G36*
X34048Y129247D02*
X34066Y129044D01*
X34096Y128865D01*
X34137Y128710D01*
X34190Y128579D01*
X34255Y128472D01*
X34332Y128388D01*
X34420Y128328D01*
X34521Y128293D01*
X34633Y128281D01*
X34048D01*
X34052Y128200D01*
X34080Y128015D01*
X34126Y127830D01*
X34191Y127646D01*
X34275Y127463D01*
X34377Y127280D01*
X34498Y127098D01*
X34637Y126916D01*
X34795Y126735D01*
X34971Y126555D01*
X31940Y126538D01*
X32115Y126720D01*
X32272Y126904D01*
X32410Y127087D01*
X32530Y127271D01*
X32631Y127455D01*
X32714Y127639D01*
X32778Y127824D01*
X32825Y128008D01*
X32852Y128193D01*
X32857Y128281D01*
X32271D01*
X32383Y128293D01*
X32484Y128328D01*
X32572Y128388D01*
X32649Y128472D01*
X32714Y128579D01*
X32767Y128710D01*
X32808Y128865D01*
X32838Y129044D01*
X32855Y129247D01*
X32861Y129474D01*
X34043D01*
X34048Y129247D01*
D02*
G37*
G36*
X46063Y126891D02*
X45966Y126402D01*
X45854Y126367D01*
X45739Y126344D01*
X45703Y126320D01*
X45662Y126307D01*
X45572Y126232D01*
X45474Y126167D01*
X45094Y126265D01*
X44969Y126327D01*
X43916Y127381D01*
X43456Y127688D01*
X42913Y127796D01*
X42371Y127688D01*
X41911Y127381D01*
X41603Y126920D01*
X41496Y126378D01*
X41603Y125835D01*
X41911Y125375D01*
X43879Y123407D01*
X44339Y123100D01*
X44882Y122992D01*
X45272D01*
X45289Y122959D01*
X45297Y122916D01*
X45362Y122819D01*
X45417Y122715D01*
X45450Y122687D01*
X45474Y122652D01*
X45572Y122587D01*
X45662Y122512D01*
X45703Y122499D01*
X45739Y122475D01*
X45854Y122452D01*
X45966Y122417D01*
X46063Y121928D01*
Y120472D01*
X37402D01*
Y132283D01*
X46063D01*
Y126891D01*
D02*
G37*
G36*
X54044Y127961D02*
X54009Y127900D01*
X53978Y127832D01*
X53952Y127755D01*
X53929Y127669D01*
X53911Y127576D01*
X53897Y127473D01*
X53881Y127251D01*
X53882Y127220D01*
X54469D01*
X54357Y127208D01*
X54256Y127172D01*
X54168Y127112D01*
X54091Y127029D01*
X54026Y126921D01*
X53973Y126790D01*
X53946Y126688D01*
X53973Y126587D01*
X54026Y126455D01*
X54091Y126348D01*
X54168Y126265D01*
X54256Y126205D01*
X54357Y126169D01*
X54469Y126157D01*
X53882D01*
X53878Y126027D01*
X52697D01*
X52694Y126157D01*
X52107D01*
X52219Y126169D01*
X52319Y126205D01*
X52408Y126265D01*
X52485Y126348D01*
X52550Y126455D01*
X52603Y126587D01*
X52630Y126688D01*
X52603Y126790D01*
X52550Y126921D01*
X52485Y127029D01*
X52408Y127112D01*
X52319Y127172D01*
X52219Y127208D01*
X52107Y127220D01*
X52686D01*
X52674Y127352D01*
X52655Y127453D01*
X52632Y127544D01*
X52603Y127627D01*
X52569Y127701D01*
X52530Y127767D01*
X52485Y127823D01*
X52435Y127871D01*
X54083Y128012D01*
X54044Y127961D01*
D02*
G37*
G36*
X51697Y123228D02*
X51685Y123341D01*
X51649Y123441D01*
X51590Y123530D01*
X51506Y123606D01*
X51399Y123671D01*
X51268Y123724D01*
X51113Y123766D01*
X50934Y123795D01*
X50731Y123813D01*
X50504Y123819D01*
Y125000D01*
X50731Y125006D01*
X50934Y125024D01*
X51113Y125053D01*
X51268Y125094D01*
X51399Y125148D01*
X51506Y125213D01*
X51590Y125289D01*
X51649Y125378D01*
X51685Y125478D01*
X51697Y125591D01*
Y123228D01*
D02*
G37*
G36*
X46063Y125478D02*
X46098Y125378D01*
X46157Y125289D01*
X46240Y125213D01*
X46346Y125148D01*
X46476Y125094D01*
X46630Y125053D01*
X46807Y125024D01*
X47008Y125006D01*
X47232Y125000D01*
Y123819D01*
X47008Y123813D01*
X46807Y123795D01*
X46630Y123766D01*
X46476Y123724D01*
X46346Y123671D01*
X46240Y123606D01*
X46157Y123530D01*
X46098Y123441D01*
X46063Y123341D01*
X46051Y123228D01*
Y125591D01*
X46063Y125478D01*
D02*
G37*
G36*
X13016Y123228D02*
X13004Y123341D01*
X12968Y123441D01*
X12909Y123530D01*
X12825Y123606D01*
X12718Y123671D01*
X12587Y123724D01*
X12432Y123766D01*
X12252Y123795D01*
X12050Y123813D01*
X11823Y123819D01*
Y125000D01*
X12050Y125006D01*
X12252Y125024D01*
X12432Y125053D01*
X12587Y125094D01*
X12718Y125148D01*
X12825Y125213D01*
X12909Y125289D01*
X12968Y125378D01*
X13004Y125478D01*
X13016Y125591D01*
Y123228D01*
D02*
G37*
G36*
X7370Y125478D02*
X7406Y125378D01*
X7465Y125289D01*
X7549Y125213D01*
X7656Y125148D01*
X7787Y125094D01*
X7942Y125053D01*
X8122Y125024D01*
X8324Y125006D01*
X8551Y125000D01*
Y123819D01*
X8324Y123813D01*
X8122Y123795D01*
X7942Y123766D01*
X7787Y123724D01*
X7656Y123671D01*
X7549Y123606D01*
X7465Y123530D01*
X7406Y123441D01*
X7370Y123341D01*
X7358Y123228D01*
Y125591D01*
X7370Y125478D01*
D02*
G37*
G36*
X21654Y120472D02*
X12992D01*
Y121935D01*
X13102Y122417D01*
X13214Y122452D01*
X13328Y122475D01*
X13364Y122499D01*
X13406Y122512D01*
X13496Y122587D01*
X13593Y122652D01*
X13617Y122688D01*
X13651Y122716D01*
X13705Y122819D01*
X13770Y122916D01*
X13778Y122959D01*
X13795Y122992D01*
X14173D01*
X14716Y123100D01*
X15176Y123407D01*
X17144Y125375D01*
X17452Y125835D01*
X17560Y126378D01*
X17452Y126920D01*
X17144Y127381D01*
X16684Y127688D01*
X16142Y127796D01*
X15599Y127688D01*
X15139Y127381D01*
X14094Y126335D01*
X13980Y126276D01*
X13593Y126167D01*
X13496Y126232D01*
X13406Y126307D01*
X13364Y126320D01*
X13328Y126344D01*
X13214Y126367D01*
X13102Y126402D01*
X12992Y126884D01*
Y132283D01*
X21654D01*
Y120472D01*
D02*
G37*
G36*
X47744Y118892D02*
X47804Y118852D01*
X47871Y118816D01*
X47947Y118786D01*
X48032Y118760D01*
X48125Y118739D01*
X48226Y118722D01*
X48336Y118710D01*
X48582Y118701D01*
Y117520D01*
X48455Y117517D01*
X48226Y117498D01*
X48125Y117482D01*
X48032Y117461D01*
X47947Y117435D01*
X47871Y117404D01*
X47804Y117368D01*
X47744Y117328D01*
X47694Y117283D01*
Y118937D01*
X47744Y118892D01*
D02*
G37*
G36*
X51697Y116929D02*
X51685Y117041D01*
X51649Y117142D01*
X51590Y117230D01*
X51506Y117307D01*
X51399Y117372D01*
X51268Y117425D01*
X51113Y117466D01*
X50934Y117496D01*
X50731Y117514D01*
X50504Y117520D01*
Y118701D01*
X50731Y118707D01*
X50934Y118724D01*
X51113Y118754D01*
X51268Y118795D01*
X51399Y118848D01*
X51506Y118913D01*
X51590Y118990D01*
X51649Y119079D01*
X51685Y119179D01*
X51697Y119291D01*
Y116929D01*
D02*
G37*
G36*
X6581Y116339D02*
X6480Y116303D01*
X6392Y116244D01*
X6315Y116162D01*
X6250Y116055D01*
X6197Y115925D01*
X6155Y115772D01*
X6126Y115595D01*
X6122Y115549D01*
X6126Y115503D01*
X6155Y115324D01*
X6197Y115169D01*
X6250Y115038D01*
X6315Y114931D01*
X6392Y114847D01*
X6480Y114787D01*
X6581Y114752D01*
X6693Y114740D01*
X4331D01*
X4443Y114752D01*
X4543Y114787D01*
X4632Y114847D01*
X4709Y114931D01*
X4774Y115038D01*
X4827Y115169D01*
X4868Y115324D01*
X4898Y115503D01*
X4902Y115549D01*
X4898Y115595D01*
X4868Y115772D01*
X4827Y115925D01*
X4774Y116055D01*
X4709Y116162D01*
X4632Y116244D01*
X4543Y116303D01*
X4443Y116339D01*
X4331Y116351D01*
X6693D01*
X6581Y116339D01*
D02*
G37*
G36*
X51697Y111811D02*
X51685Y111923D01*
X51649Y112024D01*
X51590Y112112D01*
X51506Y112189D01*
X51399Y112254D01*
X51268Y112307D01*
X51113Y112348D01*
X50934Y112378D01*
X50731Y112396D01*
X50504Y112402D01*
Y113583D01*
X50731Y113589D01*
X50934Y113606D01*
X51113Y113636D01*
X51268Y113677D01*
X51399Y113730D01*
X51506Y113795D01*
X51590Y113872D01*
X51649Y113961D01*
X51685Y114061D01*
X51697Y114173D01*
Y111811D01*
D02*
G37*
G36*
X48708Y114061D02*
X48744Y113961D01*
X48804Y113872D01*
X48887Y113795D01*
X48995Y113730D01*
X49126Y113677D01*
X49281Y113636D01*
X49460Y113606D01*
X49663Y113589D01*
X49890Y113583D01*
Y112402D01*
X49663Y112396D01*
X49460Y112378D01*
X49281Y112348D01*
X49126Y112307D01*
X48995Y112254D01*
X48887Y112189D01*
X48804Y112112D01*
X48744Y112024D01*
X48708Y111923D01*
X48697Y111811D01*
Y114173D01*
X48708Y114061D01*
D02*
G37*
G36*
X45004Y111811D02*
X44992Y111923D01*
X44957Y112024D01*
X44897Y112112D01*
X44813Y112189D01*
X44706Y112254D01*
X44575Y112307D01*
X44420Y112348D01*
X44241Y112378D01*
X44038Y112396D01*
X43811Y112402D01*
Y113583D01*
X44038Y113589D01*
X44241Y113606D01*
X44420Y113636D01*
X44575Y113677D01*
X44706Y113730D01*
X44813Y113795D01*
X44897Y113872D01*
X44957Y113961D01*
X44992Y114061D01*
X45004Y114173D01*
Y111811D01*
D02*
G37*
G36*
X35396Y114061D02*
X35431Y113961D01*
X35490Y113872D01*
X35573Y113795D01*
X35679Y113730D01*
X35809Y113677D01*
X35963Y113636D01*
X36140Y113606D01*
X36341Y113589D01*
X36565Y113583D01*
Y112402D01*
X36341Y112396D01*
X36140Y112378D01*
X35963Y112348D01*
X35809Y112307D01*
X35679Y112254D01*
X35573Y112189D01*
X35490Y112112D01*
X35431Y112024D01*
X35396Y111923D01*
X35384Y111811D01*
Y114173D01*
X35396Y114061D01*
D02*
G37*
G36*
X23646Y111811D02*
X23634Y111923D01*
X23598Y112024D01*
X23539Y112112D01*
X23455Y112189D01*
X23348Y112254D01*
X23216Y112307D01*
X23061Y112348D01*
X22883Y112378D01*
X22680Y112396D01*
X22453Y112402D01*
Y113583D01*
X22680Y113589D01*
X22883Y113606D01*
X23061Y113636D01*
X23216Y113677D01*
X23348Y113730D01*
X23455Y113795D01*
X23539Y113872D01*
X23598Y113961D01*
X23634Y114061D01*
X23646Y114173D01*
Y111811D01*
D02*
G37*
G36*
X14063Y114061D02*
X14098Y113961D01*
X14158Y113872D01*
X14242Y113795D01*
X14349Y113730D01*
X14480Y113677D01*
X14635Y113636D01*
X14814Y113606D01*
X15017Y113589D01*
X15244Y113583D01*
Y112402D01*
X15017Y112396D01*
X14814Y112378D01*
X14635Y112348D01*
X14480Y112307D01*
X14349Y112254D01*
X14242Y112189D01*
X14158Y112112D01*
X14098Y112024D01*
X14063Y111923D01*
X14051Y111811D01*
Y114173D01*
X14063Y114061D01*
D02*
G37*
G36*
X7305Y112996D02*
X7292Y112869D01*
X7319Y112718D01*
X7386Y112545D01*
X7493Y112347D01*
X7639Y112127D01*
X7825Y111883D01*
X8317Y111326D01*
X8623Y111012D01*
X7567Y110397D01*
X7315Y110641D01*
X6867Y111023D01*
X6672Y111161D01*
X6495Y111263D01*
X6338Y111330D01*
X6199Y111362D01*
X6079Y111358D01*
X5978Y111319D01*
X5896Y111244D01*
X7358Y113100D01*
X7305Y112996D01*
D02*
G37*
G36*
X45004Y107292D02*
X45235Y107283D01*
Y106102D01*
X45108Y106100D01*
X45004Y106091D01*
Y105512D01*
X44992Y105624D01*
X44957Y105724D01*
X44897Y105813D01*
X44813Y105890D01*
X44706Y105955D01*
X44576Y106007D01*
X44525Y105987D01*
X44457Y105951D01*
X44398Y105911D01*
X44347Y105866D01*
Y106061D01*
X44241Y106079D01*
X44038Y106096D01*
X43811Y106102D01*
Y107283D01*
X44038Y107289D01*
X44241Y107307D01*
X44347Y107325D01*
Y107520D01*
X44398Y107475D01*
X44457Y107435D01*
X44525Y107399D01*
X44576Y107378D01*
X44706Y107431D01*
X44813Y107496D01*
X44897Y107573D01*
X44957Y107661D01*
X44992Y107762D01*
X45004Y107874D01*
Y107292D01*
D02*
G37*
G36*
X10589Y109054D02*
X11023Y108686D01*
X11215Y108553D01*
X11391Y108453D01*
X11549Y108386D01*
X11691Y108352D01*
X11817D01*
X11925Y108386D01*
X12017Y108453D01*
X10347Y106782D01*
X10413Y106874D01*
X10447Y106983D01*
Y107108D01*
X10413Y107250D01*
X10347Y107409D01*
X10246Y107584D01*
X10113Y107776D01*
X9946Y107985D01*
X9511Y108453D01*
X10347Y109288D01*
X10589Y109054D01*
D02*
G37*
G36*
X14063Y107860D02*
X14098Y107760D01*
X14158Y107671D01*
X14242Y107595D01*
X14349Y107529D01*
X14480Y107476D01*
X14537Y107461D01*
X14599Y107482D01*
X14668Y107513D01*
X14728Y107548D01*
X14780Y107587D01*
X14765Y107414D01*
X14814Y107405D01*
X15017Y107388D01*
X15244Y107382D01*
Y106201D01*
X15017Y106195D01*
X14814Y106177D01*
X14660Y106152D01*
X14642Y105939D01*
X14594Y105989D01*
X14537Y106033D01*
X14472Y106073D01*
X14437Y106089D01*
X14349Y106053D01*
X14242Y105988D01*
X14158Y105911D01*
X14098Y105823D01*
X14063Y105722D01*
X14051Y105610D01*
Y106186D01*
X14014Y106190D01*
X13896Y106198D01*
X13769Y106201D01*
X13883Y107382D01*
X14011Y107384D01*
X14051Y107387D01*
Y107972D01*
X14063Y107860D01*
D02*
G37*
G36*
X42660Y105866D02*
X42610Y105911D01*
X42551Y105951D01*
X42483Y105987D01*
X42407Y106017D01*
X42323Y106043D01*
X42230Y106065D01*
X42128Y106081D01*
X42018Y106093D01*
X41772Y106102D01*
Y107283D01*
X41899Y107286D01*
X42128Y107305D01*
X42230Y107321D01*
X42323Y107343D01*
X42407Y107369D01*
X42483Y107399D01*
X42551Y107435D01*
X42610Y107475D01*
X42660Y107520D01*
Y105866D01*
D02*
G37*
G36*
X53912Y104945D02*
X53791Y105033D01*
X53647Y105077D01*
X53481Y105075D01*
X53292Y105029D01*
X53080Y104939D01*
X52846Y104804D01*
X52590Y104625D01*
X52311Y104401D01*
X51685Y103820D01*
X50572Y104933D01*
X50885Y105257D01*
X51377Y105838D01*
X51556Y106094D01*
X51691Y106328D01*
X51781Y106540D01*
X51827Y106729D01*
X51828Y106895D01*
X51785Y107039D01*
X51697Y107160D01*
X53912Y104945D01*
D02*
G37*
G36*
X27547Y106705D02*
X27437Y106693D01*
X27339Y106658D01*
X27252Y106599D01*
X27177Y106516D01*
X27113Y106410D01*
X27061Y106280D01*
X27021Y106126D01*
X26992Y105949D01*
X26979Y105807D01*
X26992Y105661D01*
X27022Y105482D01*
X27063Y105327D01*
X27116Y105195D01*
X27181Y105088D01*
X27258Y105005D01*
X27346Y104945D01*
X27447Y104909D01*
X27559Y104897D01*
X25197D01*
X25309Y104909D01*
X25409Y104945D01*
X25498Y105005D01*
X25575Y105088D01*
X25640Y105195D01*
X25693Y105327D01*
X25734Y105482D01*
X25764Y105661D01*
X25776Y105807D01*
X25764Y105952D01*
X25734Y106131D01*
X25693Y106286D01*
X25640Y106417D01*
X25575Y106525D01*
X25498Y106608D01*
X25409Y106668D01*
X25309Y106704D01*
X25197Y106717D01*
X27547Y106705D01*
D02*
G37*
G36*
X7303Y106512D02*
X7270Y106403D01*
Y106278D01*
X7303Y106136D01*
X7370Y105977D01*
X7470Y105802D01*
X7604Y105610D01*
X7771Y105401D01*
X8205Y104933D01*
X7370Y104098D01*
X7128Y104332D01*
X6693Y104699D01*
X6501Y104833D01*
X6326Y104933D01*
X6167Y105000D01*
X6025Y105034D01*
X5900D01*
X5791Y105000D01*
X5700Y104933D01*
X7370Y106604D01*
X7303Y106512D01*
D02*
G37*
G36*
X35716Y103740D02*
X35490Y103734D01*
X35288Y103717D01*
X35110Y103687D01*
X34955Y103646D01*
X34824Y103593D01*
X34716Y103528D01*
X34632Y103451D01*
X34572Y103362D01*
X34536Y103262D01*
X34523Y103150D01*
X34535Y104909D01*
X34547Y104911D01*
X34582Y104914D01*
X35716Y104921D01*
Y103740D01*
D02*
G37*
G36*
X14572Y100709D02*
X14560Y100821D01*
X14524Y100921D01*
X14464Y101010D01*
X14381Y101087D01*
X14273Y101152D01*
X14142Y101205D01*
X13987Y101246D01*
X13808Y101276D01*
X13605Y101293D01*
X13379Y101299D01*
Y102480D01*
X13605Y102486D01*
X13808Y102504D01*
X13987Y102533D01*
X14142Y102575D01*
X14273Y102628D01*
X14381Y102693D01*
X14464Y102770D01*
X14524Y102858D01*
X14560Y102959D01*
X14572Y103071D01*
Y100709D01*
D02*
G37*
G36*
X44499Y103315D02*
X44547Y103181D01*
X44626Y103063D01*
X44737Y102961D01*
X44880Y102874D01*
X45055Y102803D01*
X45261Y102748D01*
X45499Y102709D01*
X45769Y102685D01*
X46070Y102677D01*
Y101102D01*
X45769Y101094D01*
X45499Y101071D01*
X45261Y101031D01*
X45055Y100976D01*
X44880Y100906D01*
X44737Y100819D01*
X44626Y100716D01*
X44547Y100598D01*
X44499Y100465D01*
X44484Y100315D01*
Y103465D01*
X44499Y103315D01*
D02*
G37*
G36*
X37468Y100047D02*
X37464Y100034D01*
X37438Y100023D01*
X37393Y100013D01*
X37326Y100004D01*
X37132Y99991D01*
X36496Y99980D01*
Y101161D01*
X36671Y101164D01*
X36966Y101189D01*
X37085Y101211D01*
X37185Y101238D01*
X37267Y101272D01*
X37330Y101312D01*
X37374Y101358D01*
X37400Y101411D01*
X37406Y101469D01*
X37468Y100047D01*
D02*
G37*
G36*
X21655Y101411D02*
X21681Y101358D01*
X21725Y101312D01*
X21788Y101272D01*
X21870Y101238D01*
X21970Y101211D01*
X22089Y101189D01*
X22227Y101174D01*
X22559Y101161D01*
Y99980D01*
X22369Y99981D01*
X21617Y100023D01*
X21591Y100034D01*
X21587Y100047D01*
X21649Y101469D01*
X21655Y101411D01*
D02*
G37*
G36*
X35370Y98610D02*
X35135Y98367D01*
X34765Y97931D01*
X34631Y97739D01*
X34529Y97563D01*
X34461Y97404D01*
X34427Y97263D01*
X34425Y97138D01*
X34458Y97031D01*
X34523Y96940D01*
X32865Y98598D01*
X32956Y98532D01*
X33063Y98500D01*
X33188Y98501D01*
X33330Y98536D01*
X33488Y98604D01*
X33664Y98706D01*
X33856Y98840D01*
X34066Y99009D01*
X34535Y99445D01*
X35370Y98610D01*
D02*
G37*
G36*
X50203Y98383D02*
X50221Y98181D01*
X50250Y98002D01*
X50257Y97975D01*
X50433D01*
X50388Y97925D01*
X50348Y97866D01*
X50313Y97798D01*
X50312Y97796D01*
X50345Y97715D01*
X50409Y97608D01*
X50486Y97524D01*
X50575Y97465D01*
X50675Y97429D01*
X50787Y97417D01*
X50215D01*
X50206Y97333D01*
X50197Y97087D01*
X49016D01*
X49013Y97214D01*
X48997Y97417D01*
X48425D01*
X48537Y97429D01*
X48638Y97465D01*
X48726Y97524D01*
X48803Y97608D01*
X48868Y97715D01*
X48901Y97796D01*
X48900Y97798D01*
X48865Y97866D01*
X48824Y97925D01*
X48779Y97975D01*
X48956D01*
X48963Y98002D01*
X48992Y98181D01*
X49010Y98383D01*
X49016Y98610D01*
X50197D01*
X50203Y98383D01*
D02*
G37*
G36*
X10045Y98386D02*
X10063Y98185D01*
X10092Y98008D01*
X10101Y97975D01*
X10276D01*
X10231Y97925D01*
X10191Y97866D01*
X10156Y97800D01*
X10187Y97724D01*
X10252Y97618D01*
X10329Y97535D01*
X10417Y97476D01*
X10518Y97441D01*
X10630Y97429D01*
X10059D01*
X10049Y97333D01*
X10039Y97087D01*
X8858D01*
X8856Y97214D01*
X8838Y97429D01*
X8268D01*
X8380Y97441D01*
X8480Y97476D01*
X8569Y97535D01*
X8646Y97618D01*
X8711Y97724D01*
X8742Y97800D01*
X8707Y97866D01*
X8667Y97925D01*
X8622Y97975D01*
X8796D01*
X8805Y98008D01*
X8835Y98185D01*
X8852Y98386D01*
X8858Y98610D01*
X10039D01*
X10045Y98386D01*
D02*
G37*
G36*
X24763Y99210D02*
X25199Y98840D01*
X25391Y98706D01*
X25567Y98604D01*
X25725Y98536D01*
X25867Y98501D01*
X25992Y98500D01*
X26099Y98532D01*
X26190Y98598D01*
X24532Y96940D01*
X24598Y97031D01*
X24630Y97138D01*
X24629Y97263D01*
X24594Y97404D01*
X24526Y97563D01*
X24424Y97739D01*
X24290Y97931D01*
X24121Y98140D01*
X23685Y98610D01*
X24520Y99445D01*
X24763Y99210D01*
D02*
G37*
G36*
X17131Y94783D02*
X17221Y94773D01*
X17467Y94764D01*
Y93583D01*
X17340Y93580D01*
X17131Y93563D01*
Y92992D01*
X17119Y93104D01*
X17083Y93205D01*
X17023Y93293D01*
X16940Y93370D01*
X16832Y93435D01*
X16755Y93466D01*
X16689Y93432D01*
X16630Y93391D01*
X16579Y93347D01*
Y93521D01*
X16546Y93529D01*
X16367Y93559D01*
X16164Y93577D01*
X15938Y93583D01*
Y94764D01*
X16164Y94770D01*
X16367Y94787D01*
X16546Y94817D01*
X16579Y94826D01*
Y95000D01*
X16630Y94955D01*
X16689Y94915D01*
X16755Y94880D01*
X16832Y94911D01*
X16940Y94976D01*
X17023Y95053D01*
X17083Y95142D01*
X17119Y95242D01*
X17131Y95354D01*
Y94783D01*
D02*
G37*
G36*
X41936Y95242D02*
X41972Y95142D01*
X42032Y95053D01*
X42115Y94976D01*
X42223Y94911D01*
X42293Y94883D01*
X42354Y94915D01*
X42413Y94955D01*
X42464Y95000D01*
Y94829D01*
X42509Y94817D01*
X42688Y94787D01*
X42891Y94770D01*
X43117Y94764D01*
Y93583D01*
X42891Y93577D01*
X42688Y93559D01*
X42509Y93529D01*
X42464Y93517D01*
Y93347D01*
X42413Y93391D01*
X42354Y93432D01*
X42293Y93463D01*
X42223Y93435D01*
X42115Y93370D01*
X42032Y93293D01*
X41972Y93205D01*
X41936Y93104D01*
X41924Y92992D01*
Y93562D01*
X41821Y93573D01*
X41576Y93583D01*
Y94764D01*
X41703Y94766D01*
X41924Y94784D01*
Y95354D01*
X41936Y95242D01*
D02*
G37*
G36*
X12420Y91130D02*
X12109Y90807D01*
X11619Y90228D01*
X11440Y89972D01*
X11307Y89738D01*
X11218Y89526D01*
X11173Y89337D01*
Y89170D01*
X11218Y89025D01*
X11307Y88903D01*
X9080Y91130D01*
X9202Y91041D01*
X9347Y90996D01*
X9514D01*
X9703Y91041D01*
X9915Y91130D01*
X10149Y91263D01*
X10405Y91442D01*
X10683Y91664D01*
X11307Y92243D01*
X12420Y91130D01*
D02*
G37*
G36*
X48072Y91930D02*
X48653Y91438D01*
X48909Y91259D01*
X49143Y91124D01*
X49355Y91034D01*
X49544Y90988D01*
X49710Y90987D01*
X49854Y91030D01*
X49975Y91118D01*
X47760Y88903D01*
X47848Y89024D01*
X47891Y89168D01*
X47890Y89334D01*
X47844Y89523D01*
X47754Y89735D01*
X47619Y89969D01*
X47440Y90225D01*
X47216Y90504D01*
X46635Y91130D01*
X47748Y92243D01*
X48072Y91930D01*
D02*
G37*
G36*
X51032Y87595D02*
X50898Y87547D01*
X50779Y87469D01*
X50677Y87358D01*
X50591Y87217D01*
X50520Y87043D01*
X50465Y86839D01*
X50460Y86811D01*
X50465Y86783D01*
X50520Y86579D01*
X50591Y86405D01*
X50677Y86264D01*
X50779Y86153D01*
X50898Y86075D01*
X51032Y86027D01*
X51181Y86012D01*
X48031D01*
X48181Y86027D01*
X48315Y86075D01*
X48433Y86153D01*
X48535Y86264D01*
X48622Y86405D01*
X48693Y86579D01*
X48748Y86783D01*
X48753Y86811D01*
X48748Y86839D01*
X48693Y87043D01*
X48622Y87217D01*
X48535Y87358D01*
X48433Y87469D01*
X48315Y87547D01*
X48181Y87595D01*
X48031Y87610D01*
X51181D01*
X51032Y87595D01*
D02*
G37*
G36*
X10874Y87607D02*
X10740Y87559D01*
X10622Y87480D01*
X10520Y87369D01*
X10433Y87226D01*
X10362Y87051D01*
X10307Y86845D01*
X10302Y86814D01*
X10307Y86783D01*
X10362Y86579D01*
X10433Y86405D01*
X10520Y86264D01*
X10622Y86153D01*
X10740Y86075D01*
X10874Y86027D01*
X11024Y86012D01*
X7874D01*
X8024Y86027D01*
X8157Y86075D01*
X8276Y86153D01*
X8378Y86264D01*
X8465Y86405D01*
X8535Y86579D01*
X8591Y86783D01*
X8596Y86814D01*
X8591Y86845D01*
X8535Y87051D01*
X8465Y87226D01*
X8378Y87369D01*
X8276Y87480D01*
X8157Y87559D01*
X8024Y87607D01*
X7874Y87622D01*
X11024D01*
X10874Y87607D01*
D02*
G37*
G36*
X44629Y84311D02*
X44578Y84356D01*
X44519Y84396D01*
X44452Y84431D01*
X44376Y84462D01*
X44291Y84488D01*
X44198Y84509D01*
X44097Y84526D01*
X43986Y84538D01*
X43741Y84547D01*
X43741Y85728D01*
X43868Y85731D01*
X44097Y85750D01*
X44198Y85766D01*
X44291Y85787D01*
X44376Y85813D01*
X44452Y85844D01*
X44519Y85879D01*
X44578Y85920D01*
X44629Y85965D01*
X44629Y84311D01*
D02*
G37*
G36*
X11207Y84598D02*
X11164Y84454D01*
X11165Y84288D01*
X11211Y84099D01*
X11301Y83887D01*
X11436Y83653D01*
X11615Y83397D01*
X11839Y83118D01*
X12420Y82492D01*
X11307Y81379D01*
X10983Y81692D01*
X10402Y82184D01*
X10146Y82363D01*
X9912Y82498D01*
X9701Y82589D01*
X9512Y82634D01*
X9345Y82636D01*
X9201Y82592D01*
X9080Y82504D01*
X11295Y84719D01*
X11207Y84598D01*
D02*
G37*
G36*
X37413Y81062D02*
X37491Y81009D01*
X37581Y80961D01*
X37683Y80920D01*
X37795Y80886D01*
X37920Y80857D01*
X38055Y80835D01*
X38202Y80820D01*
X38529Y80807D01*
X38529Y79232D01*
X38360Y79229D01*
X38055Y79204D01*
X37920Y79182D01*
X37795Y79154D01*
X37683Y79119D01*
X37581Y79078D01*
X37491Y79031D01*
X37413Y78977D01*
X37345Y78917D01*
X37345Y81122D01*
X37413Y81062D01*
D02*
G37*
G36*
X22615Y76358D02*
X22548Y76418D01*
X22469Y76472D01*
X22379Y76519D01*
X22278Y76560D01*
X22165Y76595D01*
X22041Y76623D01*
X21905Y76645D01*
X21759Y76661D01*
X21431Y76673D01*
X21431Y78248D01*
X21601Y78251D01*
X21905Y78276D01*
X22041Y78298D01*
X22165Y78327D01*
X22278Y78361D01*
X22379Y78402D01*
X22469Y78450D01*
X22548Y78503D01*
X22615Y78563D01*
X22615Y76358D01*
D02*
G37*
G36*
X47748Y76193D02*
X47732Y76284D01*
X47685Y76366D01*
X47607Y76438D01*
X47496Y76500D01*
X47355Y76553D01*
X47181Y76596D01*
X46977Y76630D01*
X46740Y76654D01*
X46173Y76673D01*
Y78248D01*
X46474Y78256D01*
X46744Y78280D01*
X46981Y78319D01*
X47187Y78374D01*
X47362Y78445D01*
X47505Y78531D01*
X47616Y78634D01*
X47696Y78752D01*
X47744Y78886D01*
X47760Y79035D01*
X47748Y76193D01*
D02*
G37*
G36*
X11311Y78886D02*
X11359Y78752D01*
X11439Y78634D01*
X11550Y78531D01*
X11693Y78445D01*
X11868Y78374D01*
X12074Y78319D01*
X12312Y78280D01*
X12581Y78256D01*
X12882Y78248D01*
Y76673D01*
X12583Y76668D01*
X12078Y76630D01*
X11874Y76596D01*
X11701Y76553D01*
X11559Y76500D01*
X11449Y76438D01*
X11370Y76366D01*
X11323Y76284D01*
X11307Y76193D01*
X11295Y79035D01*
X11311Y78886D01*
D02*
G37*
G36*
X51032Y76189D02*
X50898Y76142D01*
X50779Y76062D01*
X50677Y75951D01*
X50591Y75808D01*
X50520Y75634D01*
X50465Y75428D01*
X50459Y75397D01*
X50465Y75366D01*
X50520Y75161D01*
X50591Y74988D01*
X50677Y74846D01*
X50779Y74736D01*
X50898Y74657D01*
X51032Y74610D01*
X51181Y74594D01*
X48031D01*
X48181Y74610D01*
X48315Y74657D01*
X48433Y74736D01*
X48535Y74846D01*
X48622Y74988D01*
X48693Y75161D01*
X48748Y75366D01*
X48753Y75397D01*
X48748Y75428D01*
X48693Y75634D01*
X48622Y75808D01*
X48535Y75951D01*
X48433Y76062D01*
X48315Y76142D01*
X48181Y76189D01*
X48031Y76205D01*
X51181D01*
X51032Y76189D01*
D02*
G37*
G36*
X10874D02*
X10740Y76142D01*
X10622Y76062D01*
X10520Y75951D01*
X10433Y75808D01*
X10362Y75634D01*
X10307Y75428D01*
X10301Y75394D01*
X10307Y75360D01*
X10362Y75153D01*
X10433Y74979D01*
X10520Y74836D01*
X10622Y74725D01*
X10740Y74646D01*
X10874Y74598D01*
X11024Y74582D01*
X7874D01*
X8024Y74598D01*
X8157Y74646D01*
X8276Y74725D01*
X8378Y74836D01*
X8465Y74979D01*
X8535Y75153D01*
X8591Y75360D01*
X8596Y75394D01*
X8591Y75428D01*
X8535Y75634D01*
X8465Y75808D01*
X8378Y75951D01*
X8276Y76062D01*
X8157Y76142D01*
X8024Y76189D01*
X7874Y76205D01*
X11024D01*
X10874Y76189D01*
D02*
G37*
G36*
X25623Y71254D02*
X25633Y71140D01*
X25649Y71032D01*
X25672Y70929D01*
X25701Y70833D01*
X25737Y70742D01*
X25780Y70658D01*
X25829Y70579D01*
X25884Y70506D01*
X25947Y70439D01*
X24293D01*
X24355Y70506D01*
X24411Y70579D01*
X24460Y70658D01*
X24502Y70742D01*
X24538Y70833D01*
X24567Y70929D01*
X24590Y71032D01*
X24607Y71140D01*
X24616Y71254D01*
X24620Y71374D01*
X25620D01*
X25623Y71254D01*
D02*
G37*
G36*
X14976Y70573D02*
X15034Y70533D01*
X15102Y70497D01*
X15178Y70466D01*
X15262Y70440D01*
X15355Y70418D01*
X15457Y70402D01*
X15567Y70390D01*
X15812Y70380D01*
X15805Y69199D01*
X15678Y69197D01*
X15449Y69178D01*
X15348Y69162D01*
X15255Y69141D01*
X15170Y69115D01*
X15094Y69084D01*
X15026Y69049D01*
X14967Y69009D01*
X14916Y68965D01*
X14925Y70618D01*
X14976Y70573D01*
D02*
G37*
G36*
X11319Y68204D02*
X11354Y68122D01*
X11413Y68050D01*
X11496Y67988D01*
X11602Y67935D01*
X11732Y67892D01*
X11886Y67858D01*
X12063Y67834D01*
X12264Y67820D01*
X12488Y67815D01*
Y66634D01*
X12262Y66628D01*
X12060Y66610D01*
X11881Y66581D01*
X11726Y66539D01*
X11595Y66486D01*
X11487Y66421D01*
X11404Y66344D01*
X11344Y66256D01*
X11307Y66155D01*
X11295Y66043D01*
X11307Y68295D01*
X11319Y68204D01*
D02*
G37*
G36*
X42112Y66339D02*
X42012Y66303D01*
X41923Y66244D01*
X41846Y66162D01*
X41781Y66055D01*
X41728Y65925D01*
X41687Y65772D01*
X41658Y65595D01*
X41640Y65394D01*
X41634Y65170D01*
X40453D01*
X40447Y65394D01*
X40429Y65595D01*
X40400Y65772D01*
X40358Y65925D01*
X40305Y66055D01*
X40240Y66162D01*
X40163Y66244D01*
X40075Y66303D01*
X39974Y66339D01*
X39862Y66351D01*
X42224D01*
X42112Y66339D01*
D02*
G37*
G36*
X9261Y64776D02*
X9169Y64843D01*
X9061Y64876D01*
X8935D01*
X8793Y64843D01*
X8635Y64776D01*
X8459Y64676D01*
X8267Y64542D01*
X8058Y64375D01*
X7591Y63941D01*
X6756Y64776D01*
X6989Y65018D01*
X7357Y65452D01*
X7491Y65644D01*
X7591Y65820D01*
X7658Y65978D01*
X7691Y66120D01*
Y66246D01*
X7658Y66354D01*
X7591Y66446D01*
X9261Y64776D01*
D02*
G37*
G36*
X46262Y65384D02*
X46281Y65155D01*
X46298Y65054D01*
X46319Y64961D01*
X46345Y64876D01*
X46376Y64800D01*
X46411Y64733D01*
X46451Y64674D01*
X46496Y64623D01*
X44842D01*
X44887Y64674D01*
X44928Y64733D01*
X44963Y64800D01*
X44994Y64876D01*
X45020Y64961D01*
X45041Y65054D01*
X45057Y65155D01*
X45069Y65265D01*
X45079Y65511D01*
X46260D01*
X46262Y65384D01*
D02*
G37*
G36*
X37474Y65333D02*
X37649Y65185D01*
X37732Y65125D01*
X37813Y65074D01*
X37891Y65033D01*
X37967Y65001D01*
X38039Y64978D01*
X38110Y64965D01*
X38177Y64961D01*
X37008Y63791D01*
X37004Y63859D01*
X36991Y63929D01*
X36968Y64002D01*
X36936Y64077D01*
X36894Y64156D01*
X36844Y64236D01*
X36783Y64320D01*
X36714Y64406D01*
X36547Y64586D01*
X37382Y65421D01*
X37474Y65333D01*
D02*
G37*
G36*
X51032Y64772D02*
X50898Y64724D01*
X50779Y64645D01*
X50677Y64534D01*
X50591Y64391D01*
X50520Y64217D01*
X50465Y64010D01*
X50425Y63772D01*
X50402Y63503D01*
X50394Y63201D01*
X48819D01*
X48811Y63503D01*
X48787Y63772D01*
X48748Y64010D01*
X48693Y64217D01*
X48622Y64391D01*
X48535Y64534D01*
X48433Y64645D01*
X48315Y64724D01*
X48181Y64772D01*
X48031Y64788D01*
X51181D01*
X51032Y64772D01*
D02*
G37*
G36*
X42722Y62656D02*
X42740Y62454D01*
X42770Y62275D01*
X42811Y62120D01*
X42864Y61989D01*
X42929Y61881D01*
X43006Y61798D01*
X43095Y61738D01*
X43195Y61701D01*
X43307Y61689D01*
X41547Y61701D01*
X41535Y62882D01*
X42717D01*
X42722Y62656D01*
D02*
G37*
G36*
X50401Y62904D02*
X50422Y62649D01*
X50457Y62424D01*
X50506Y62229D01*
X50569Y62064D01*
X50646Y61929D01*
X50737Y61824D01*
X50842Y61749D01*
X50962Y61704D01*
X51095Y61689D01*
X50394D01*
X50394Y61600D01*
X48819D01*
X48814Y61689D01*
X48118D01*
X48251Y61704D01*
X48370Y61749D01*
X48475Y61824D01*
X48567Y61929D01*
X48644Y62064D01*
X48707Y62229D01*
X48756Y62424D01*
X48791Y62649D01*
X48812Y62904D01*
X48819Y63189D01*
X50394D01*
X50401Y62904D01*
D02*
G37*
G36*
X29748Y60452D02*
X29832Y60443D01*
X30078Y60433D01*
Y59252D01*
X29951Y59250D01*
X29748Y59233D01*
Y58661D01*
X29737Y58774D01*
X29701Y58874D01*
X29641Y58963D01*
X29557Y59039D01*
X29450Y59104D01*
X29369Y59137D01*
X29367Y59136D01*
X29300Y59101D01*
X29241Y59061D01*
X29190Y59016D01*
Y59192D01*
X29164Y59199D01*
X28985Y59228D01*
X28782Y59246D01*
X28555Y59252D01*
Y60433D01*
X28782Y60439D01*
X28985Y60457D01*
X29164Y60486D01*
X29190Y60493D01*
Y60669D01*
X29241Y60624D01*
X29300Y60584D01*
X29367Y60549D01*
X29369Y60548D01*
X29450Y60581D01*
X29557Y60646D01*
X29641Y60722D01*
X29701Y60811D01*
X29737Y60911D01*
X29748Y61024D01*
Y60452D01*
D02*
G37*
G36*
X41547Y58661D02*
X41536Y58774D01*
X41500Y58874D01*
X41441Y58963D01*
X41358Y59039D01*
X41252Y59104D01*
X41122Y59158D01*
X40969Y59199D01*
X40791Y59228D01*
X40591Y59246D01*
X40551Y59247D01*
X40512Y59246D01*
X40311Y59228D01*
X40134Y59199D01*
X39980Y59158D01*
X39850Y59104D01*
X39744Y59039D01*
X39661Y58963D01*
X39602Y58874D01*
X39567Y58774D01*
X39555Y58661D01*
Y61024D01*
X39567Y60911D01*
X39602Y60811D01*
X39661Y60722D01*
X39744Y60646D01*
X39850Y60581D01*
X39980Y60528D01*
X40134Y60486D01*
X40311Y60457D01*
X40512Y60439D01*
X40551Y60438D01*
X40591Y60439D01*
X40791Y60457D01*
X40969Y60486D01*
X41122Y60528D01*
X41252Y60581D01*
X41358Y60646D01*
X41441Y60722D01*
X41500Y60811D01*
X41536Y60911D01*
X41547Y61024D01*
Y58661D01*
D02*
G37*
G36*
X9645Y59799D02*
X9562Y59712D01*
X9489Y59625D01*
X9424Y59537D01*
X9368Y59448D01*
X9320Y59359D01*
X9281Y59269D01*
X9252Y59180D01*
X9231Y59089D01*
X9218Y58998D01*
X9215Y58907D01*
X8046Y60076D01*
X8137Y60080D01*
X8228Y60092D01*
X8318Y60113D01*
X8408Y60143D01*
X8497Y60182D01*
X8586Y60229D01*
X8675Y60285D01*
X8763Y60350D01*
X8851Y60424D01*
X8938Y60507D01*
X9645Y59799D01*
D02*
G37*
G36*
X38864Y57985D02*
X38764Y57949D01*
X38675Y57889D01*
X38598Y57806D01*
X38533Y57698D01*
X38480Y57567D01*
X38439Y57412D01*
X38410Y57233D01*
X38392Y57030D01*
X38386Y56803D01*
X37205D01*
X37199Y57030D01*
X37181Y57233D01*
X37152Y57412D01*
X37110Y57567D01*
X37057Y57698D01*
X36992Y57806D01*
X36915Y57889D01*
X36827Y57949D01*
X36726Y57985D01*
X36614Y57996D01*
X38976D01*
X38864Y57985D01*
D02*
G37*
G36*
X38392Y56356D02*
X38410Y56153D01*
X38439Y55974D01*
X38480Y55819D01*
X38533Y55688D01*
X38598Y55580D01*
X38675Y55497D01*
X38764Y55437D01*
X38864Y55401D01*
X38976Y55389D01*
X36614D01*
X36726Y55401D01*
X36827Y55437D01*
X36915Y55497D01*
X36992Y55580D01*
X37057Y55688D01*
X37110Y55819D01*
X37152Y55974D01*
X37181Y56153D01*
X37199Y56356D01*
X37205Y56582D01*
X38386D01*
X38392Y56356D01*
D02*
G37*
G36*
X18113Y54635D02*
X17971Y54485D01*
X17846Y54337D01*
X17739Y54191D01*
X17650Y54048D01*
X17645Y54039D01*
X17743Y53947D01*
X17676Y53941D01*
X17607Y53926D01*
X17584Y53918D01*
X17578Y53906D01*
X17524Y53766D01*
X17487Y53629D01*
X17468Y53494D01*
X17467Y53361D01*
X17483Y53230D01*
X17093Y53605D01*
X17045Y53563D01*
X16953Y53475D01*
X16087Y54279D01*
X16175Y54370D01*
X16230Y54436D01*
X15851Y54800D01*
X15983Y54788D01*
X16117Y54794D01*
X16253Y54816D01*
X16391Y54856D01*
X16513Y54905D01*
X16523Y54939D01*
X16534Y55010D01*
X16536Y55078D01*
X16648Y54973D01*
X16673Y54987D01*
X16817Y55077D01*
X16963Y55186D01*
X17111Y55311D01*
X17261Y55453D01*
X18113Y54635D01*
D02*
G37*
G36*
X12958Y54554D02*
X12837Y54426D01*
X12731Y54299D01*
X12642Y54174D01*
X12568Y54051D01*
X12510Y53929D01*
X12468Y53809D01*
X12441Y53691D01*
X12431Y53574D01*
X12436Y53459D01*
X12457Y53346D01*
X11043Y54760D01*
X11156Y54739D01*
X11271Y54734D01*
X11388Y54745D01*
X11506Y54771D01*
X11626Y54813D01*
X11748Y54871D01*
X11871Y54945D01*
X11996Y55035D01*
X12123Y55140D01*
X12251Y55261D01*
X12958Y54554D01*
D02*
G37*
G36*
X49995Y55011D02*
X49954Y54952D01*
X49919Y54885D01*
X49888Y54809D01*
X49862Y54724D01*
X49841Y54631D01*
X49824Y54530D01*
X49813Y54420D01*
X49803Y54174D01*
X48622D01*
X48620Y54301D01*
X48601Y54530D01*
X48584Y54631D01*
X48563Y54724D01*
X48537Y54809D01*
X48506Y54885D01*
X48471Y54952D01*
X48431Y55011D01*
X48386Y55062D01*
X50039D01*
X49995Y55011D01*
D02*
G37*
G36*
X42579Y55073D02*
X42546Y55017D01*
X42518Y54951D01*
X42493Y54877D01*
X42472Y54793D01*
X42455Y54700D01*
X42441Y54599D01*
X42426Y54368D01*
X42424Y54240D01*
X41243Y54122D01*
X41241Y54250D01*
X41221Y54478D01*
X41204Y54578D01*
X41181Y54668D01*
X41154Y54750D01*
X41122Y54822D01*
X41085Y54884D01*
X41043Y54938D01*
X40997Y54981D01*
X42615Y55121D01*
X42579Y55073D01*
D02*
G37*
G36*
X49248Y52941D02*
X49021Y52706D01*
X48662Y52286D01*
X48531Y52101D01*
X48431Y51933D01*
X48364Y51781D01*
X48328Y51646D01*
X48324Y51528D01*
X48353Y51427D01*
X48413Y51342D01*
X46814Y52941D01*
X46899Y52880D01*
X47001Y52852D01*
X47119Y52856D01*
X47254Y52891D01*
X47405Y52959D01*
X47573Y53058D01*
X47758Y53190D01*
X47960Y53353D01*
X48413Y53776D01*
X49248Y52941D01*
D02*
G37*
G36*
X26669Y54325D02*
X26728Y54285D01*
X26796Y54250D01*
X26871Y54219D01*
X26956Y54193D01*
X27049Y54172D01*
X27151Y54155D01*
X27261Y54143D01*
X27506Y54134D01*
Y52953D01*
X27379Y52950D01*
X27151Y52931D01*
X27049Y52915D01*
X26956Y52894D01*
X26871Y52868D01*
X26796Y52837D01*
X26728Y52802D01*
X26669Y52761D01*
X26618Y52716D01*
Y54370D01*
X26669Y54325D01*
D02*
G37*
G36*
X29736Y52362D02*
X29725Y52474D01*
X29689Y52575D01*
X29630Y52663D01*
X29547Y52740D01*
X29441Y52805D01*
X29311Y52858D01*
X29158Y52900D01*
X28980Y52929D01*
X28780Y52947D01*
X28555Y52953D01*
Y54134D01*
X28780Y54140D01*
X28980Y54158D01*
X29158Y54187D01*
X29311Y54228D01*
X29441Y54282D01*
X29547Y54347D01*
X29630Y54423D01*
X29689Y54512D01*
X29725Y54612D01*
X29736Y54724D01*
Y52362D01*
D02*
G37*
G36*
X43168Y53542D02*
X43602Y53175D01*
X43794Y53041D01*
X43969Y52941D01*
X44128Y52874D01*
X44270Y52841D01*
X44395D01*
X44504Y52874D01*
X44596Y52941D01*
X42925Y51270D01*
X42992Y51362D01*
X43026Y51471D01*
Y51596D01*
X42992Y51738D01*
X42925Y51897D01*
X42825Y52072D01*
X42691Y52264D01*
X42524Y52473D01*
X42090Y52941D01*
X42925Y53776D01*
X43168Y53542D01*
D02*
G37*
G36*
X18181Y48983D02*
X18059Y48855D01*
X17852Y48605D01*
X17767Y48482D01*
X17694Y48361D01*
X17634Y48242D01*
X17587Y48124D01*
X17551Y48008D01*
X17529Y47894D01*
X17518Y47782D01*
X16567Y49541D01*
X16663Y49493D01*
X16763Y49464D01*
X16867Y49454D01*
X16974Y49463D01*
X17085Y49490D01*
X17199Y49536D01*
X17318Y49601D01*
X17439Y49685D01*
X17564Y49788D01*
X17693Y49909D01*
X18181Y48983D01*
D02*
G37*
G36*
X46469Y47847D02*
X46457Y47919D01*
X46421Y47984D01*
X46362Y48041D01*
X46280Y48091D01*
X46173Y48133D01*
X46044Y48167D01*
X45890Y48194D01*
X45713Y48213D01*
X45693Y48214D01*
X45449Y48194D01*
X45295Y48167D01*
X45165Y48133D01*
X45059Y48091D01*
X44976Y48041D01*
X44917Y47984D01*
X44882Y47919D01*
X44870Y47847D01*
Y49791D01*
X44882Y49719D01*
X44917Y49654D01*
X44976Y49597D01*
X45059Y49547D01*
X45165Y49505D01*
X45295Y49470D01*
X45449Y49444D01*
X45626Y49425D01*
X45645Y49424D01*
X45890Y49444D01*
X46044Y49470D01*
X46173Y49505D01*
X46280Y49547D01*
X46362Y49597D01*
X46421Y49654D01*
X46457Y49719D01*
X46469Y49791D01*
Y47847D01*
D02*
G37*
G36*
X8980Y50140D02*
X9106Y50035D01*
X9231Y49945D01*
X9355Y49871D01*
X9476Y49813D01*
X9596Y49771D01*
X9714Y49745D01*
X9831Y49734D01*
X9946Y49739D01*
X10059Y49760D01*
X8645Y48346D01*
X8666Y48459D01*
X8671Y48574D01*
X8661Y48691D01*
X8635Y48809D01*
X8592Y48929D01*
X8534Y49051D01*
X8461Y49174D01*
X8371Y49299D01*
X8265Y49426D01*
X8144Y49554D01*
X8851Y50261D01*
X8980Y50140D01*
D02*
G37*
G36*
X29748Y47853D02*
X29832Y47844D01*
X30078Y47835D01*
Y46654D01*
X29951Y46651D01*
X29748Y46634D01*
Y46063D01*
X29737Y46175D01*
X29701Y46276D01*
X29641Y46364D01*
X29557Y46441D01*
X29450Y46506D01*
X29369Y46539D01*
X29367Y46538D01*
X29300Y46502D01*
X29241Y46462D01*
X29190Y46417D01*
Y46593D01*
X29164Y46600D01*
X28985Y46630D01*
X28782Y46648D01*
X28555Y46654D01*
Y47835D01*
X28782Y47841D01*
X28985Y47858D01*
X29164Y47888D01*
X29190Y47895D01*
Y48071D01*
X29241Y48026D01*
X29300Y47986D01*
X29367Y47950D01*
X29369Y47949D01*
X29450Y47982D01*
X29557Y48047D01*
X29641Y48124D01*
X29701Y48213D01*
X29737Y48313D01*
X29748Y48425D01*
Y47853D01*
D02*
G37*
G36*
X48336Y49426D02*
X48303Y49319D01*
X48305Y49194D01*
X48339Y49052D01*
X48407Y48894D01*
X48509Y48718D01*
X48643Y48526D01*
X48812Y48316D01*
X49248Y47847D01*
X48413Y47012D01*
X48170Y47247D01*
X47734Y47616D01*
X47542Y47751D01*
X47366Y47853D01*
X47208Y47921D01*
X47066Y47955D01*
X46941Y47956D01*
X46834Y47924D01*
X46743Y47859D01*
X48401Y49517D01*
X48336Y49426D01*
D02*
G37*
G36*
X38864Y45386D02*
X38764Y45350D01*
X38675Y45291D01*
X38598Y45207D01*
X38533Y45100D01*
X38480Y44969D01*
X38439Y44813D01*
X38409Y44634D01*
X38392Y44432D01*
X38386Y44205D01*
X37205D01*
X37199Y44432D01*
X37181Y44634D01*
X37152Y44813D01*
X37110Y44969D01*
X37057Y45100D01*
X36992Y45207D01*
X36915Y45291D01*
X36827Y45350D01*
X36726Y45386D01*
X36614Y45398D01*
X38976D01*
X38864Y45386D01*
D02*
G37*
G36*
X8953Y45296D02*
X9100Y45174D01*
X9247Y45069D01*
X9394Y44980D01*
X9541Y44909D01*
X9687Y44854D01*
X9834Y44816D01*
X9980Y44795D01*
X10127Y44791D01*
X10273Y44803D01*
X8602Y43133D01*
X8615Y43279D01*
X8611Y43425D01*
X8589Y43572D01*
X8551Y43718D01*
X8497Y43865D01*
X8425Y44012D01*
X8337Y44159D01*
X8231Y44306D01*
X8109Y44453D01*
X7971Y44600D01*
X8806Y45435D01*
X8953Y45296D01*
D02*
G37*
G36*
X50203Y43757D02*
X50221Y43554D01*
X50250Y43376D01*
X50291Y43220D01*
X50345Y43089D01*
X50409Y42982D01*
X50486Y42898D01*
X50575Y42839D01*
X50675Y42803D01*
X50787Y42791D01*
X48425D01*
X48537Y42803D01*
X48638Y42839D01*
X48726Y42898D01*
X48803Y42982D01*
X48868Y43089D01*
X48921Y43220D01*
X48963Y43376D01*
X48992Y43554D01*
X49010Y43757D01*
X49016Y43984D01*
X50197D01*
X50203Y43757D01*
D02*
G37*
G36*
X38392D02*
X38409Y43554D01*
X38439Y43376D01*
X38480Y43220D01*
X38533Y43089D01*
X38598Y42982D01*
X38675Y42898D01*
X38764Y42839D01*
X38864Y42803D01*
X38976Y42791D01*
X36614D01*
X36726Y42803D01*
X36827Y42839D01*
X36915Y42898D01*
X36992Y42982D01*
X37057Y43089D01*
X37110Y43220D01*
X37152Y43376D01*
X37181Y43554D01*
X37199Y43757D01*
X37205Y43984D01*
X38386D01*
X38392Y43757D01*
D02*
G37*
G36*
X23678Y41752D02*
X23611Y41812D01*
X23532Y41865D01*
X23442Y41913D01*
X23341Y41954D01*
X23228Y41988D01*
X23104Y42017D01*
X22969Y42039D01*
X22822Y42054D01*
X22494Y42067D01*
Y43642D01*
X22664Y43645D01*
X22969Y43670D01*
X23104Y43692D01*
X23228Y43720D01*
X23341Y43755D01*
X23442Y43796D01*
X23532Y43843D01*
X23611Y43897D01*
X23678Y43957D01*
Y41752D01*
D02*
G37*
G36*
X29748Y41554D02*
X29832Y41545D01*
X30078Y41535D01*
Y40354D01*
X29951Y40352D01*
X29748Y40335D01*
Y39764D01*
X29737Y39876D01*
X29701Y39976D01*
X29641Y40065D01*
X29557Y40142D01*
X29450Y40207D01*
X29369Y40239D01*
X29367Y40239D01*
X29300Y40203D01*
X29241Y40163D01*
X29190Y40118D01*
Y40294D01*
X29164Y40301D01*
X28985Y40331D01*
X28782Y40348D01*
X28555Y40354D01*
Y41535D01*
X28782Y41541D01*
X28985Y41559D01*
X29164Y41589D01*
X29190Y41596D01*
Y41772D01*
X29241Y41727D01*
X29300Y41687D01*
X29367Y41651D01*
X29369Y41650D01*
X29450Y41683D01*
X29557Y41748D01*
X29641Y41825D01*
X29701Y41913D01*
X29737Y42014D01*
X29748Y42126D01*
Y41554D01*
D02*
G37*
G36*
X16945Y44277D02*
X17157Y44144D01*
X17371Y44026D01*
X17587Y43924D01*
X17805Y43838D01*
X18026Y43767D01*
X18248Y43712D01*
X18474Y43673D01*
X18701Y43650D01*
X18930Y43642D01*
Y42067D01*
X18701Y42059D01*
X18474Y42035D01*
X18248Y41996D01*
X18026Y41941D01*
X17805Y41871D01*
X17587Y41784D01*
X17371Y41682D01*
X17157Y41565D01*
X16945Y41431D01*
X16736Y41282D01*
Y44427D01*
X16945Y44277D01*
D02*
G37*
G36*
X8885Y40057D02*
X9124Y39861D01*
X9197Y39967D01*
X9211Y39910D01*
X9233Y39849D01*
X9264Y39784D01*
X9275Y39765D01*
X9350Y39724D01*
X9453Y39682D01*
X9550Y39656D01*
X9642Y39647D01*
X9729Y39654D01*
X9810Y39678D01*
X9568Y39377D01*
X9715Y39221D01*
X9061Y38205D01*
X8969Y38293D01*
X8806Y38427D01*
X8610Y38182D01*
X8616Y38267D01*
X8604Y38359D01*
X8577Y38457D01*
X8533Y38563D01*
X8523Y38581D01*
X8473Y38596D01*
X8400Y38610D01*
X8329Y38612D01*
X8260Y38605D01*
X8393Y38798D01*
X8301Y38923D01*
X8190Y39057D01*
X7920Y39346D01*
X8755Y40181D01*
X8885Y40057D01*
D02*
G37*
G36*
X43900Y39400D02*
X43919Y39171D01*
X43931Y39099D01*
X44488D01*
X44376Y39087D01*
X44276Y39051D01*
X44187Y38991D01*
X44110Y38908D01*
X44045Y38800D01*
X44035Y38775D01*
X44049Y38748D01*
X44089Y38689D01*
X44134Y38639D01*
X43984D01*
X43951Y38514D01*
X43921Y38335D01*
X43903Y38132D01*
X43898Y37906D01*
X42717D01*
X42711Y38132D01*
X42693Y38335D01*
X42663Y38514D01*
X42630Y38639D01*
X42480D01*
X42525Y38689D01*
X42565Y38748D01*
X42579Y38775D01*
X42569Y38800D01*
X42504Y38908D01*
X42427Y38991D01*
X42339Y39051D01*
X42238Y39087D01*
X42126Y39099D01*
X42684D01*
X42695Y39171D01*
X42707Y39281D01*
X42717Y39527D01*
X43898D01*
X43900Y39400D01*
D02*
G37*
G36*
X38864Y39087D02*
X38764Y39051D01*
X38675Y38991D01*
X38598Y38908D01*
X38533Y38800D01*
X38480Y38669D01*
X38439Y38514D01*
X38409Y38335D01*
X38392Y38132D01*
X38386Y37906D01*
X37205D01*
X37199Y38132D01*
X37181Y38335D01*
X37152Y38514D01*
X37110Y38669D01*
X37057Y38800D01*
X36992Y38908D01*
X36915Y38991D01*
X36827Y39051D01*
X36726Y39087D01*
X36614Y39099D01*
X38976D01*
X38864Y39087D01*
D02*
G37*
G36*
X38392Y37458D02*
X38409Y37255D01*
X38439Y37076D01*
X38480Y36921D01*
X38533Y36790D01*
X38598Y36683D01*
X38675Y36599D01*
X38764Y36540D01*
X38864Y36504D01*
X38976Y36492D01*
X36614D01*
X36726Y36504D01*
X36827Y36540D01*
X36915Y36599D01*
X36992Y36683D01*
X37057Y36790D01*
X37110Y36921D01*
X37152Y37076D01*
X37181Y37255D01*
X37199Y37458D01*
X37205Y37685D01*
X38386D01*
X38392Y37458D01*
D02*
G37*
G36*
X29748Y35435D02*
X29801Y35434D01*
X29935Y35433D01*
Y33858D01*
X29748Y33848D01*
Y33256D01*
X29734Y33370D01*
X29692Y33473D01*
X29622Y33563D01*
X29524Y33641D01*
X29398Y33708D01*
X29244Y33762D01*
X29061Y33804D01*
X28851Y33834D01*
X28613Y33852D01*
X28346Y33858D01*
Y35433D01*
X28613Y35439D01*
X28851Y35457D01*
X29061Y35487D01*
X29244Y35530D01*
X29398Y35584D01*
X29524Y35650D01*
X29622Y35728D01*
X29692Y35819D01*
X29734Y35921D01*
X29748Y36036D01*
Y35435D01*
D02*
G37*
G36*
X38864Y32788D02*
X38764Y32752D01*
X38675Y32692D01*
X38598Y32609D01*
X38533Y32501D01*
X38480Y32370D01*
X38439Y32215D01*
X38409Y32036D01*
X38392Y31833D01*
X38386Y31607D01*
X37205D01*
X37199Y31833D01*
X37181Y32036D01*
X37152Y32215D01*
X37110Y32370D01*
X37057Y32501D01*
X36992Y32609D01*
X36915Y32692D01*
X36827Y32752D01*
X36726Y32788D01*
X36614Y32800D01*
X38976D01*
X38864Y32788D01*
D02*
G37*
G36*
X38681Y22047D02*
X26083D01*
Y25984D01*
X38681D01*
Y22047D01*
D02*
G37*
G36*
X36110Y15748D02*
X35886Y15742D01*
X35685Y15724D01*
X35508Y15695D01*
X35354Y15654D01*
X35224Y15600D01*
X35118Y15535D01*
X35035Y15459D01*
X34976Y15370D01*
X34941Y15270D01*
X34929Y15157D01*
Y16917D01*
X34941Y16919D01*
X34976Y16921D01*
X36110Y16929D01*
Y15748D01*
D02*
G37*
G36*
X42421Y12992D02*
X43928Y11486D01*
X43736Y11024D01*
X40059Y11024D01*
Y16929D01*
X42421D01*
Y12992D01*
D02*
G37*
G36*
X19488Y10433D02*
X13976D01*
Y15453D01*
X19488D01*
Y10433D01*
D02*
G37*
G36*
X45079Y260138D02*
X39567D01*
Y265158D01*
X45079D01*
Y260138D01*
D02*
G37*
G36*
X18996Y264567D02*
Y258661D01*
X16634D01*
Y262598D01*
X14665Y264567D01*
X18996Y264567D01*
D02*
G37*
G36*
X24126Y258673D02*
X24114Y258671D01*
X24079Y258669D01*
X22945Y258661D01*
Y259842D01*
X23169Y259848D01*
X23370Y259866D01*
X23547Y259896D01*
X23701Y259937D01*
X23831Y259990D01*
X23937Y260055D01*
X24020Y260132D01*
X24079Y260221D01*
X24114Y260321D01*
X24126Y260433D01*
Y258673D01*
D02*
G37*
G36*
X32972Y249606D02*
X20374D01*
Y253543D01*
X32972D01*
Y249606D01*
D02*
G37*
G36*
X21856Y243757D02*
X21874Y243555D01*
X21903Y243376D01*
X21945Y243220D01*
X21998Y243089D01*
X22063Y242982D01*
X22140Y242898D01*
X22228Y242839D01*
X22329Y242803D01*
X22441Y242791D01*
X20079D01*
X20191Y242803D01*
X20291Y242839D01*
X20380Y242898D01*
X20457Y242982D01*
X20522Y243089D01*
X20575Y243220D01*
X20616Y243376D01*
X20646Y243555D01*
X20663Y243757D01*
X20669Y243984D01*
X21850D01*
X21856Y243757D01*
D02*
G37*
G36*
X29321Y242220D02*
X29363Y242118D01*
X29433Y242027D01*
X29531Y241949D01*
X29657Y241883D01*
X29811Y241829D01*
X29994Y241787D01*
X30204Y241756D01*
X30442Y241738D01*
X30709Y241732D01*
Y240158D01*
X30442Y240152D01*
X30204Y240133D01*
X29994Y240103D01*
X29811Y240061D01*
X29657Y240007D01*
X29531Y239941D01*
X29433Y239862D01*
X29363Y239772D01*
X29321Y239669D01*
X29307Y239555D01*
Y240156D01*
X29254Y240157D01*
X29120Y240158D01*
Y241732D01*
X29307Y241742D01*
Y242335D01*
X29321Y242220D01*
D02*
G37*
G36*
X22329Y239087D02*
X22228Y239051D01*
X22140Y238991D01*
X22063Y238908D01*
X21998Y238801D01*
X21945Y238669D01*
X21903Y238514D01*
X21874Y238335D01*
X21856Y238132D01*
X21850Y237906D01*
X20669D01*
X20663Y238132D01*
X20646Y238335D01*
X20616Y238514D01*
X20575Y238669D01*
X20522Y238801D01*
X20457Y238908D01*
X20380Y238991D01*
X20291Y239051D01*
X20191Y239087D01*
X20079Y239099D01*
X22441D01*
X22329Y239087D01*
D02*
G37*
G36*
X50440Y237324D02*
X50451Y237232D01*
X50478Y237133D01*
X50522Y237027D01*
X50532Y237010D01*
X50582Y236994D01*
X50655Y236981D01*
X50726Y236978D01*
X50795Y236986D01*
X50662Y236793D01*
X50754Y236668D01*
X50865Y236534D01*
X51135Y236244D01*
X50300Y235409D01*
X50170Y235533D01*
X49931Y235729D01*
X49858Y235624D01*
X49844Y235681D01*
X49822Y235742D01*
X49791Y235806D01*
X49780Y235826D01*
X49705Y235866D01*
X49602Y235909D01*
X49505Y235934D01*
X49413Y235944D01*
X49327Y235936D01*
X49245Y235913D01*
X49487Y236214D01*
X49340Y236369D01*
X49994Y237385D01*
X50086Y237298D01*
X50249Y237164D01*
X50445Y237408D01*
X50440Y237324D01*
D02*
G37*
G36*
X21856Y237458D02*
X21874Y237255D01*
X21903Y237076D01*
X21945Y236921D01*
X21998Y236790D01*
X22063Y236683D01*
X22140Y236599D01*
X22228Y236540D01*
X22329Y236504D01*
X22441Y236492D01*
X20079D01*
X20191Y236504D01*
X20291Y236540D01*
X20380Y236599D01*
X20457Y236683D01*
X20522Y236790D01*
X20575Y236921D01*
X20616Y237076D01*
X20646Y237255D01*
X20663Y237458D01*
X20669Y237685D01*
X21850D01*
X21856Y237458D01*
D02*
G37*
G36*
X16344D02*
X16362Y237255D01*
X16392Y237076D01*
X16425Y236952D01*
X16575D01*
X16530Y236901D01*
X16490Y236842D01*
X16476Y236816D01*
X16486Y236790D01*
X16551Y236683D01*
X16628Y236599D01*
X16716Y236540D01*
X16817Y236504D01*
X16929Y236492D01*
X16372D01*
X16360Y236419D01*
X16348Y236309D01*
X16339Y236064D01*
X15157D01*
X15155Y236191D01*
X15136Y236419D01*
X15124Y236492D01*
X14567D01*
X14679Y236504D01*
X14780Y236540D01*
X14868Y236599D01*
X14945Y236683D01*
X15010Y236790D01*
X15020Y236816D01*
X15006Y236842D01*
X14966Y236901D01*
X14921Y236952D01*
X15071D01*
X15104Y237076D01*
X15134Y237255D01*
X15152Y237458D01*
X15157Y237685D01*
X16339D01*
X16344Y237458D01*
D02*
G37*
G36*
X29319Y235715D02*
X29354Y235614D01*
X29414Y235526D01*
X29498Y235449D01*
X29605Y235384D01*
X29686Y235351D01*
X29688Y235352D01*
X29756Y235387D01*
X29815Y235428D01*
X29865Y235472D01*
Y235296D01*
X29891Y235289D01*
X30070Y235260D01*
X30273Y235242D01*
X30500Y235236D01*
Y234055D01*
X30273Y234049D01*
X30070Y234032D01*
X29891Y234002D01*
X29865Y233995D01*
Y233819D01*
X29815Y233864D01*
X29756Y233904D01*
X29688Y233939D01*
X29686Y233940D01*
X29605Y233908D01*
X29498Y233842D01*
X29414Y233766D01*
X29354Y233677D01*
X29319Y233577D01*
X29307Y233465D01*
Y234037D01*
X29223Y234046D01*
X28977Y234055D01*
Y235236D01*
X29104Y235239D01*
X29307Y235255D01*
Y235827D01*
X29319Y235715D01*
D02*
G37*
G36*
X35444Y233779D02*
X35523Y233725D01*
X35613Y233678D01*
X35714Y233637D01*
X35827Y233602D01*
X35951Y233574D01*
X36086Y233552D01*
X36233Y233536D01*
X36561Y233524D01*
Y231949D01*
X36391Y231946D01*
X36086Y231921D01*
X35951Y231898D01*
X35827Y231870D01*
X35714Y231835D01*
X35613Y231795D01*
X35523Y231747D01*
X35444Y231694D01*
X35377Y231634D01*
Y233839D01*
X35444Y233779D01*
D02*
G37*
G36*
X22329Y232788D02*
X22228Y232752D01*
X22140Y232692D01*
X22063Y232609D01*
X21998Y232501D01*
X21945Y232370D01*
X21903Y232215D01*
X21874Y232036D01*
X21856Y231833D01*
X21850Y231607D01*
X20669D01*
X20663Y231833D01*
X20646Y232036D01*
X20616Y232215D01*
X20575Y232370D01*
X20522Y232501D01*
X20457Y232609D01*
X20380Y232692D01*
X20291Y232752D01*
X20191Y232788D01*
X20079Y232800D01*
X22441D01*
X22329Y232788D01*
D02*
G37*
G36*
X10518D02*
X10417Y232752D01*
X10329Y232692D01*
X10252Y232609D01*
X10187Y232501D01*
X10134Y232370D01*
X10092Y232215D01*
X10063Y232036D01*
X10045Y231833D01*
X10039Y231607D01*
X8858D01*
X8852Y231833D01*
X8835Y232036D01*
X8805Y232215D01*
X8764Y232370D01*
X8711Y232501D01*
X8646Y232609D01*
X8569Y232692D01*
X8480Y232752D01*
X8380Y232788D01*
X8268Y232800D01*
X10630D01*
X10518Y232788D01*
D02*
G37*
G36*
X42319Y231164D02*
X42110Y231313D01*
X41898Y231447D01*
X41684Y231564D01*
X41468Y231666D01*
X41250Y231753D01*
X41029Y231823D01*
X40807Y231878D01*
X40582Y231917D01*
X40354Y231941D01*
X40125Y231949D01*
Y233524D01*
X40354Y233531D01*
X40582Y233555D01*
X40807Y233594D01*
X41029Y233649D01*
X41250Y233720D01*
X41468Y233806D01*
X41684Y233908D01*
X41898Y234026D01*
X42110Y234159D01*
X42319Y234308D01*
Y231164D01*
D02*
G37*
G36*
X21856Y231159D02*
X21874Y230956D01*
X21903Y230777D01*
X21945Y230622D01*
X21998Y230491D01*
X22063Y230383D01*
X22140Y230300D01*
X22228Y230240D01*
X22329Y230205D01*
X22441Y230192D01*
X20079D01*
X20191Y230205D01*
X20291Y230240D01*
X20380Y230300D01*
X20457Y230383D01*
X20522Y230491D01*
X20575Y230622D01*
X20616Y230777D01*
X20646Y230956D01*
X20663Y231159D01*
X20669Y231386D01*
X21850D01*
X21856Y231159D01*
D02*
G37*
G36*
X50440Y232312D02*
X50445Y232165D01*
X50466Y232019D01*
X50504Y231872D01*
X50558Y231726D01*
X50630Y231579D01*
X50718Y231432D01*
X50824Y231285D01*
X50946Y231138D01*
X51085Y230991D01*
X50249Y230156D01*
X50102Y230294D01*
X49955Y230416D01*
X49808Y230522D01*
X49661Y230610D01*
X49514Y230682D01*
X49368Y230736D01*
X49221Y230774D01*
X49075Y230796D01*
X48928Y230800D01*
X48782Y230787D01*
X50453Y232458D01*
X50440Y232312D01*
D02*
G37*
G36*
X29319Y229415D02*
X29354Y229315D01*
X29414Y229226D01*
X29498Y229150D01*
X29605Y229085D01*
X29686Y229052D01*
X29688Y229053D01*
X29756Y229088D01*
X29815Y229128D01*
X29865Y229173D01*
Y228997D01*
X29891Y228990D01*
X30070Y228961D01*
X30273Y228943D01*
X30500Y228937D01*
Y227756D01*
X30273Y227750D01*
X30070Y227732D01*
X29891Y227703D01*
X29865Y227696D01*
Y227520D01*
X29815Y227565D01*
X29756Y227605D01*
X29688Y227640D01*
X29686Y227641D01*
X29605Y227608D01*
X29498Y227543D01*
X29414Y227467D01*
X29354Y227378D01*
X29319Y227278D01*
X29307Y227165D01*
Y227737D01*
X29223Y227747D01*
X28977Y227756D01*
Y228937D01*
X29104Y228939D01*
X29307Y228956D01*
Y229528D01*
X29319Y229415D01*
D02*
G37*
G36*
X14185Y225799D02*
X14173Y225872D01*
X14138Y225937D01*
X14079Y225994D01*
X13996Y226044D01*
X13890Y226086D01*
X13760Y226120D01*
X13607Y226147D01*
X13429Y226166D01*
X13410Y226167D01*
X13165Y226147D01*
X13012Y226120D01*
X12882Y226086D01*
X12775Y226044D01*
X12693Y225994D01*
X12634Y225937D01*
X12598Y225872D01*
X12586Y225799D01*
Y227744D01*
X12598Y227671D01*
X12634Y227607D01*
X12693Y227549D01*
X12775Y227500D01*
X12882Y227458D01*
X13012Y227423D01*
X13165Y227397D01*
X13342Y227378D01*
X13362Y227377D01*
X13607Y227397D01*
X13760Y227423D01*
X13890Y227458D01*
X13996Y227500D01*
X14079Y227549D01*
X14138Y227607D01*
X14173Y227671D01*
X14185Y227744D01*
Y225799D01*
D02*
G37*
G36*
X10885Y228344D02*
X11321Y227974D01*
X11513Y227839D01*
X11689Y227738D01*
X11847Y227670D01*
X11989Y227635D01*
X12114Y227634D01*
X12222Y227666D01*
X12312Y227732D01*
X10654Y226074D01*
X10719Y226164D01*
X10752Y226272D01*
X10751Y226397D01*
X10716Y226538D01*
X10648Y226697D01*
X10547Y226872D01*
X10412Y227065D01*
X10243Y227274D01*
X9807Y227744D01*
X10642Y228579D01*
X10885Y228344D01*
D02*
G37*
G36*
X42488Y226050D02*
X42392Y226097D01*
X42292Y226126D01*
X42188Y226136D01*
X42081Y226128D01*
X41970Y226100D01*
X41856Y226054D01*
X41737Y225989D01*
X41616Y225905D01*
X41491Y225803D01*
X41362Y225682D01*
X40874Y226608D01*
X40996Y226736D01*
X41203Y226986D01*
X41288Y227109D01*
X41361Y227229D01*
X41421Y227349D01*
X41468Y227466D01*
X41504Y227582D01*
X41526Y227696D01*
X41537Y227809D01*
X42488Y226050D01*
D02*
G37*
G36*
X50389Y227131D02*
X50384Y227016D01*
X50394Y226900D01*
X50420Y226781D01*
X50463Y226661D01*
X50521Y226540D01*
X50595Y226416D01*
X50684Y226291D01*
X50790Y226165D01*
X50911Y226036D01*
X50204Y225329D01*
X50075Y225451D01*
X49949Y225556D01*
X49824Y225646D01*
X49700Y225719D01*
X49579Y225778D01*
X49459Y225820D01*
X49341Y225846D01*
X49224Y225856D01*
X49109Y225851D01*
X48996Y225830D01*
X50410Y227244D01*
X50389Y227131D01*
D02*
G37*
G36*
X12241Y222650D02*
X12156Y222710D01*
X12055Y222739D01*
X11936Y222735D01*
X11802Y222699D01*
X11650Y222632D01*
X11482Y222532D01*
X11297Y222401D01*
X11095Y222237D01*
X10642Y221815D01*
X9807Y222650D01*
X10034Y222885D01*
X10393Y223305D01*
X10525Y223490D01*
X10624Y223658D01*
X10692Y223810D01*
X10727Y223944D01*
X10731Y224062D01*
X10702Y224164D01*
X10642Y224249D01*
X12241Y222650D01*
D02*
G37*
G36*
X16063Y224228D02*
X16029Y224120D01*
Y223994D01*
X16063Y223852D01*
X16130Y223694D01*
X16230Y223518D01*
X16364Y223326D01*
X16531Y223117D01*
X16965Y222650D01*
X16130Y221815D01*
X15888Y222048D01*
X15453Y222416D01*
X15261Y222550D01*
X15086Y222650D01*
X14927Y222717D01*
X14785Y222750D01*
X14660D01*
X14551Y222717D01*
X14459Y222650D01*
X16130Y224320D01*
X16063Y224228D01*
D02*
G37*
G36*
X32437Y221220D02*
X32386Y221265D01*
X32327Y221305D01*
X32260Y221341D01*
X32184Y221372D01*
X32099Y221398D01*
X32006Y221419D01*
X31904Y221435D01*
X31794Y221447D01*
X31549Y221457D01*
Y222638D01*
X31676Y222640D01*
X31904Y222659D01*
X32006Y222676D01*
X32099Y222697D01*
X32184Y222723D01*
X32260Y222754D01*
X32327Y222789D01*
X32386Y222829D01*
X32437Y222874D01*
Y221220D01*
D02*
G37*
G36*
X29331Y223116D02*
X29366Y223016D01*
X29425Y222927D01*
X29508Y222850D01*
X29614Y222785D01*
X29744Y222732D01*
X29897Y222691D01*
X30075Y222661D01*
X30275Y222644D01*
X30500Y222638D01*
Y221457D01*
X30275Y221451D01*
X30075Y221433D01*
X29897Y221404D01*
X29744Y221362D01*
X29614Y221309D01*
X29508Y221244D01*
X29425Y221167D01*
X29366Y221079D01*
X29331Y220978D01*
X29319Y220866D01*
Y223228D01*
X29331Y223116D01*
D02*
G37*
G36*
X48012Y220830D02*
X47899Y220851D01*
X47784Y220856D01*
X47667Y220846D01*
X47549Y220820D01*
X47429Y220778D01*
X47307Y220720D01*
X47184Y220646D01*
X47059Y220556D01*
X46932Y220451D01*
X46804Y220329D01*
X46097Y221036D01*
X46218Y221165D01*
X46324Y221291D01*
X46413Y221416D01*
X46487Y221540D01*
X46545Y221661D01*
X46587Y221781D01*
X46614Y221900D01*
X46624Y222016D01*
X46619Y222131D01*
X46598Y222244D01*
X48012Y220830D01*
D02*
G37*
G36*
X41962Y221985D02*
X42011Y222027D01*
X42102Y222115D01*
X42968Y221311D01*
X42880Y221220D01*
X42825Y221155D01*
X43204Y220791D01*
X43072Y220802D01*
X42938Y220797D01*
X42802Y220774D01*
X42664Y220735D01*
X42542Y220685D01*
X42532Y220652D01*
X42521Y220581D01*
X42519Y220513D01*
X42407Y220617D01*
X42382Y220604D01*
X42238Y220513D01*
X42092Y220405D01*
X41944Y220280D01*
X41794Y220137D01*
X40942Y220956D01*
X41085Y221106D01*
X41209Y221254D01*
X41316Y221399D01*
X41406Y221543D01*
X41410Y221552D01*
X41312Y221644D01*
X41379Y221650D01*
X41448Y221665D01*
X41471Y221673D01*
X41477Y221685D01*
X41532Y221824D01*
X41568Y221961D01*
X41587Y222097D01*
X41588Y222230D01*
X41572Y222361D01*
X41962Y221985D01*
D02*
G37*
G36*
X10435Y221289D02*
X10454Y221061D01*
X10471Y220959D01*
X10492Y220866D01*
X10518Y220782D01*
X10549Y220706D01*
X10584Y220638D01*
X10624Y220579D01*
X10669Y220529D01*
X9016D01*
X9061Y220579D01*
X9101Y220638D01*
X9136Y220706D01*
X9167Y220782D01*
X9193Y220866D01*
X9214Y220959D01*
X9231Y221061D01*
X9243Y221171D01*
X9252Y221417D01*
X10433D01*
X10435Y221289D01*
D02*
G37*
G36*
X17815Y221341D02*
X17834Y221113D01*
X17852Y221013D01*
X17874Y220922D01*
X17901Y220841D01*
X17933Y220769D01*
X17970Y220706D01*
X18012Y220653D01*
X18059Y220609D01*
X16440Y220470D01*
X16476Y220517D01*
X16509Y220574D01*
X16537Y220639D01*
X16562Y220714D01*
X16583Y220797D01*
X16600Y220890D01*
X16614Y220992D01*
X16629Y221222D01*
X16631Y221351D01*
X17812Y221469D01*
X17815Y221341D01*
D02*
G37*
G36*
X22329Y220189D02*
X22228Y220153D01*
X22140Y220094D01*
X22063Y220010D01*
X21998Y219903D01*
X21945Y219772D01*
X21903Y219617D01*
X21874Y219438D01*
X21856Y219235D01*
X21850Y219008D01*
X20669D01*
X20663Y219235D01*
X20646Y219438D01*
X20616Y219617D01*
X20575Y219772D01*
X20522Y219903D01*
X20457Y220010D01*
X20380Y220094D01*
X20291Y220153D01*
X20191Y220189D01*
X20079Y220201D01*
X22441D01*
X22329Y220189D01*
D02*
G37*
G36*
X21856Y218561D02*
X21874Y218358D01*
X21903Y218179D01*
X21945Y218024D01*
X21998Y217892D01*
X22063Y217785D01*
X22140Y217702D01*
X22228Y217642D01*
X22329Y217606D01*
X22441Y217594D01*
X20079D01*
X20191Y217606D01*
X20291Y217642D01*
X20380Y217702D01*
X20457Y217785D01*
X20522Y217892D01*
X20575Y218024D01*
X20616Y218179D01*
X20646Y218358D01*
X20663Y218561D01*
X20669Y218787D01*
X21850D01*
X21856Y218561D01*
D02*
G37*
G36*
X19500Y214567D02*
X19488Y214679D01*
X19453Y214779D01*
X19394Y214868D01*
X19311Y214945D01*
X19205Y215010D01*
X19075Y215063D01*
X18921Y215104D01*
X18744Y215134D01*
X18543Y215152D01*
X18504Y215153D01*
X18464Y215152D01*
X18264Y215134D01*
X18086Y215104D01*
X17933Y215063D01*
X17803Y215010D01*
X17697Y214945D01*
X17614Y214868D01*
X17555Y214779D01*
X17519Y214679D01*
X17508Y214567D01*
Y216929D01*
X17519Y216817D01*
X17555Y216717D01*
X17614Y216628D01*
X17697Y216551D01*
X17803Y216486D01*
X17933Y216433D01*
X18086Y216392D01*
X18264Y216362D01*
X18464Y216344D01*
X18504Y216343D01*
X18543Y216344D01*
X18744Y216362D01*
X18921Y216392D01*
X19075Y216433D01*
X19205Y216486D01*
X19311Y216551D01*
X19394Y216628D01*
X19453Y216717D01*
X19488Y216817D01*
X19500Y216929D01*
Y214567D01*
D02*
G37*
G36*
X51010Y215514D02*
X50918Y215511D01*
X50827Y215498D01*
X50737Y215477D01*
X50647Y215448D01*
X50558Y215409D01*
X50469Y215361D01*
X50380Y215305D01*
X50292Y215240D01*
X50204Y215166D01*
X50117Y215084D01*
X49410Y215791D01*
X49493Y215878D01*
X49566Y215966D01*
X49631Y216054D01*
X49688Y216143D01*
X49735Y216232D01*
X49774Y216321D01*
X49804Y216411D01*
X49825Y216501D01*
X49837Y216592D01*
X49840Y216683D01*
X51010Y215514D01*
D02*
G37*
G36*
X29319Y216817D02*
X29354Y216717D01*
X29414Y216628D01*
X29498Y216551D01*
X29605Y216486D01*
X29686Y216454D01*
X29688Y216454D01*
X29756Y216490D01*
X29815Y216530D01*
X29865Y216575D01*
Y216399D01*
X29891Y216392D01*
X30070Y216362D01*
X30273Y216344D01*
X30500Y216339D01*
Y215158D01*
X30273Y215152D01*
X30070Y215134D01*
X29891Y215104D01*
X29865Y215097D01*
Y214921D01*
X29815Y214966D01*
X29756Y215006D01*
X29688Y215042D01*
X29686Y215043D01*
X29605Y215010D01*
X29498Y214945D01*
X29414Y214868D01*
X29354Y214779D01*
X29319Y214679D01*
X29307Y214567D01*
Y215139D01*
X29223Y215148D01*
X28977Y215158D01*
Y216339D01*
X29104Y216341D01*
X29307Y216358D01*
Y216929D01*
X29319Y216817D01*
D02*
G37*
G36*
X17508Y213890D02*
X17520Y212709D01*
X16339D01*
X16333Y212935D01*
X16315Y213137D01*
X16285Y213316D01*
X16244Y213471D01*
X16191Y213602D01*
X16126Y213709D01*
X16049Y213793D01*
X15961Y213853D01*
X15860Y213889D01*
X15748Y213902D01*
X17508Y213890D01*
D02*
G37*
G36*
X10241Y213902D02*
X10937D01*
X10804Y213887D01*
X10685Y213842D01*
X10580Y213767D01*
X10489Y213662D01*
X10412Y213527D01*
X10348Y213362D01*
X10299Y213167D01*
X10264Y212942D01*
X10243Y212687D01*
X10236Y212402D01*
X8661D01*
X8654Y212687D01*
X8633Y212942D01*
X8598Y213167D01*
X8549Y213362D01*
X8486Y213527D01*
X8409Y213662D01*
X8318Y213767D01*
X8213Y213842D01*
X8094Y213887D01*
X7960Y213902D01*
X8661D01*
X8661Y213991D01*
X10236D01*
X10241Y213902D01*
D02*
G37*
G36*
X10244Y212088D02*
X10268Y211818D01*
X10307Y211580D01*
X10362Y211374D01*
X10433Y211199D01*
X10520Y211057D01*
X10622Y210946D01*
X10740Y210866D01*
X10874Y210819D01*
X11024Y210803D01*
X7874D01*
X8024Y210819D01*
X8157Y210866D01*
X8276Y210946D01*
X8378Y211057D01*
X8465Y211199D01*
X8535Y211374D01*
X8591Y211580D01*
X8630Y211818D01*
X8653Y212088D01*
X8661Y212390D01*
X10236D01*
X10244Y212088D01*
D02*
G37*
G36*
X52299Y210815D02*
X52066Y210573D01*
X51698Y210138D01*
X51565Y209946D01*
X51464Y209771D01*
X51398Y209612D01*
X51364Y209470D01*
Y209345D01*
X51398Y209236D01*
X51464Y209144D01*
X49794Y210815D01*
X49886Y210748D01*
X49995Y210715D01*
X50120D01*
X50262Y210748D01*
X50420Y210815D01*
X50596Y210915D01*
X50788Y211049D01*
X50997Y211216D01*
X51464Y211650D01*
X52299Y210815D01*
D02*
G37*
G36*
X22051Y211732D02*
X22065Y211662D01*
X22087Y211589D01*
X22119Y211513D01*
X22161Y211435D01*
X22211Y211354D01*
X22272Y211271D01*
X22341Y211185D01*
X22508Y211004D01*
X21673Y210169D01*
X21581Y210257D01*
X21406Y210405D01*
X21323Y210466D01*
X21242Y210516D01*
X21164Y210558D01*
X21088Y210590D01*
X21016Y210613D01*
X20945Y210626D01*
X20878Y210630D01*
X22047Y211799D01*
X22051Y211732D01*
D02*
G37*
G36*
X14168Y210917D02*
X14128Y210858D01*
X14092Y210790D01*
X14061Y210714D01*
X14035Y210630D01*
X14014Y210537D01*
X13998Y210435D01*
X13986Y210325D01*
X13976Y210080D01*
X12795D01*
X12793Y210207D01*
X12774Y210435D01*
X12757Y210537D01*
X12736Y210630D01*
X12710Y210714D01*
X12679Y210790D01*
X12644Y210858D01*
X12604Y210917D01*
X12559Y210968D01*
X14213D01*
X14168Y210917D01*
D02*
G37*
G36*
X18608Y210197D02*
X18626Y209996D01*
X18655Y209819D01*
X18697Y209665D01*
X18750Y209535D01*
X18815Y209429D01*
X18892Y209346D01*
X18980Y209287D01*
X19081Y209252D01*
X19193Y209240D01*
X16831D01*
X16943Y209252D01*
X17043Y209287D01*
X17132Y209346D01*
X17209Y209429D01*
X17274Y209535D01*
X17327Y209665D01*
X17368Y209819D01*
X17398Y209996D01*
X17415Y210197D01*
X17421Y210421D01*
X18602D01*
X18608Y210197D01*
D02*
G37*
G36*
X47748Y207295D02*
X47736Y207387D01*
X47701Y207468D01*
X47642Y207540D01*
X47559Y207603D01*
X47453Y207656D01*
X47323Y207699D01*
X47170Y207732D01*
X46992Y207756D01*
X46791Y207771D01*
X46567Y207776D01*
Y208957D01*
X46793Y208963D01*
X46996Y208980D01*
X47174Y209010D01*
X47329Y209051D01*
X47460Y209104D01*
X47568Y209169D01*
X47651Y209246D01*
X47712Y209335D01*
X47748Y209435D01*
X47760Y209547D01*
X47748Y207295D01*
D02*
G37*
G36*
X44130Y204972D02*
X44080Y205017D01*
X44021Y205058D01*
X43953Y205094D01*
X43877Y205125D01*
X43793Y205151D01*
X43700Y205172D01*
X43598Y205189D01*
X43488Y205201D01*
X43243Y205210D01*
X43250Y206391D01*
X43377Y206394D01*
X43606Y206413D01*
X43707Y206429D01*
X43801Y206450D01*
X43885Y206476D01*
X43961Y206506D01*
X44029Y206541D01*
X44088Y206581D01*
X44139Y206626D01*
X44130Y204972D01*
D02*
G37*
G36*
X34700Y205084D02*
X34645Y205012D01*
X34596Y204933D01*
X34553Y204848D01*
X34517Y204758D01*
X34488Y204661D01*
X34465Y204559D01*
X34449Y204450D01*
X34439Y204336D01*
X34435Y204216D01*
X33435D01*
X33432Y204336D01*
X33422Y204450D01*
X33406Y204559D01*
X33383Y204661D01*
X33354Y204758D01*
X33318Y204848D01*
X33275Y204933D01*
X33226Y205012D01*
X33171Y205084D01*
X33109Y205152D01*
X34762D01*
X34700Y205084D01*
D02*
G37*
G36*
X51032Y200992D02*
X50898Y200945D01*
X50779Y200866D01*
X50677Y200754D01*
X50591Y200612D01*
X50520Y200437D01*
X50465Y200231D01*
X50459Y200197D01*
X50465Y200163D01*
X50520Y199957D01*
X50591Y199782D01*
X50677Y199639D01*
X50779Y199528D01*
X50898Y199449D01*
X51032Y199401D01*
X51181Y199385D01*
X48031D01*
X48181Y199401D01*
X48315Y199449D01*
X48433Y199528D01*
X48535Y199639D01*
X48622Y199782D01*
X48693Y199957D01*
X48748Y200163D01*
X48754Y200197D01*
X48748Y200231D01*
X48693Y200437D01*
X48622Y200612D01*
X48535Y200754D01*
X48433Y200866D01*
X48315Y200945D01*
X48181Y200992D01*
X48031Y201008D01*
X51181D01*
X51032Y200992D01*
D02*
G37*
G36*
X10874Y200980D02*
X10740Y200933D01*
X10622Y200854D01*
X10520Y200744D01*
X10433Y200603D01*
X10362Y200429D01*
X10307Y200225D01*
X10302Y200194D01*
X10307Y200163D01*
X10362Y199957D01*
X10433Y199782D01*
X10520Y199639D01*
X10622Y199528D01*
X10740Y199449D01*
X10874Y199401D01*
X11024Y199385D01*
X7874D01*
X8024Y199401D01*
X8157Y199449D01*
X8276Y199528D01*
X8378Y199639D01*
X8465Y199782D01*
X8535Y199957D01*
X8591Y200163D01*
X8596Y200194D01*
X8591Y200225D01*
X8535Y200429D01*
X8465Y200603D01*
X8378Y200744D01*
X8276Y200854D01*
X8157Y200933D01*
X8024Y200980D01*
X7874Y200996D01*
X11024D01*
X10874Y200980D01*
D02*
G37*
G36*
X36507Y199172D02*
X36586Y199119D01*
X36676Y199072D01*
X36777Y199031D01*
X36890Y198996D01*
X37014Y198968D01*
X37150Y198946D01*
X37296Y198930D01*
X37624Y198917D01*
X37624Y197343D01*
X37455Y197339D01*
X37150Y197314D01*
X37014Y197292D01*
X36890Y197264D01*
X36777Y197229D01*
X36676Y197188D01*
X36586Y197141D01*
X36507Y197087D01*
X36440Y197028D01*
X36440Y199232D01*
X36507Y199172D01*
D02*
G37*
G36*
X47760Y196555D02*
X47744Y196705D01*
X47696Y196839D01*
X47616Y196957D01*
X47505Y197059D01*
X47362Y197146D01*
X47187Y197217D01*
X46981Y197272D01*
X46744Y197311D01*
X46474Y197335D01*
X46173Y197343D01*
Y198917D01*
X46473Y198922D01*
X46977Y198960D01*
X47181Y198994D01*
X47355Y199037D01*
X47496Y199090D01*
X47607Y199153D01*
X47685Y199225D01*
X47732Y199306D01*
X47748Y199398D01*
X47760Y196555D01*
D02*
G37*
G36*
X11323Y199306D02*
X11370Y199225D01*
X11449Y199153D01*
X11559Y199090D01*
X11701Y199037D01*
X11874Y198994D01*
X12078Y198960D01*
X12315Y198936D01*
X12882Y198917D01*
Y197343D01*
X12581Y197335D01*
X12312Y197311D01*
X12074Y197272D01*
X11868Y197217D01*
X11693Y197146D01*
X11550Y197059D01*
X11439Y196957D01*
X11359Y196839D01*
X11311Y196705D01*
X11295Y196555D01*
X11307Y199398D01*
X11323Y199306D01*
D02*
G37*
G36*
X21710Y194468D02*
X21643Y194528D01*
X21564Y194582D01*
X21474Y194629D01*
X21372Y194670D01*
X21260Y194705D01*
X21136Y194733D01*
X21000Y194755D01*
X20853Y194771D01*
X20526Y194783D01*
X20526Y196358D01*
X20695Y196361D01*
X21000Y196387D01*
X21136Y196409D01*
X21260Y196437D01*
X21372Y196472D01*
X21474Y196513D01*
X21564Y196560D01*
X21643Y196613D01*
X21710Y196673D01*
X21710Y194468D01*
D02*
G37*
G36*
X48072Y193899D02*
X48653Y193406D01*
X48909Y193227D01*
X49143Y193092D01*
X49355Y193002D01*
X49544Y192956D01*
X49710Y192955D01*
X49854Y192998D01*
X49975Y193086D01*
X47760Y190871D01*
X47848Y190993D01*
X47891Y191137D01*
X47890Y191303D01*
X47844Y191492D01*
X47754Y191703D01*
X47619Y191937D01*
X47440Y192194D01*
X47216Y192473D01*
X46635Y193098D01*
X47748Y194212D01*
X48072Y193899D01*
D02*
G37*
G36*
X14477Y191235D02*
X14536Y191194D01*
X14603Y191159D01*
X14679Y191128D01*
X14764Y191102D01*
X14857Y191081D01*
X14958Y191065D01*
X15069Y191053D01*
X15314Y191043D01*
X15314Y189862D01*
X15187Y189860D01*
X14958Y189841D01*
X14857Y189824D01*
X14764Y189803D01*
X14679Y189777D01*
X14603Y189746D01*
X14536Y189711D01*
X14477Y189671D01*
X14426Y189626D01*
X14426Y191279D01*
X14477Y191235D01*
D02*
G37*
G36*
X10874Y189563D02*
X10740Y189516D01*
X10622Y189437D01*
X10520Y189327D01*
X10433Y189185D01*
X10362Y189012D01*
X10307Y188807D01*
X10302Y188779D01*
X10307Y188752D01*
X10362Y188547D01*
X10433Y188374D01*
X10520Y188232D01*
X10622Y188122D01*
X10740Y188043D01*
X10874Y187996D01*
X11024Y187980D01*
X7874D01*
X8024Y187996D01*
X8157Y188043D01*
X8276Y188122D01*
X8378Y188232D01*
X8465Y188374D01*
X8535Y188547D01*
X8591Y188752D01*
X8595Y188779D01*
X8591Y188807D01*
X8535Y189012D01*
X8465Y189185D01*
X8378Y189327D01*
X8276Y189437D01*
X8157Y189516D01*
X8024Y189563D01*
X7874Y189579D01*
X11024D01*
X10874Y189563D01*
D02*
G37*
G36*
X51032D02*
X50898Y189516D01*
X50779Y189437D01*
X50677Y189327D01*
X50591Y189185D01*
X50520Y189012D01*
X50465Y188807D01*
X50459Y188777D01*
X50465Y188746D01*
X50520Y188539D01*
X50591Y188365D01*
X50677Y188222D01*
X50779Y188111D01*
X50898Y188032D01*
X51032Y187984D01*
X51181Y187968D01*
X48031D01*
X48181Y187984D01*
X48315Y188032D01*
X48433Y188111D01*
X48535Y188222D01*
X48622Y188365D01*
X48693Y188539D01*
X48748Y188746D01*
X48753Y188777D01*
X48748Y188807D01*
X48693Y189012D01*
X48622Y189185D01*
X48535Y189327D01*
X48433Y189437D01*
X48315Y189516D01*
X48181Y189563D01*
X48031Y189579D01*
X51181D01*
X51032Y189563D01*
D02*
G37*
G36*
X49975Y184461D02*
X49853Y184550D01*
X49708Y184595D01*
X49541D01*
X49352Y184550D01*
X49140Y184461D01*
X48906Y184327D01*
X48650Y184149D01*
X48372Y183926D01*
X47748Y183347D01*
X46635Y184461D01*
X46946Y184784D01*
X47436Y185363D01*
X47615Y185619D01*
X47748Y185853D01*
X47837Y186064D01*
X47882Y186254D01*
Y186421D01*
X47837Y186565D01*
X47748Y186688D01*
X49975Y184461D01*
D02*
G37*
G36*
X11207Y186566D02*
X11164Y186423D01*
X11165Y186256D01*
X11211Y186067D01*
X11301Y185856D01*
X11436Y185622D01*
X11615Y185365D01*
X11839Y185086D01*
X12420Y184461D01*
X11307Y183347D01*
X10983Y183660D01*
X10402Y184153D01*
X10146Y184332D01*
X9912Y184467D01*
X9701Y184557D01*
X9512Y184603D01*
X9345Y184604D01*
X9201Y184561D01*
X9080Y184473D01*
X11295Y186688D01*
X11207Y186566D01*
D02*
G37*
G36*
X17131Y182028D02*
X17234Y182017D01*
X17480Y182008D01*
Y180827D01*
X17353Y180824D01*
X17131Y180806D01*
Y180236D01*
X17119Y180348D01*
X17083Y180449D01*
X17023Y180537D01*
X16940Y180614D01*
X16832Y180679D01*
X16762Y180708D01*
X16701Y180676D01*
X16642Y180635D01*
X16591Y180591D01*
Y180762D01*
X16546Y180774D01*
X16367Y180803D01*
X16164Y180821D01*
X15938Y180827D01*
Y182008D01*
X16164Y182014D01*
X16367Y182032D01*
X16546Y182061D01*
X16591Y182073D01*
Y182244D01*
X16642Y182199D01*
X16701Y182159D01*
X16762Y182127D01*
X16832Y182156D01*
X16940Y182220D01*
X17023Y182297D01*
X17083Y182386D01*
X17119Y182486D01*
X17131Y182598D01*
Y182028D01*
D02*
G37*
G36*
X41936Y182486D02*
X41972Y182386D01*
X42032Y182297D01*
X42115Y182220D01*
X42223Y182156D01*
X42300Y182124D01*
X42367Y182159D01*
X42426Y182199D01*
X42476Y182244D01*
Y182070D01*
X42509Y182061D01*
X42688Y182032D01*
X42891Y182014D01*
X43117Y182008D01*
Y180827D01*
X42891Y180821D01*
X42688Y180803D01*
X42509Y180774D01*
X42476Y180765D01*
Y180591D01*
X42426Y180635D01*
X42367Y180676D01*
X42300Y180710D01*
X42223Y180679D01*
X42115Y180614D01*
X42032Y180537D01*
X41972Y180449D01*
X41936Y180348D01*
X41924Y180236D01*
Y180808D01*
X41834Y180817D01*
X41588Y180827D01*
Y182008D01*
X41715Y182010D01*
X41924Y182027D01*
Y182598D01*
X41936Y182486D01*
D02*
G37*
G36*
X26190Y176992D02*
X26099Y177058D01*
X25992Y177090D01*
X25867Y177089D01*
X25725Y177055D01*
X25567Y176987D01*
X25391Y176885D01*
X25199Y176750D01*
X24990Y176582D01*
X24520Y176145D01*
X23685Y176980D01*
X23920Y177224D01*
X24290Y177659D01*
X24424Y177852D01*
X24526Y178027D01*
X24594Y178186D01*
X24629Y178328D01*
X24630Y178452D01*
X24598Y178560D01*
X24532Y178651D01*
X26190Y176992D01*
D02*
G37*
G36*
X50199Y178376D02*
X50217Y178162D01*
X50787D01*
X50675Y178150D01*
X50575Y178114D01*
X50486Y178055D01*
X50409Y177973D01*
X50345Y177866D01*
X50314Y177791D01*
X50348Y177725D01*
X50388Y177666D01*
X50433Y177615D01*
X50259D01*
X50250Y177583D01*
X50221Y177406D01*
X50203Y177205D01*
X50197Y176980D01*
X49016D01*
X49010Y177205D01*
X48992Y177406D01*
X48963Y177583D01*
X48954Y177615D01*
X48779D01*
X48824Y177666D01*
X48865Y177725D01*
X48899Y177791D01*
X48868Y177866D01*
X48803Y177973D01*
X48726Y178055D01*
X48638Y178114D01*
X48537Y178150D01*
X48425Y178162D01*
X48996D01*
X49006Y178258D01*
X49016Y178503D01*
X50197D01*
X50199Y178376D01*
D02*
G37*
G36*
X10042D02*
X10058Y178174D01*
X10630D01*
X10518Y178162D01*
X10417Y178126D01*
X10329Y178066D01*
X10252Y177983D01*
X10187Y177875D01*
X10154Y177795D01*
X10155Y177792D01*
X10191Y177725D01*
X10231Y177666D01*
X10276Y177615D01*
X10099D01*
X10092Y177589D01*
X10063Y177410D01*
X10045Y177207D01*
X10039Y176980D01*
X8858D01*
X8852Y177207D01*
X8835Y177410D01*
X8805Y177589D01*
X8798Y177615D01*
X8622D01*
X8667Y177666D01*
X8707Y177725D01*
X8743Y177792D01*
X8743Y177795D01*
X8711Y177875D01*
X8646Y177983D01*
X8569Y178066D01*
X8480Y178126D01*
X8380Y178162D01*
X8268Y178174D01*
X8840D01*
X8849Y178258D01*
X8858Y178503D01*
X10039D01*
X10042Y178376D01*
D02*
G37*
G36*
X34458Y178560D02*
X34425Y178452D01*
X34427Y178328D01*
X34461Y178186D01*
X34529Y178027D01*
X34631Y177852D01*
X34765Y177659D01*
X34934Y177450D01*
X35370Y176980D01*
X34535Y176145D01*
X34292Y176380D01*
X33856Y176750D01*
X33664Y176885D01*
X33488Y176987D01*
X33330Y177055D01*
X33188Y177089D01*
X33063Y177090D01*
X32956Y177058D01*
X32865Y176992D01*
X34523Y178651D01*
X34458Y178560D01*
D02*
G37*
G36*
X36686Y175610D02*
X37438Y175567D01*
X37464Y175556D01*
X37468Y175543D01*
X37406Y174121D01*
X37400Y174180D01*
X37374Y174232D01*
X37330Y174278D01*
X37267Y174318D01*
X37185Y174352D01*
X37085Y174380D01*
X36966Y174401D01*
X36828Y174417D01*
X36496Y174429D01*
Y175610D01*
X36686Y175610D01*
D02*
G37*
G36*
X22559Y174429D02*
X22384Y174426D01*
X22089Y174401D01*
X21970Y174380D01*
X21870Y174352D01*
X21788Y174318D01*
X21725Y174278D01*
X21681Y174232D01*
X21655Y174180D01*
X21649Y174121D01*
X21587Y175543D01*
X21591Y175556D01*
X21617Y175567D01*
X21663Y175577D01*
X21729Y175586D01*
X21923Y175600D01*
X22559Y175610D01*
Y174429D01*
D02*
G37*
G36*
X44495Y174770D02*
X44531Y174669D01*
X44591Y174581D01*
X44674Y174504D01*
X44782Y174439D01*
X44913Y174386D01*
X45068Y174345D01*
X45247Y174315D01*
X45450Y174297D01*
X45677Y174291D01*
Y173110D01*
X45450Y173104D01*
X45247Y173087D01*
X45068Y173057D01*
X44913Y173016D01*
X44782Y172963D01*
X44674Y172898D01*
X44591Y172821D01*
X44531Y172732D01*
X44495Y172632D01*
X44484Y172520D01*
Y174882D01*
X44495Y174770D01*
D02*
G37*
G36*
X14572Y172126D02*
X14556Y172276D01*
X14508Y172409D01*
X14429Y172528D01*
X14318Y172630D01*
X14175Y172716D01*
X14000Y172787D01*
X13794Y172843D01*
X13556Y172882D01*
X13286Y172906D01*
X12985Y172913D01*
Y174488D01*
X13286Y174496D01*
X13556Y174520D01*
X13794Y174559D01*
X14000Y174614D01*
X14175Y174685D01*
X14318Y174772D01*
X14429Y174874D01*
X14508Y174992D01*
X14556Y175126D01*
X14572Y175276D01*
Y172126D01*
D02*
G37*
G36*
X24520Y170681D02*
X24508Y170679D01*
X24473Y170677D01*
X23339Y170669D01*
Y171850D01*
X23565Y171856D01*
X23767Y171874D01*
X23946Y171904D01*
X24100Y171945D01*
X24232Y171998D01*
X24339Y172063D01*
X24423Y172140D01*
X24483Y172228D01*
X24519Y172329D01*
X24532Y172441D01*
X24520Y170681D01*
D02*
G37*
G36*
X8484Y170657D02*
X8170Y170333D01*
X7678Y169753D01*
X7499Y169496D01*
X7364Y169262D01*
X7274Y169051D01*
X7228Y168862D01*
X7227Y168695D01*
X7270Y168552D01*
X7358Y168430D01*
X5143Y170645D01*
X5264Y170557D01*
X5408Y170514D01*
X5575Y170515D01*
X5764Y170561D01*
X5975Y170651D01*
X6209Y170786D01*
X6465Y170966D01*
X6744Y171189D01*
X7370Y171771D01*
X8484Y170657D01*
D02*
G37*
G36*
X45004Y169405D02*
X45041Y169400D01*
X45159Y169392D01*
X45286Y169390D01*
X45172Y168209D01*
X45044Y168207D01*
X45004Y168204D01*
Y167618D01*
X44992Y167730D01*
X44957Y167831D01*
X44897Y167919D01*
X44813Y167996D01*
X44706Y168061D01*
X44575Y168114D01*
X44518Y168129D01*
X44456Y168108D01*
X44388Y168077D01*
X44327Y168043D01*
X44276Y168003D01*
X44290Y168177D01*
X44241Y168185D01*
X44038Y168203D01*
X43811Y168209D01*
Y169390D01*
X44038Y169396D01*
X44241Y169413D01*
X44396Y169439D01*
X44413Y169651D01*
X44461Y169602D01*
X44518Y169557D01*
X44583Y169518D01*
X44618Y169502D01*
X44706Y169537D01*
X44813Y169602D01*
X44897Y169679D01*
X44957Y169768D01*
X44992Y169868D01*
X45004Y169980D01*
Y169405D01*
D02*
G37*
G36*
X51927Y171259D02*
X52362Y170891D01*
X52554Y170757D01*
X52729Y170657D01*
X52888Y170590D01*
X53030Y170557D01*
X53155D01*
X53264Y170590D01*
X53356Y170657D01*
X51685Y168987D01*
X51752Y169079D01*
X51785Y169187D01*
Y169313D01*
X51752Y169455D01*
X51685Y169613D01*
X51585Y169789D01*
X51451Y169981D01*
X51284Y170190D01*
X50850Y170657D01*
X51685Y171493D01*
X51927Y171259D01*
D02*
G37*
G36*
X33746Y170681D02*
X33646Y170646D01*
X33557Y170586D01*
X33480Y170502D01*
X33415Y170395D01*
X33362Y170264D01*
X33321Y170109D01*
X33291Y169930D01*
X33279Y169784D01*
X33291Y169638D01*
X33321Y169459D01*
X33362Y169305D01*
X33415Y169173D01*
X33480Y169066D01*
X33557Y168982D01*
X33646Y168922D01*
X33746Y168886D01*
X33858Y168874D01*
X31508Y168886D01*
X31618Y168897D01*
X31716Y168933D01*
X31803Y168992D01*
X31878Y169075D01*
X31942Y169181D01*
X31994Y169311D01*
X32035Y169464D01*
X32063Y169642D01*
X32076Y169784D01*
X32063Y169930D01*
X32034Y170109D01*
X31992Y170264D01*
X31939Y170395D01*
X31874Y170502D01*
X31797Y170586D01*
X31709Y170646D01*
X31608Y170681D01*
X31496Y170693D01*
X33858D01*
X33746Y170681D01*
D02*
G37*
G36*
X16445Y169679D02*
X16504Y169639D01*
X16572Y169604D01*
X16648Y169573D01*
X16732Y169547D01*
X16826Y169526D01*
X16927Y169509D01*
X17037Y169498D01*
X17283Y169488D01*
Y168307D01*
X17156Y168305D01*
X16927Y168286D01*
X16826Y168269D01*
X16732Y168248D01*
X16648Y168222D01*
X16572Y168191D01*
X16504Y168156D01*
X16445Y168116D01*
X16395Y168071D01*
Y169724D01*
X16445Y169679D01*
D02*
G37*
G36*
X14063Y169967D02*
X14098Y169866D01*
X14158Y169778D01*
X14242Y169701D01*
X14349Y169636D01*
X14479Y169583D01*
X14530Y169604D01*
X14598Y169639D01*
X14657Y169679D01*
X14708Y169724D01*
Y169529D01*
X14814Y169512D01*
X15017Y169494D01*
X15244Y169488D01*
Y168307D01*
X15017Y168301D01*
X14814Y168283D01*
X14708Y168266D01*
Y168071D01*
X14657Y168116D01*
X14598Y168156D01*
X14530Y168191D01*
X14479Y168212D01*
X14349Y168159D01*
X14242Y168095D01*
X14158Y168018D01*
X14098Y167929D01*
X14063Y167829D01*
X14051Y167717D01*
Y168298D01*
X13820Y168307D01*
Y169488D01*
X13947Y169491D01*
X14051Y169499D01*
Y170079D01*
X14063Y169967D01*
D02*
G37*
G36*
X48642Y168717D02*
X48608Y168608D01*
Y168483D01*
X48642Y168341D01*
X48709Y168182D01*
X48809Y168007D01*
X48942Y167815D01*
X49109Y167606D01*
X49544Y167138D01*
X48709Y166303D01*
X48466Y166537D01*
X48032Y166904D01*
X47840Y167038D01*
X47664Y167138D01*
X47506Y167205D01*
X47364Y167238D01*
X47239D01*
X47130Y167205D01*
X47038Y167138D01*
X48709Y168808D01*
X48642Y168717D01*
D02*
G37*
G36*
X51740Y164949D02*
X52188Y164568D01*
X52383Y164430D01*
X52560Y164328D01*
X52717Y164261D01*
X52856Y164229D01*
X52976Y164233D01*
X53077Y164272D01*
X53159Y164346D01*
X51697Y162491D01*
X51750Y162595D01*
X51763Y162722D01*
X51736Y162872D01*
X51669Y163046D01*
X51562Y163243D01*
X51416Y163464D01*
X51230Y163707D01*
X50738Y164265D01*
X50432Y164579D01*
X51488Y165193D01*
X51740Y164949D01*
D02*
G37*
G36*
X45004Y161417D02*
X44992Y161530D01*
X44957Y161630D01*
X44897Y161718D01*
X44813Y161795D01*
X44706Y161860D01*
X44575Y161913D01*
X44420Y161955D01*
X44241Y161984D01*
X44038Y162002D01*
X43811Y162008D01*
Y163189D01*
X44038Y163195D01*
X44241Y163213D01*
X44420Y163242D01*
X44575Y163284D01*
X44706Y163337D01*
X44813Y163402D01*
X44897Y163478D01*
X44957Y163567D01*
X44992Y163667D01*
X45004Y163779D01*
Y161417D01*
D02*
G37*
G36*
X35421Y163667D02*
X35457Y163567D01*
X35516Y163478D01*
X35600Y163402D01*
X35707Y163337D01*
X35839Y163284D01*
X35994Y163242D01*
X36173Y163213D01*
X36375Y163195D01*
X36602Y163189D01*
Y162008D01*
X36375Y162002D01*
X36173Y161984D01*
X35994Y161955D01*
X35839Y161913D01*
X35707Y161860D01*
X35600Y161795D01*
X35516Y161718D01*
X35457Y161630D01*
X35421Y161530D01*
X35409Y161417D01*
Y163779D01*
X35421Y163667D01*
D02*
G37*
G36*
X23671Y161417D02*
X23659Y161530D01*
X23624Y161630D01*
X23565Y161718D01*
X23482Y161795D01*
X23376Y161860D01*
X23246Y161913D01*
X23092Y161955D01*
X22915Y161984D01*
X22714Y162002D01*
X22490Y162008D01*
Y163189D01*
X22714Y163195D01*
X22915Y163213D01*
X23092Y163242D01*
X23246Y163284D01*
X23376Y163337D01*
X23482Y163402D01*
X23565Y163478D01*
X23624Y163567D01*
X23659Y163667D01*
X23671Y163779D01*
Y161417D01*
D02*
G37*
G36*
X14063Y163667D02*
X14098Y163567D01*
X14158Y163478D01*
X14242Y163402D01*
X14349Y163337D01*
X14480Y163284D01*
X14635Y163242D01*
X14814Y163213D01*
X15017Y163195D01*
X15244Y163189D01*
Y162008D01*
X15017Y162002D01*
X14814Y161984D01*
X14635Y161955D01*
X14480Y161913D01*
X14349Y161860D01*
X14242Y161795D01*
X14158Y161718D01*
X14098Y161630D01*
X14063Y161530D01*
X14051Y161417D01*
Y163779D01*
X14063Y163667D01*
D02*
G37*
G36*
X10359Y161417D02*
X10347Y161530D01*
X10311Y161630D01*
X10251Y161718D01*
X10168Y161795D01*
X10060Y161860D01*
X9929Y161913D01*
X9774Y161955D01*
X9595Y161984D01*
X9392Y162002D01*
X9166Y162008D01*
Y163189D01*
X9392Y163195D01*
X9595Y163213D01*
X9774Y163242D01*
X9929Y163284D01*
X10060Y163337D01*
X10168Y163402D01*
X10251Y163478D01*
X10311Y163567D01*
X10347Y163667D01*
X10359Y163779D01*
Y161417D01*
D02*
G37*
G36*
X7370Y163667D02*
X7406Y163567D01*
X7465Y163478D01*
X7549Y163402D01*
X7656Y163337D01*
X7787Y163284D01*
X7942Y163242D01*
X8122Y163213D01*
X8324Y163195D01*
X8551Y163189D01*
Y162008D01*
X8324Y162002D01*
X8122Y161984D01*
X7942Y161955D01*
X7787Y161913D01*
X7656Y161860D01*
X7549Y161795D01*
X7465Y161718D01*
X7406Y161630D01*
X7370Y161530D01*
X7358Y161417D01*
Y163779D01*
X7370Y163667D01*
D02*
G37*
G36*
X54612Y160839D02*
X54512Y160803D01*
X54423Y160743D01*
X54347Y160660D01*
X54282Y160553D01*
X54228Y160421D01*
X54187Y160266D01*
X54158Y160087D01*
X54154Y160041D01*
X54158Y159996D01*
X54187Y159819D01*
X54228Y159665D01*
X54282Y159535D01*
X54347Y159429D01*
X54423Y159346D01*
X54512Y159287D01*
X54612Y159252D01*
X54724Y159240D01*
X52362D01*
X52474Y159252D01*
X52575Y159287D01*
X52663Y159346D01*
X52740Y159429D01*
X52805Y159535D01*
X52858Y159665D01*
X52900Y159819D01*
X52929Y159996D01*
X52933Y160041D01*
X52929Y160087D01*
X52900Y160266D01*
X52858Y160421D01*
X52805Y160553D01*
X52740Y160660D01*
X52663Y160743D01*
X52575Y160803D01*
X52474Y160839D01*
X52362Y160851D01*
X54724D01*
X54612Y160839D01*
D02*
G37*
G36*
X11361Y156653D02*
X11311Y156698D01*
X11252Y156739D01*
X11184Y156774D01*
X11108Y156805D01*
X11023Y156831D01*
X10930Y156852D01*
X10829Y156869D01*
X10719Y156880D01*
X10473Y156890D01*
Y158071D01*
X10600Y158073D01*
X10829Y158092D01*
X10930Y158109D01*
X11023Y158130D01*
X11108Y158156D01*
X11184Y158187D01*
X11252Y158222D01*
X11311Y158262D01*
X11361Y158307D01*
Y156653D01*
D02*
G37*
G36*
X7370Y158549D02*
X7406Y158449D01*
X7465Y158360D01*
X7549Y158283D01*
X7656Y158219D01*
X7787Y158165D01*
X7942Y158124D01*
X8122Y158095D01*
X8324Y158077D01*
X8551Y158071D01*
Y156890D01*
X8324Y156884D01*
X8122Y156866D01*
X7942Y156837D01*
X7787Y156795D01*
X7656Y156742D01*
X7549Y156677D01*
X7465Y156600D01*
X7406Y156512D01*
X7370Y156411D01*
X7358Y156299D01*
Y158661D01*
X7370Y158549D01*
D02*
G37*
G36*
X51697Y150000D02*
X51685Y150112D01*
X51649Y150213D01*
X51590Y150301D01*
X51506Y150378D01*
X51399Y150443D01*
X51268Y150496D01*
X51113Y150537D01*
X50934Y150567D01*
X50731Y150585D01*
X50504Y150591D01*
Y151772D01*
X50731Y151778D01*
X50934Y151795D01*
X51113Y151825D01*
X51268Y151866D01*
X51399Y151919D01*
X51506Y151984D01*
X51590Y152061D01*
X51649Y152150D01*
X51685Y152250D01*
X51697Y152362D01*
Y150000D01*
D02*
G37*
G36*
X46051Y152250D02*
X46087Y152150D01*
X46146Y152061D01*
X46230Y151984D01*
X46337Y151919D01*
X46468Y151866D01*
X46624Y151825D01*
X46803Y151795D01*
X47005Y151778D01*
X47232Y151772D01*
Y150591D01*
X47005Y150585D01*
X46803Y150567D01*
X46624Y150537D01*
X46468Y150496D01*
X46337Y150443D01*
X46230Y150378D01*
X46146Y150301D01*
X46087Y150213D01*
X46051Y150112D01*
X46039Y150000D01*
Y152362D01*
X46051Y152250D01*
D02*
G37*
G36*
X13004Y150000D02*
X12992Y150112D01*
X12957Y150213D01*
X12898Y150301D01*
X12815Y150378D01*
X12709Y150443D01*
X12579Y150496D01*
X12425Y150537D01*
X12248Y150567D01*
X12047Y150585D01*
X11823Y150591D01*
Y151772D01*
X12047Y151778D01*
X12248Y151795D01*
X12425Y151825D01*
X12579Y151866D01*
X12709Y151919D01*
X12815Y151984D01*
X12898Y152061D01*
X12957Y152150D01*
X12992Y152250D01*
X13004Y152362D01*
Y150000D01*
D02*
G37*
G36*
X7370Y152250D02*
X7406Y152150D01*
X7465Y152061D01*
X7549Y151984D01*
X7656Y151919D01*
X7787Y151866D01*
X7942Y151825D01*
X8122Y151795D01*
X8324Y151778D01*
X8551Y151772D01*
Y150591D01*
X8324Y150585D01*
X8122Y150567D01*
X7942Y150537D01*
X7787Y150496D01*
X7656Y150443D01*
X7549Y150378D01*
X7465Y150301D01*
X7406Y150213D01*
X7370Y150112D01*
X7358Y150000D01*
Y152362D01*
X7370Y152250D01*
D02*
G37*
G36*
X21654Y143307D02*
X12992D01*
Y148699D01*
X13090Y149189D01*
X13201Y149224D01*
X13316Y149246D01*
X13352Y149270D01*
X13393Y149283D01*
X13483Y149358D01*
X13581Y149423D01*
X13961Y149326D01*
X14086Y149264D01*
X15139Y148210D01*
X15599Y147903D01*
X16142Y147795D01*
X16684Y147903D01*
X17144Y148210D01*
X17452Y148670D01*
X17560Y149213D01*
X17452Y149755D01*
X17144Y150215D01*
X15176Y152184D01*
X14716Y152491D01*
X14173Y152599D01*
X13783D01*
X13766Y152632D01*
X13758Y152674D01*
X13693Y152772D01*
X13638Y152875D01*
X13605Y152903D01*
X13581Y152939D01*
X13484Y153004D01*
X13393Y153079D01*
X13352Y153092D01*
X13316Y153116D01*
X13201Y153139D01*
X13090Y153173D01*
X12992Y153663D01*
Y155118D01*
X21654D01*
Y143307D01*
D02*
G37*
G36*
X6361Y149434D02*
X6948D01*
X6836Y149422D01*
X6736Y149386D01*
X6647Y149326D01*
X6571Y149243D01*
X6505Y149135D01*
X6452Y149004D01*
X6425Y148902D01*
X6452Y148800D01*
X6505Y148669D01*
X6571Y148562D01*
X6647Y148478D01*
X6736Y148419D01*
X6836Y148383D01*
X6948Y148371D01*
X6369D01*
X6381Y148238D01*
X6400Y148138D01*
X6423Y148046D01*
X6452Y147963D01*
X6486Y147889D01*
X6526Y147824D01*
X6570Y147767D01*
X6620Y147720D01*
X4972Y147578D01*
X5011Y147630D01*
X5046Y147690D01*
X5077Y147759D01*
X5103Y147836D01*
X5126Y147921D01*
X5144Y148015D01*
X5158Y148117D01*
X5174Y148339D01*
X5173Y148371D01*
X4586D01*
X4698Y148383D01*
X4799Y148419D01*
X4887Y148478D01*
X4964Y148562D01*
X5029Y148669D01*
X5082Y148800D01*
X5109Y148902D01*
X5082Y149004D01*
X5029Y149135D01*
X4964Y149243D01*
X4887Y149326D01*
X4799Y149386D01*
X4698Y149422D01*
X4586Y149434D01*
X5173D01*
X5177Y149564D01*
X6358D01*
X6361Y149434D01*
D02*
G37*
G36*
X34971Y149035D02*
X34795Y148855D01*
X34637Y148674D01*
X34498Y148493D01*
X34377Y148310D01*
X34275Y148128D01*
X34191Y147944D01*
X34126Y147760D01*
X34080Y147576D01*
X34052Y147390D01*
X34046Y147268D01*
X34633D01*
X34521Y147256D01*
X34420Y147220D01*
X34332Y147161D01*
X34255Y147077D01*
X34190Y146970D01*
X34137Y146839D01*
X34096Y146684D01*
X34066Y146504D01*
X34048Y146302D01*
X34043Y146075D01*
X32861D01*
X32855Y146302D01*
X32838Y146504D01*
X32808Y146684D01*
X32767Y146839D01*
X32714Y146970D01*
X32649Y147077D01*
X32572Y147161D01*
X32484Y147220D01*
X32383Y147256D01*
X32271Y147268D01*
X32859D01*
X32852Y147397D01*
X32825Y147582D01*
X32778Y147767D01*
X32714Y147951D01*
X32631Y148136D01*
X32530Y148320D01*
X32410Y148503D01*
X32272Y148687D01*
X32115Y148870D01*
X31940Y149053D01*
X34971Y149035D01*
D02*
G37*
G36*
X46063Y153656D02*
X45953Y153173D01*
X45841Y153139D01*
X45727Y153116D01*
X45691Y153092D01*
X45649Y153079D01*
X45559Y153004D01*
X45462Y152939D01*
X45438Y152903D01*
X45404Y152875D01*
X45350Y152771D01*
X45285Y152674D01*
X45277Y152632D01*
X45260Y152599D01*
X44882D01*
X44339Y152491D01*
X43879Y152184D01*
X41911Y150215D01*
X41603Y149755D01*
X41496Y149213D01*
X41603Y148670D01*
X41911Y148210D01*
X42371Y147903D01*
X42913Y147795D01*
X43456Y147903D01*
X43916Y148210D01*
X44962Y149256D01*
X45075Y149315D01*
X45462Y149423D01*
X45559Y149358D01*
X45649Y149284D01*
X45691Y149271D01*
X45727Y149246D01*
X45841Y149224D01*
X45953Y149189D01*
X46063Y148706D01*
Y143307D01*
X37402D01*
Y155118D01*
X46063D01*
Y153656D01*
D02*
G37*
D12*
X40733Y225760D02*
X42709Y227736D01*
X43504D01*
X40721Y225760D02*
X40733D01*
X37008Y222047D02*
X40721Y225760D01*
X37008Y218510D02*
Y222047D01*
X38366Y217323D02*
X43091D01*
X48504Y222736D01*
X38976Y215354D02*
X46063D01*
X39682Y213386D02*
X47712D01*
X36417Y210121D02*
X39682Y213386D01*
X31454Y207832D02*
X38976Y215354D01*
X36417Y203924D02*
Y210121D01*
X37093Y203248D02*
X41043D01*
X33935Y203860D02*
Y205995D01*
Y203860D02*
X37106Y200689D01*
X29519Y208476D02*
X38366Y217323D01*
X36417Y203924D02*
X37093Y203248D01*
X37106Y200689D02*
X41043D01*
X40962Y187975D02*
X41043Y187894D01*
X31454Y196105D02*
Y207832D01*
X37106Y190453D02*
X41043D01*
X31454Y196105D02*
X37106Y190453D01*
X27719Y209222D02*
X37008Y218510D01*
X27719Y194682D02*
Y209222D01*
Y194682D02*
X37066Y185335D01*
X37106D02*
X41043D01*
X29519Y195427D02*
Y208476D01*
X37025Y187975D02*
X40962D01*
X29519Y195427D02*
X36971Y187975D01*
X51772Y221064D02*
Y224468D01*
X47712Y213386D02*
X51021Y216695D01*
X48504Y227736D02*
X51772Y224468D01*
X46063Y215354D02*
X51772Y221064D01*
X7283Y54527D02*
X12992Y60236D01*
X7283Y51123D02*
X10551Y47854D01*
X8034Y58895D02*
X11343Y62205D01*
X7283Y51123D02*
Y54527D01*
X22084Y87615D02*
X29536Y80163D01*
X18093Y87615D02*
X22030D01*
X29536Y67115D02*
Y80163D01*
X18012Y90256D02*
X21949D01*
X21989D02*
X31336Y80909D01*
Y66369D02*
Y80909D01*
X22047Y57080D02*
X31336Y66369D01*
X21949Y85138D02*
X27601Y79486D01*
X18012Y85138D02*
X21949D01*
X27601Y67758D02*
Y79486D01*
X18012Y87697D02*
X18093Y87615D01*
X18012Y74902D02*
X21949D01*
X21962Y72342D02*
X22639Y71666D01*
X20689Y58268D02*
X29536Y67115D01*
X21949Y74902D02*
X25120Y71731D01*
Y69596D02*
Y71731D01*
X18012Y72342D02*
X21962D01*
X22639Y65470D02*
Y71666D01*
X20079Y60236D02*
X27601Y67758D01*
X19374Y62205D02*
X22639Y65470D01*
X11343Y62205D02*
X19374D01*
X12992Y60236D02*
X20079D01*
X10551Y52854D02*
X15965Y58268D01*
X20689D01*
X22047Y53543D02*
Y57080D01*
X18335Y49830D02*
X22047Y53543D01*
X18322Y49830D02*
X18335D01*
X15551Y47854D02*
X16346D01*
X18322Y49830D01*
D21*
X33465Y150591D02*
D03*
X25591D02*
D03*
X33465Y125000D02*
D03*
X25591D02*
D03*
D26*
X51968Y137795D02*
D03*
X40157D02*
D03*
X42520D02*
D03*
X30709D02*
D03*
X35433D02*
D03*
X44882D02*
D03*
X49606D02*
D03*
X37795D02*
D03*
X54331D02*
D03*
X47244D02*
D03*
X28346D02*
D03*
X25984D02*
D03*
X23622D02*
D03*
X21260D02*
D03*
X18898D02*
D03*
X16535D02*
D03*
X14173D02*
D03*
X11811D02*
D03*
X9449D02*
D03*
X2362D02*
D03*
X56693D02*
D03*
D28*
X43701Y6614D02*
D03*
Y268976D02*
D03*
X15354Y268976D02*
D03*
Y6614D02*
D03*
D29*
X41043Y90256D02*
D03*
Y87697D02*
D03*
Y85138D02*
D03*
Y82579D02*
D03*
Y80020D02*
D03*
Y77461D02*
D03*
Y74902D02*
D03*
Y72342D02*
D03*
Y69784D02*
D03*
Y67224D02*
D03*
X18012D02*
D03*
Y69784D02*
D03*
Y72342D02*
D03*
Y74902D02*
D03*
Y77461D02*
D03*
Y80020D02*
D03*
Y82579D02*
D03*
Y85138D02*
D03*
Y87697D02*
D03*
Y90256D02*
D03*
X41043Y185335D02*
D03*
Y187894D02*
D03*
Y190453D02*
D03*
Y193012D02*
D03*
Y195571D02*
D03*
Y198130D02*
D03*
Y200689D02*
D03*
Y203248D02*
D03*
Y205807D02*
D03*
Y208366D02*
D03*
X18012D02*
D03*
Y205807D02*
D03*
Y203248D02*
D03*
Y200689D02*
D03*
Y198130D02*
D03*
Y195571D02*
D03*
Y193012D02*
D03*
Y190453D02*
D03*
Y187894D02*
D03*
Y185335D02*
D03*
D30*
X16142Y149213D02*
D03*
X42913D02*
D03*
X16142Y126378D02*
D03*
X42913D02*
D03*
D31*
X25628Y158113D02*
D03*
X33465Y158071D02*
D03*
X25591Y117520D02*
D03*
X33428Y117478D02*
D03*
D32*
X27559Y215748D02*
D03*
X21260D02*
D03*
Y234646D02*
D03*
X27559D02*
D03*
Y222047D02*
D03*
X21260D02*
D03*
X15748Y215748D02*
D03*
X9449D02*
D03*
X21260Y228346D02*
D03*
X27559D02*
D03*
X9449Y234646D02*
D03*
X15748D02*
D03*
X21260Y240945D02*
D03*
X27559D02*
D03*
X37795Y40945D02*
D03*
X31496D02*
D03*
X37795Y47244D02*
D03*
X31496D02*
D03*
Y53543D02*
D03*
X37795D02*
D03*
X43307Y59842D02*
D03*
X49606D02*
D03*
X37795Y34646D02*
D03*
X31496D02*
D03*
X49606Y40945D02*
D03*
X43307D02*
D03*
X37795Y59842D02*
D03*
X31496D02*
D03*
D33*
X9449Y202756D02*
D03*
Y209055D02*
D03*
Y186221D02*
D03*
Y179921D02*
D03*
X53543Y157480D02*
D03*
Y151181D02*
D03*
X49606Y209055D02*
D03*
Y202756D02*
D03*
X5512Y157480D02*
D03*
Y151181D02*
D03*
X49606Y191339D02*
D03*
Y197638D02*
D03*
X9449D02*
D03*
Y191339D02*
D03*
X53543Y168898D02*
D03*
Y162598D02*
D03*
X26378Y178740D02*
D03*
Y172441D02*
D03*
X32677Y178740D02*
D03*
Y172441D02*
D03*
X5512Y162598D02*
D03*
Y168898D02*
D03*
X46850Y162598D02*
D03*
Y168898D02*
D03*
X12205Y162598D02*
D03*
Y168898D02*
D03*
X49606Y179921D02*
D03*
Y186221D02*
D03*
Y77953D02*
D03*
Y84252D02*
D03*
Y89370D02*
D03*
Y95669D02*
D03*
X32677Y96850D02*
D03*
Y103150D02*
D03*
X26378Y96850D02*
D03*
Y103150D02*
D03*
X53543Y112992D02*
D03*
Y106693D02*
D03*
X12205Y112992D02*
D03*
Y106693D02*
D03*
X46850Y112992D02*
D03*
Y106693D02*
D03*
X5512D02*
D03*
Y112992D02*
D03*
X9449Y66535D02*
D03*
Y72835D02*
D03*
X5512Y118110D02*
D03*
Y124409D02*
D03*
X53543Y118110D02*
D03*
Y124409D02*
D03*
X9449Y95669D02*
D03*
Y89370D02*
D03*
Y84252D02*
D03*
Y77953D02*
D03*
X49606Y72835D02*
D03*
Y66535D02*
D03*
D34*
X11614Y223622D02*
D03*
X15157D02*
D03*
Y226772D02*
D03*
X11614D02*
D03*
X47441Y51968D02*
D03*
X43898D02*
D03*
Y48819D02*
D03*
X47441D02*
D03*
D35*
X43504Y222736D02*
D03*
Y227736D02*
D03*
Y232736D02*
D03*
Y237736D02*
D03*
X48504D02*
D03*
Y232736D02*
D03*
Y227736D02*
D03*
Y222736D02*
D03*
X15551Y52854D02*
D03*
Y47854D02*
D03*
Y42854D02*
D03*
Y37854D02*
D03*
X10551D02*
D03*
Y42854D02*
D03*
Y47854D02*
D03*
Y52854D02*
D03*
D36*
X25295Y260630D02*
D03*
X17815D02*
D03*
X21555Y251575D02*
D03*
X33760Y14961D02*
D03*
X41240D02*
D03*
X37500Y24016D02*
D03*
D37*
X42126Y251575D02*
D03*
Y261024D02*
D03*
X16929Y24016D02*
D03*
Y14567D02*
D03*
D38*
X43504Y173701D02*
D03*
X40945Y181417D02*
D03*
X38386Y173701D02*
D03*
X20669D02*
D03*
X18110Y181417D02*
D03*
X15551Y173701D02*
D03*
Y101890D02*
D03*
X18110Y94173D02*
D03*
X20669Y101890D02*
D03*
X38386D02*
D03*
X40945Y94173D02*
D03*
X43504Y101890D02*
D03*
D39*
X5869Y144053D02*
D03*
X53150Y144095D02*
D03*
X5906Y131496D02*
D03*
X53187Y131538D02*
D03*
D40*
X5887Y134252D02*
Y144034D01*
Y131515D02*
Y134252D01*
D41*
X5767Y146910D02*
Y150926D01*
Y146910D02*
X5869Y146809D01*
X5512Y151181D02*
X5767Y150926D01*
X53288Y124665D02*
Y128681D01*
Y124665D02*
X53543Y124409D01*
X53187Y128782D02*
X53288Y128681D01*
X33452Y125013D02*
Y150578D01*
Y125013D02*
X33465Y125000D01*
X33452Y150578D02*
X33465Y150591D01*
X5869Y144053D02*
X5887Y144034D01*
Y131515D02*
X5906Y131496D01*
X27559Y215748D02*
X30709D01*
X50717Y235827D02*
X51021D01*
X48808Y237736D02*
X50717Y235827D01*
X48504Y237736D02*
X48808D01*
X44972Y205801D02*
X44978Y205795D01*
X48917Y208366D02*
X49606Y209055D01*
X15748Y234646D02*
Y237795D01*
X27559Y234646D02*
X30709D01*
X27559Y228346D02*
X30709D01*
X27559Y227067D02*
Y227165D01*
X41831Y208366D02*
X48917D01*
X41837Y205801D02*
X44972D01*
X41831Y205807D02*
X41837Y205801D01*
X53543Y157480D02*
Y162598D01*
X52362Y163779D02*
X53543Y162598D01*
X52067Y163779D02*
X52362D01*
X46949Y168898D02*
X52067Y163779D01*
X49606Y176772D02*
Y179921D01*
Y176673D02*
Y176772D01*
Y209055D02*
X49705D01*
X27559Y222047D02*
X33280D01*
X48504Y232736D02*
X53937Y227303D01*
X49705Y209055D02*
X53937Y213287D01*
Y227303D01*
X32776Y178740D02*
X36496Y175020D01*
X32677Y178740D02*
X32776D01*
X38386Y173701D02*
Y174626D01*
X37992Y175020D02*
X38386Y174626D01*
X36496Y175020D02*
X37992D01*
X20669Y174626D02*
X21063Y175020D01*
X26280Y178740D02*
X26378D01*
X20669Y173701D02*
Y174626D01*
X21063Y175020D02*
X22559D01*
X26280Y178740D01*
X43504Y173701D02*
X48642D01*
X53445Y168898D02*
X53543D01*
X48642Y173701D02*
X53445Y168898D01*
X5512Y162598D02*
X12205D01*
X24250D01*
X25628Y158113D02*
Y161221D01*
X24250Y162598D02*
X25628Y161221D01*
X34843Y162598D02*
X46850D01*
X33465Y158071D02*
Y161221D01*
X34843Y162598D01*
X32677Y158858D02*
Y172441D01*
Y158858D02*
X33465Y158071D01*
X42913Y149213D02*
X44882Y151181D01*
X53543D01*
X14173D02*
X16142Y149213D01*
X5512Y151181D02*
X14173D01*
X25197Y171260D02*
X26378Y172441D01*
X23154Y171260D02*
X25197D01*
X40945Y181417D02*
X43320D01*
X22835Y195571D02*
X22835Y195571D01*
X46850Y168898D02*
X46949D01*
X43504Y168799D02*
X46752D01*
X46850Y168898D01*
X20792D02*
X23154Y171260D01*
X15551Y168898D02*
X20792D01*
X12205D02*
X15551D01*
X9449Y176772D02*
Y179921D01*
X15748Y181417D02*
X18110D01*
X18100Y181407D02*
X18110Y181417D01*
X5512Y157480D02*
X5512Y157480D01*
X12205D01*
X41339Y220463D02*
Y220517D01*
X43504Y222682D02*
Y222736D01*
X41339Y220517D02*
X43504Y222682D01*
X24705Y259252D02*
X25295Y259842D01*
Y260630D01*
X22638Y259252D02*
X24705D01*
X15748Y215748D02*
X21260D01*
Y222047D01*
X21260Y222047D01*
Y228346D02*
Y234646D01*
X18110Y247244D02*
X21260Y244094D01*
X18110Y247244D02*
Y254724D01*
X21260Y234646D02*
Y240945D01*
X18110Y254724D02*
X22638Y259252D01*
X21260Y240945D02*
Y244094D01*
X18012Y203248D02*
X21949D01*
X22933Y204232D01*
X13583Y190453D02*
X13583Y190453D01*
X18012D01*
X22933Y204232D02*
Y209744D01*
X14075Y205807D02*
X18012D01*
X13386Y206496D02*
X14075Y205807D01*
X13386Y206496D02*
Y211811D01*
X18012Y208366D02*
Y211024D01*
X16929Y212106D02*
X18012Y211024D01*
X16929Y212106D02*
Y214567D01*
X15748Y215748D02*
X16929Y214567D01*
X20866Y211811D02*
X20903D01*
X20583D02*
X20866D01*
X22933Y209744D01*
X9843Y221850D02*
X11614Y223622D01*
X9843Y219685D02*
Y221850D01*
X15157Y223622D02*
X17221Y221558D01*
Y219786D02*
X17323Y219685D01*
X17221Y219786D02*
Y221558D01*
X11614Y226772D02*
X15157D01*
X9449Y228937D02*
Y234646D01*
Y228937D02*
X11614Y226772D01*
X47441Y48819D02*
X49606Y46654D01*
Y40945D02*
Y46654D01*
X43898Y48819D02*
X47441D01*
X41834Y54032D02*
Y55804D01*
X41732Y55905D02*
X41834Y55804D01*
Y54032D02*
X43898Y51968D01*
X49213Y53740D02*
Y55905D01*
X47441Y51968D02*
X49213Y53740D01*
X36122Y65847D02*
X38189Y63779D01*
X38472D01*
X38152D02*
X38189D01*
X42126Y61024D02*
X43307Y59842D01*
X42126Y61024D02*
Y63484D01*
X41043Y64567D02*
X42126Y63484D01*
X41043Y64567D02*
Y67224D01*
X45669Y63779D02*
Y69095D01*
X44980Y69784D02*
X45669Y69095D01*
X41043Y69784D02*
X44980D01*
X36122Y65847D02*
Y71358D01*
X41043Y85138D02*
X45472D01*
X45472Y85138D01*
X36122Y71358D02*
X37106Y72342D01*
X41043D01*
X37795Y31496D02*
Y34646D01*
X36417Y16339D02*
X40945Y20866D01*
X37795Y34646D02*
Y40945D01*
X40945Y20866D02*
Y28346D01*
X37795Y31496D02*
X40945Y28346D01*
X37795Y40945D02*
Y47244D01*
Y53543D02*
X37795Y53543D01*
Y59842D01*
X43307D01*
X34350Y16339D02*
X36417D01*
X33760Y14961D02*
Y15748D01*
X34350Y16339D01*
X15551Y52908D02*
X17717Y55074D01*
X15551Y52854D02*
Y52908D01*
X17717Y55074D02*
Y55128D01*
X46850Y118110D02*
X53543D01*
X53543Y118110D01*
X40945Y94173D02*
X40955Y94183D01*
X40945Y94173D02*
X43307D01*
X49606Y95669D02*
Y98819D01*
X43504Y106693D02*
X46850D01*
X38263D02*
X43504D01*
X35901Y104331D02*
X38263Y106693D01*
X12205D02*
X12303Y106791D01*
X15551D01*
X12106Y106693D02*
X12205D01*
X36220Y80020D02*
X36220Y80020D01*
X15735Y94173D02*
X18110D01*
X33858Y104331D02*
X35901D01*
X32677Y103150D02*
X33858Y104331D01*
X44882Y124409D02*
X53543D01*
X42913Y126378D02*
X44882Y124409D01*
X5512D02*
X14173D01*
X16142Y126378D01*
X25591Y117520D02*
X26378Y116732D01*
Y103150D02*
Y116732D01*
X24213Y112992D02*
X25591Y114370D01*
Y117520D01*
X12205Y112992D02*
X24213D01*
X33428Y114370D02*
X34806Y112992D01*
X33428Y114370D02*
Y117478D01*
X34806Y112992D02*
X46850D01*
X53543D01*
X5610Y106693D02*
X10413Y101890D01*
X5512Y106693D02*
X5610D01*
X10413Y101890D02*
X15551D01*
X32776Y96850D02*
X36496Y100571D01*
X37992D01*
X38386Y100965D02*
Y101890D01*
X32677Y96850D02*
X32776D01*
X37992Y100571D02*
X38386Y100965D01*
X21063Y100571D02*
X22559D01*
X20669Y100965D02*
X21063Y100571D01*
X20669Y100965D02*
Y101890D01*
X26280Y96850D02*
X26378D01*
X22559Y100571D02*
X26280Y96850D01*
X5118Y48287D02*
Y62303D01*
X9350Y66535D01*
X5118Y48287D02*
X10551Y42854D01*
X25775Y53543D02*
X31496D01*
X28346Y59842D02*
X31496D01*
X9350Y66535D02*
X9449D01*
Y98819D02*
Y98917D01*
Y95669D02*
Y98819D01*
X6988Y111811D02*
X12106Y106693D01*
X6693Y111811D02*
X6988D01*
X5512Y112992D02*
X6693Y111811D01*
X5512Y112992D02*
Y118110D01*
X17218Y69790D02*
X17224Y69784D01*
X14084Y69790D02*
X17218D01*
X10138Y67224D02*
X17224D01*
X31496Y48425D02*
Y48524D01*
X28346Y47244D02*
X31496D01*
X28346Y40945D02*
X31496D01*
X43307Y37795D02*
Y40945D01*
X9449Y66535D02*
X10138Y67224D01*
X14077Y69796D02*
X14084Y69790D01*
X10247Y37854D02*
X10551D01*
X8338Y39764D02*
X10247Y37854D01*
X8034Y39764D02*
X8338D01*
D42*
X9449Y209055D02*
Y212402D01*
Y215748D01*
X49606Y197638D02*
Y202756D01*
X49114Y198130D02*
X49606Y197638D01*
X41043Y198130D02*
X49114D01*
X35315D02*
X41043D01*
X35315Y198130D02*
X35315Y198130D01*
X9941D02*
X18012D01*
X9449Y197638D02*
X9941Y198130D01*
X27559Y240945D02*
X30709D01*
X9449Y197638D02*
Y202756D01*
X34252Y232736D02*
X43504D01*
X41043Y195571D02*
X41043Y195571D01*
X45276D01*
X49508Y191339D02*
X49606D01*
X45276Y195571D02*
X49508Y191339D01*
X49606Y186221D02*
Y191339D01*
X46149Y182861D02*
X49508Y186221D01*
X49606D01*
X46149Y180105D02*
Y182861D01*
X43799Y177756D02*
X46149Y180105D01*
X34350Y182973D02*
X39567Y177756D01*
X43799D01*
X15256D02*
X19488D01*
X24705Y182973D01*
X12906Y180105D02*
X15256Y177756D01*
X12906Y180105D02*
Y182861D01*
X9449Y186221D02*
X9547D01*
X12906Y182861D01*
X9449Y186221D02*
Y191339D01*
X9547D01*
X24705Y182973D02*
X34350D01*
X5512Y168898D02*
X5610D01*
X10413Y173701D02*
X15551D01*
X5610Y168898D02*
X10413Y173701D01*
X18012Y195571D02*
X22835D01*
X18007Y195566D02*
X18007Y195566D01*
X18012Y195571D02*
X18012Y195571D01*
X41043Y80020D02*
X41043Y80020D01*
X41048Y80025D02*
X41048Y80025D01*
X36220Y80020D02*
X41043D01*
X48642Y101890D02*
X53445Y106693D01*
X43504Y101890D02*
X48642D01*
X53445Y106693D02*
X53543D01*
X24705Y92618D02*
X34350D01*
X49508Y84252D02*
X49606D01*
Y89370D01*
X46149Y92729D02*
X49508Y89370D01*
X49606D01*
X46149Y92729D02*
Y95485D01*
X43799Y97835D02*
X46149Y95485D01*
X34350Y92618D02*
X39567Y97835D01*
X43799D01*
X15256D02*
X19488D01*
X24705Y92618D01*
X12906Y95485D02*
X15256Y97835D01*
X12906Y92729D02*
Y95485D01*
X9449Y89370D02*
X9547D01*
X12906Y92729D01*
X9449Y84252D02*
Y89370D01*
X9547Y84252D02*
X13780Y80020D01*
X9449Y84252D02*
X9547D01*
X13780Y80020D02*
X18012D01*
X18012Y80020D01*
X15551Y42854D02*
X24803D01*
X49606Y72835D02*
Y77953D01*
X28346Y34646D02*
X31496D01*
X49114Y77461D02*
X49606Y77953D01*
X41043Y77461D02*
X49114D01*
X23740D02*
X23740Y77461D01*
X18012Y77461D02*
X23740D01*
X9941D02*
X18012D01*
X9449Y77953D02*
X9941Y77461D01*
X9449Y72835D02*
Y77953D01*
X49606Y59842D02*
Y63189D01*
Y66535D01*
D43*
X54724Y2756D02*
D03*
Y10433D02*
D03*
X32677D02*
D03*
Y2756D02*
D03*
X3543Y131496D02*
D03*
Y134252D02*
D03*
X5906D02*
D03*
Y141339D02*
D03*
X3543D02*
D03*
X3477Y144041D02*
D03*
X30709Y215748D02*
D03*
X53150Y146850D02*
D03*
X44978Y205795D02*
D03*
X51021Y235827D02*
D03*
X50787Y146850D02*
D03*
X49606Y176772D02*
D03*
X55512Y146850D02*
D03*
X53150Y141339D02*
D03*
X55512Y144095D02*
D03*
X50787D02*
D03*
Y141339D02*
D03*
X55512D02*
D03*
X30709Y228346D02*
D03*
Y234646D02*
D03*
Y240945D02*
D03*
X9449Y212402D02*
D03*
X8231Y144053D02*
D03*
X8231Y146809D02*
D03*
X5869D02*
D03*
X8231Y141297D02*
D03*
X3506Y146809D02*
D03*
X5869Y144053D02*
D03*
X53150Y144095D02*
D03*
X33280Y222047D02*
D03*
X33935Y205995D02*
D03*
X51021Y216695D02*
D03*
X20472Y144488D02*
D03*
Y147638D02*
D03*
Y150787D02*
D03*
Y153937D02*
D03*
X38583D02*
D03*
Y150787D02*
D03*
Y147638D02*
D03*
Y144488D02*
D03*
X15551Y168898D02*
D03*
X43320Y181417D02*
D03*
X43504Y168898D02*
D03*
X13583Y190453D02*
D03*
X12205Y157480D02*
D03*
X9449Y176772D02*
D03*
X15748Y181417D02*
D03*
X41339Y220463D02*
D03*
X49213Y272835D02*
D03*
X43701D02*
D03*
Y267717D02*
D03*
X46457Y272835D02*
D03*
X40945Y270276D02*
D03*
X49213D02*
D03*
X54724Y272835D02*
D03*
X46457Y270276D02*
D03*
X35433D02*
D03*
X54724D02*
D03*
X38189D02*
D03*
X54724Y267717D02*
D03*
X46457D02*
D03*
X32677Y270276D02*
D03*
X40945Y267717D02*
D03*
X32677Y272835D02*
D03*
X43701Y270276D02*
D03*
X32677Y267717D02*
D03*
X35433D02*
D03*
X51968D02*
D03*
X49213D02*
D03*
X38189D02*
D03*
X51968Y270276D02*
D03*
X35433Y265158D02*
D03*
X54724D02*
D03*
X32677D02*
D03*
X40945Y272835D02*
D03*
X38189Y265158D02*
D03*
X49213D02*
D03*
X46457D02*
D03*
X43701D02*
D03*
X35433Y272835D02*
D03*
X40945Y265158D02*
D03*
X38189Y272835D02*
D03*
X51968Y265158D02*
D03*
Y272835D02*
D03*
X23622Y272835D02*
D03*
Y265158D02*
D03*
X9843Y272835D02*
D03*
X12598Y265158D02*
D03*
X7087Y272835D02*
D03*
X15354Y265158D02*
D03*
X18110D02*
D03*
X20866D02*
D03*
X9843D02*
D03*
X12598Y272835D02*
D03*
X4331Y265158D02*
D03*
X26378D02*
D03*
X7087D02*
D03*
X23622Y270276D02*
D03*
X9843Y267717D02*
D03*
X20866D02*
D03*
X23622D02*
D03*
X7087D02*
D03*
X4331D02*
D03*
X15354Y270276D02*
D03*
X4331Y272835D02*
D03*
X12598Y267717D02*
D03*
X4331Y270276D02*
D03*
X18110Y267717D02*
D03*
X26378D02*
D03*
X9843Y270276D02*
D03*
X26378D02*
D03*
X7087D02*
D03*
X18110D02*
D03*
X26378Y272835D02*
D03*
X20866Y270276D02*
D03*
X12598D02*
D03*
X18110Y272835D02*
D03*
X15354Y267717D02*
D03*
Y272835D02*
D03*
X20866D02*
D03*
X15748Y237795D02*
D03*
X9843Y219685D02*
D03*
X17323D02*
D03*
X13386Y211811D02*
D03*
X20866D02*
D03*
X38189Y63779D02*
D03*
X45669D02*
D03*
X41732Y55905D02*
D03*
X49213D02*
D03*
X43307Y37795D02*
D03*
X38189Y2756D02*
D03*
X43701D02*
D03*
Y7874D02*
D03*
X40945Y2756D02*
D03*
X46457Y5315D02*
D03*
X38189D02*
D03*
X40945D02*
D03*
X51968D02*
D03*
X32677D02*
D03*
X49213D02*
D03*
X32677Y7874D02*
D03*
X40945D02*
D03*
X54724Y5315D02*
D03*
X46457Y7874D02*
D03*
X43701Y5315D02*
D03*
X54724Y7874D02*
D03*
X51968D02*
D03*
X35433D02*
D03*
X38189D02*
D03*
X49213D02*
D03*
X35433Y5315D02*
D03*
X51968Y10433D02*
D03*
X46457Y2756D02*
D03*
X49213Y10433D02*
D03*
X38189D02*
D03*
X40945D02*
D03*
X43701D02*
D03*
X51968Y2756D02*
D03*
X46457Y10433D02*
D03*
X49213Y2756D02*
D03*
X35433Y10433D02*
D03*
Y2756D02*
D03*
X7087Y2756D02*
D03*
Y10433D02*
D03*
X20866Y2756D02*
D03*
X18110Y10433D02*
D03*
X23622Y2756D02*
D03*
X15354Y10433D02*
D03*
X12598D02*
D03*
X9843D02*
D03*
X20866D02*
D03*
X18110Y2756D02*
D03*
X26378Y10433D02*
D03*
X4331D02*
D03*
X23622D02*
D03*
X7087Y5315D02*
D03*
X20866Y7874D02*
D03*
X9843D02*
D03*
X7087D02*
D03*
X23622D02*
D03*
X26378D02*
D03*
X15354Y5315D02*
D03*
X26378Y2756D02*
D03*
X18110Y7874D02*
D03*
X26378Y5315D02*
D03*
X12598Y7874D02*
D03*
X4331D02*
D03*
X20866Y5315D02*
D03*
X4331D02*
D03*
X23622D02*
D03*
X12598D02*
D03*
X4331Y2756D02*
D03*
X9843Y5315D02*
D03*
X18110D02*
D03*
X12598Y2756D02*
D03*
X15354Y7874D02*
D03*
Y2756D02*
D03*
X9843D02*
D03*
X17717Y55128D02*
D03*
X43307Y94173D02*
D03*
X49606Y98819D02*
D03*
X46850Y118110D02*
D03*
X45472Y85138D02*
D03*
X15551Y106693D02*
D03*
X15735Y94173D02*
D03*
X43504Y106693D02*
D03*
X20472Y131102D02*
D03*
Y127953D02*
D03*
Y124803D02*
D03*
Y121653D02*
D03*
X38583D02*
D03*
Y124803D02*
D03*
Y127953D02*
D03*
Y131102D02*
D03*
X8034Y58895D02*
D03*
X25120Y69596D02*
D03*
X25775Y53543D02*
D03*
X28346Y59842D02*
D03*
X5906Y131496D02*
D03*
X53187Y131538D02*
D03*
X55549Y128782D02*
D03*
X50824Y134294D02*
D03*
X53187Y128782D02*
D03*
X53187Y134294D02*
D03*
X55549D02*
D03*
X50824Y128782D02*
D03*
X55549Y131538D02*
D03*
X50824D02*
D03*
X49606Y63189D02*
D03*
X28346Y34646D02*
D03*
Y40945D02*
D03*
Y47244D02*
D03*
X8268Y134252D02*
D03*
Y131496D02*
D03*
X3543Y128740D02*
D03*
X9449Y98819D02*
D03*
X8268Y128740D02*
D03*
X8034Y39764D02*
D03*
X14077Y69796D02*
D03*
X5906Y128740D02*
D03*
D44*
X35315Y198130D02*
D03*
X34252Y232736D02*
D03*
X22835Y195571D02*
D03*
X36220Y80020D02*
D03*
X24803Y42854D02*
D03*
X23740Y77461D02*
D03*
M02*
