G04*
G04 #@! TF.GenerationSoftware,Altium Limited,Altium Designer,21.0.8 (223)*
G04*
G04 Layer_Color=16711935*
%FSLAX25Y25*%
%MOIN*%
G70*
G04*
G04 #@! TF.SameCoordinates,5BEE501C-0E39-4D07-B5F2-D33AD55358CD*
G04*
G04*
G04 #@! TF.FilePolarity,Positive*
G04*
G01*
G75*
%ADD12C,0.01000*%
D12*
X4921Y275591D02*
X3961Y275496D01*
X3038Y275216D01*
X2187Y274761D01*
X1441Y274149D01*
X829Y273403D01*
X375Y272553D01*
X95Y271629D01*
X0Y270669D01*
X59055Y270669D02*
X58961Y271629D01*
X58680Y272553D01*
X58226Y273403D01*
X57614Y274149D01*
X56868Y274761D01*
X56017Y275216D01*
X55094Y275496D01*
X54134Y275591D01*
X0Y4921D02*
X95Y3961D01*
X375Y3038D01*
X829Y2187D01*
X1441Y1441D01*
X2187Y829D01*
X3038Y375D01*
X3961Y95D01*
X4921Y0D01*
X54134D02*
X55094Y95D01*
X56017Y375D01*
X56868Y829D01*
X57614Y1441D01*
X58226Y2187D01*
X58680Y3038D01*
X58961Y3961D01*
X59055Y4921D01*
X4724Y275591D02*
X54134D01*
X0Y137795D02*
X0Y270472D01*
X59055Y270669D02*
X59055Y137795D01*
X-0D02*
X-0Y4921D01*
X59055Y5118D02*
X59055Y137795D01*
X4921Y0D02*
X54331D01*
M02*
