G04*
G04 #@! TF.GenerationSoftware,Altium Limited,Altium Designer,21.0.8 (223)*
G04*
G04 Layer_Physical_Order=2*
G04 Layer_Color=16711680*
%FSLAX25Y25*%
%MOIN*%
G70*
G04*
G04 #@! TF.SameCoordinates,5BEE501C-0E39-4D07-B5F2-D33AD55358CD*
G04*
G04*
G04 #@! TF.FilePolarity,Positive*
G04*
G01*
G75*
%ADD21C,0.04331*%
%ADD26C,0.01181*%
%ADD41C,0.01181*%
%ADD43C,0.02362*%
%ADD44C,0.03150*%
G36*
X15945Y136220D02*
X15945Y109646D01*
X16680Y108911D01*
X16396Y108487D01*
X15945Y108674D01*
X15157D01*
X14429Y108372D01*
X13872Y107815D01*
X13570Y107087D01*
Y106299D01*
X13872Y105571D01*
X14429Y105013D01*
X15157Y104712D01*
X15566D01*
X15583Y104709D01*
X15588Y104707D01*
X15599Y104705D01*
X15609Y104700D01*
X15638Y104683D01*
X15670Y104660D01*
X15713Y104624D01*
X16889Y103448D01*
Y74613D01*
X14142Y71866D01*
X14123Y71851D01*
X14078Y71819D01*
X14045Y71797D01*
X14026Y71788D01*
X14013Y71784D01*
X14004Y71782D01*
X13999Y71781D01*
X13986Y71777D01*
X13683D01*
X12955Y71475D01*
X12398Y70918D01*
X12096Y70190D01*
Y69402D01*
X12398Y68674D01*
X12955Y68117D01*
X13683Y67815D01*
X14471D01*
X15199Y68117D01*
X15757Y68674D01*
X16058Y69402D01*
Y69705D01*
X16062Y69718D01*
X16063Y69723D01*
X16065Y69732D01*
X16069Y69745D01*
X16079Y69764D01*
X16100Y69797D01*
X16126Y69834D01*
X16159Y69873D01*
X17030Y70744D01*
X17640Y70647D01*
X23701Y64586D01*
Y58739D01*
X23809Y58197D01*
X24116Y57737D01*
X26929Y54924D01*
Y51338D01*
X24016Y48425D01*
X20147Y44556D01*
X19685Y44748D01*
X19685Y44961D01*
Y48425D01*
X19685Y44094D01*
X19685Y44094D01*
X19685Y44094D01*
X19685Y38385D01*
X29134Y28936D01*
Y1326D01*
X4921D01*
X4921Y1326D01*
X4921Y1326D01*
X4429Y1384D01*
X3989Y1442D01*
X3120Y1802D01*
X2374Y2374D01*
X1802Y3120D01*
X1442Y3989D01*
X1382Y4445D01*
X1326Y4921D01*
X1326Y5421D01*
X1326Y136221D01*
X15945Y136220D01*
D02*
G37*
G36*
X16738Y106685D02*
X16755Y106617D01*
X16781Y106546D01*
X16815Y106472D01*
X16859Y106395D01*
X16911Y106315D01*
X16973Y106232D01*
X17123Y106058D01*
X17212Y105966D01*
X16433Y105074D01*
X16342Y105162D01*
X16166Y105308D01*
X16083Y105367D01*
X16001Y105416D01*
X15922Y105455D01*
X15846Y105485D01*
X15772Y105504D01*
X15701Y105514D01*
X15633Y105515D01*
X16731Y106751D01*
X16738Y106685D01*
D02*
G37*
G36*
X15719Y70603D02*
X15631Y70511D01*
X15483Y70336D01*
X15423Y70253D01*
X15372Y70172D01*
X15330Y70094D01*
X15298Y70018D01*
X15276Y69946D01*
X15262Y69875D01*
X15258Y69808D01*
X14089Y70977D01*
X14156Y70981D01*
X14227Y70995D01*
X14299Y71017D01*
X14375Y71049D01*
X14453Y71091D01*
X14534Y71141D01*
X14617Y71201D01*
X14704Y71271D01*
X14884Y71438D01*
X15719Y70603D01*
D02*
G37*
G36*
X25946Y68752D02*
X25901Y68701D01*
X25861Y68642D01*
X25825Y68574D01*
X25795Y68498D01*
X25769Y68414D01*
X25747Y68321D01*
X25731Y68219D01*
X25719Y68109D01*
X25709Y67864D01*
X24528Y67865D01*
X24526Y67992D01*
X24507Y68220D01*
X24491Y68322D01*
X24469Y68415D01*
X24443Y68499D01*
X24413Y68575D01*
X24377Y68643D01*
X24337Y68702D01*
X24292Y68753D01*
X25946Y68752D01*
D02*
G37*
G36*
X57730Y5421D02*
X57730Y5118D01*
X57730Y4921D01*
X57673Y4445D01*
X57613Y3989D01*
X57253Y3120D01*
X56681Y2374D01*
X55935Y1802D01*
X55066Y1442D01*
X54182Y1326D01*
X29950D01*
Y28936D01*
X29950Y28936D01*
X29887Y29249D01*
X29711Y29513D01*
X29711Y29513D01*
X20501Y38723D01*
X20501Y43831D01*
X20724Y43980D01*
X24592Y47848D01*
X24592Y47848D01*
X26467Y49723D01*
X26929Y49531D01*
Y48819D01*
X26929Y48819D01*
X26960Y48660D01*
X26667Y48366D01*
X26365Y47638D01*
Y46850D01*
X26667Y46122D01*
X27224Y45565D01*
X27952Y45263D01*
X28741D01*
X29469Y45565D01*
X30026Y46122D01*
X30328Y46850D01*
Y47638D01*
X30026Y48366D01*
X29733Y48660D01*
X29764Y48819D01*
Y55512D01*
X29656Y56054D01*
X29349Y56514D01*
X26537Y59327D01*
Y68085D01*
X26539Y68110D01*
X26548Y68164D01*
X26557Y68203D01*
X26563Y68223D01*
X26570Y68234D01*
X26575Y68242D01*
X26577Y68247D01*
X26584Y68258D01*
X26799Y68473D01*
X27101Y69201D01*
Y69990D01*
X26799Y70718D01*
X26242Y71275D01*
X25514Y71577D01*
X24726D01*
X23998Y71275D01*
X23440Y70718D01*
X23139Y69990D01*
Y69201D01*
X23440Y68473D01*
X23654Y68260D01*
X23661Y68248D01*
X23662Y68244D01*
X23667Y68236D01*
X23675Y68224D01*
X23681Y68204D01*
X23690Y68165D01*
X23697Y68121D01*
X23701Y68069D01*
Y66393D01*
X23239Y66202D01*
X18217Y71224D01*
X18123Y71533D01*
X18110Y71757D01*
X18114Y71801D01*
X18121Y71827D01*
X18126Y71840D01*
X19310Y73023D01*
X19617Y73483D01*
X19725Y74026D01*
Y104035D01*
X19617Y104578D01*
X19310Y105038D01*
X17639Y106708D01*
X17610Y106742D01*
X17580Y106783D01*
X17555Y106820D01*
X17541Y106846D01*
X17541Y106846D01*
X17533Y106870D01*
X17532Y106873D01*
Y107087D01*
X17231Y107815D01*
X17043Y108003D01*
X17074Y108034D01*
X17358Y108458D01*
X17388Y108532D01*
X17433Y108599D01*
X17449Y108678D01*
X17479Y108752D01*
Y108832D01*
X17495Y108911D01*
X17480Y108990D01*
Y109070D01*
X17449Y109144D01*
X17433Y109223D01*
X17388Y109290D01*
X17358Y109364D01*
X17301Y109421D01*
X17256Y109488D01*
X16760Y109984D01*
X16760Y135721D01*
X17260Y136221D01*
X57730D01*
X57730Y5421D01*
D02*
G37*
G36*
X54134Y274265D02*
X54134Y274265D01*
X54150Y274263D01*
X54626Y274207D01*
X55066Y274149D01*
X55935Y273789D01*
X56681Y273216D01*
X57253Y272470D01*
X57613Y271602D01*
X57673Y271146D01*
X57730Y270669D01*
X57730Y270169D01*
X57730Y139370D01*
X43110Y139370D01*
X43110Y165945D01*
X42376Y166680D01*
X42659Y167103D01*
X43110Y166917D01*
X43898D01*
X44626Y167218D01*
X45183Y167775D01*
X45485Y168504D01*
Y169292D01*
X45183Y170020D01*
X44626Y170577D01*
X43898Y170879D01*
X43489D01*
X43472Y170882D01*
X43467Y170884D01*
X43456Y170886D01*
X43446Y170890D01*
X43417Y170908D01*
X43385Y170931D01*
X43342Y170966D01*
X42166Y172142D01*
Y200977D01*
X44913Y203724D01*
X44932Y203740D01*
X44977Y203772D01*
X45010Y203793D01*
X45029Y203803D01*
X45042Y203806D01*
X45051Y203808D01*
X45056Y203810D01*
X45069Y203813D01*
X45372D01*
X46100Y204115D01*
X46657Y204672D01*
X46959Y205400D01*
Y206189D01*
X46657Y206917D01*
X46100Y207474D01*
X45372Y207776D01*
X44584D01*
X43856Y207474D01*
X43299Y206917D01*
X42997Y206189D01*
Y205885D01*
X42994Y205873D01*
X42992Y205868D01*
X42990Y205859D01*
X42987Y205845D01*
X42977Y205827D01*
X42956Y205793D01*
X42929Y205757D01*
X42896Y205717D01*
X42025Y204847D01*
X41415Y204943D01*
X38583Y207776D01*
X35354Y211004D01*
Y216851D01*
X35246Y217394D01*
X34939Y217854D01*
X32126Y220666D01*
Y224252D01*
X38908Y231034D01*
X39370Y230843D01*
X39370Y230645D01*
Y227165D01*
X39370Y231496D01*
X39370Y231496D01*
X39370Y231496D01*
X39370Y234467D01*
Y237205D01*
X29921Y246654D01*
Y274265D01*
X54134D01*
X54134Y274265D01*
D02*
G37*
G36*
X29106Y246654D02*
X29106Y246654D01*
X29168Y246342D01*
X29344Y246077D01*
X29344Y246077D01*
X38554Y236867D01*
Y234467D01*
X38554Y231760D01*
X38331Y231611D01*
X32588Y225868D01*
X32126Y226059D01*
Y226772D01*
X32127Y226772D01*
X32095Y226931D01*
X32388Y227224D01*
X32690Y227952D01*
Y228741D01*
X32388Y229469D01*
X31831Y230026D01*
X31103Y230328D01*
X30315D01*
X29586Y230026D01*
X29029Y229469D01*
X28728Y228741D01*
Y227952D01*
X29029Y227224D01*
X29323Y226931D01*
X29291Y226772D01*
Y220079D01*
X29399Y219536D01*
X29706Y219076D01*
X32518Y216264D01*
Y207505D01*
X32516Y207481D01*
X32507Y207427D01*
X32498Y207388D01*
X32492Y207368D01*
X32485Y207356D01*
X32480Y207348D01*
X32478Y207344D01*
X32471Y207332D01*
X32256Y207117D01*
X31954Y206389D01*
Y205601D01*
X32256Y204873D01*
X32813Y204315D01*
X33541Y204014D01*
X34330D01*
X35058Y204315D01*
X35615Y204873D01*
X35917Y205601D01*
Y206389D01*
X35615Y207117D01*
X35401Y207331D01*
X35394Y207342D01*
X35393Y207347D01*
X35388Y207354D01*
X35381Y207366D01*
X35374Y207386D01*
X35366Y207425D01*
X35358Y207470D01*
X35354Y207521D01*
Y209197D01*
X35816Y209389D01*
X38006Y207199D01*
X38006Y207199D01*
X40838Y204367D01*
X40933Y204058D01*
X40945Y203834D01*
X40941Y203790D01*
X40934Y203764D01*
X40929Y203750D01*
X39746Y202567D01*
X39438Y202107D01*
X39330Y201565D01*
Y171555D01*
X39438Y171013D01*
X39746Y170553D01*
X41416Y168882D01*
X41445Y168849D01*
X41475Y168808D01*
X41500Y168770D01*
X41514Y168745D01*
X41514Y168745D01*
X41522Y168720D01*
X41523Y168718D01*
Y168504D01*
X41824Y167775D01*
X42012Y167588D01*
X41981Y167557D01*
X41697Y167133D01*
X41667Y167059D01*
X41622Y166992D01*
X41606Y166913D01*
X41576Y166839D01*
Y166758D01*
X41560Y166680D01*
X41576Y166601D01*
Y166520D01*
X41606Y166446D01*
X41622Y166367D01*
X41667Y166300D01*
X41697Y166226D01*
X41754Y166170D01*
X41799Y166103D01*
X42295Y165607D01*
X42295Y139870D01*
X41795Y139370D01*
X1326D01*
X1326Y270169D01*
X1326Y270472D01*
X1326Y270669D01*
X1382Y271146D01*
X1442Y271602D01*
X1802Y272470D01*
X2374Y273216D01*
X3120Y273789D01*
X3989Y274149D01*
X4874Y274265D01*
X29106D01*
Y246654D01*
D02*
G37*
G36*
X34527Y207726D02*
X34529Y207599D01*
X34548Y207370D01*
X34565Y207269D01*
X34586Y207176D01*
X34612Y207091D01*
X34642Y207015D01*
X34678Y206948D01*
X34718Y206889D01*
X34763Y206838D01*
X33109Y206839D01*
X33154Y206890D01*
X33194Y206949D01*
X33230Y207016D01*
X33261Y207092D01*
X33287Y207177D01*
X33308Y207270D01*
X33324Y207371D01*
X33336Y207481D01*
X33346Y207727D01*
X34527Y207726D01*
D02*
G37*
G36*
X44966Y204613D02*
X44899Y204609D01*
X44829Y204596D01*
X44756Y204573D01*
X44680Y204541D01*
X44602Y204500D01*
X44521Y204449D01*
X44438Y204389D01*
X44352Y204320D01*
X44171Y204153D01*
X43336Y204988D01*
X43424Y205079D01*
X43572Y205254D01*
X43633Y205338D01*
X43683Y205419D01*
X43725Y205497D01*
X43757Y205572D01*
X43780Y205645D01*
X43793Y205715D01*
X43797Y205783D01*
X44966Y204613D01*
D02*
G37*
G36*
X42713Y170429D02*
X42889Y170282D01*
X42972Y170223D01*
X43054Y170175D01*
X43133Y170135D01*
X43209Y170106D01*
X43283Y170086D01*
X43354Y170076D01*
X43422Y170076D01*
X42324Y168840D01*
X42317Y168905D01*
X42300Y168974D01*
X42274Y169045D01*
X42240Y169119D01*
X42196Y169196D01*
X42144Y169276D01*
X42082Y169359D01*
X41932Y169533D01*
X41844Y169624D01*
X42622Y170517D01*
X42713Y170429D01*
D02*
G37*
%LPC*%
G36*
X8428Y60876D02*
X7640D01*
X6912Y60575D01*
X6354Y60018D01*
X6053Y59289D01*
Y58501D01*
X6354Y57773D01*
X6569Y57559D01*
X6576Y57547D01*
X6577Y57543D01*
X6583Y57535D01*
X6590Y57523D01*
X6596Y57503D01*
X6605Y57464D01*
X6612Y57420D01*
X6616Y57369D01*
Y41274D01*
X6613Y41249D01*
X6605Y41195D01*
X6596Y41156D01*
X6590Y41136D01*
X6583Y41124D01*
X6577Y41116D01*
X6576Y41112D01*
X6569Y41100D01*
X6354Y40886D01*
X6053Y40158D01*
Y39370D01*
X6354Y38642D01*
X6912Y38084D01*
X7640Y37783D01*
X8428D01*
X9156Y38084D01*
X9713Y38642D01*
X10015Y39370D01*
Y40158D01*
X9713Y40886D01*
X9499Y41100D01*
X9492Y41112D01*
X9490Y41116D01*
X9485Y41124D01*
X9478Y41136D01*
X9472Y41156D01*
X9463Y41195D01*
X9456Y41239D01*
X9452Y41291D01*
Y57386D01*
X9454Y57410D01*
X9463Y57464D01*
X9472Y57503D01*
X9478Y57523D01*
X9485Y57535D01*
X9490Y57543D01*
X9492Y57547D01*
X9499Y57559D01*
X9713Y57773D01*
X10015Y58501D01*
Y59289D01*
X9713Y60018D01*
X9156Y60575D01*
X8428Y60876D01*
D02*
G37*
%LPD*%
G36*
X8816Y58001D02*
X8776Y57942D01*
X8740Y57875D01*
X8709Y57799D01*
X8683Y57714D01*
X8662Y57621D01*
X8646Y57520D01*
X8634Y57409D01*
X8624Y57164D01*
X7443D01*
X7441Y57291D01*
X7422Y57520D01*
X7406Y57621D01*
X7384Y57714D01*
X7358Y57799D01*
X7327Y57875D01*
X7292Y57942D01*
X7252Y58001D01*
X7207Y58052D01*
X8861D01*
X8816Y58001D01*
D02*
G37*
G36*
X8627Y41368D02*
X8646Y41140D01*
X8662Y41038D01*
X8683Y40945D01*
X8709Y40861D01*
X8740Y40784D01*
X8776Y40717D01*
X8816Y40658D01*
X8861Y40607D01*
X7207D01*
X7252Y40658D01*
X7292Y40717D01*
X7327Y40784D01*
X7358Y40861D01*
X7384Y40945D01*
X7406Y41038D01*
X7422Y41140D01*
X7434Y41250D01*
X7443Y41495D01*
X8624D01*
X8627Y41368D01*
D02*
G37*
%LPC*%
G36*
X33855Y127965D02*
X33074D01*
X32320Y127763D01*
X31644Y127373D01*
X31092Y126821D01*
X30701Y126145D01*
X30499Y125390D01*
Y124610D01*
X30701Y123855D01*
X31092Y123179D01*
X31644Y122627D01*
X32320Y122237D01*
X33074Y122035D01*
X33855D01*
X34609Y122237D01*
X35285Y122627D01*
X35837Y123179D01*
X36228Y123855D01*
X36430Y124610D01*
Y125390D01*
X36228Y126145D01*
X35837Y126821D01*
X35285Y127373D01*
X34609Y127763D01*
X33855Y127965D01*
D02*
G37*
G36*
X25981D02*
X25200D01*
X24446Y127763D01*
X23770Y127373D01*
X23218Y126821D01*
X22827Y126145D01*
X22625Y125390D01*
Y124610D01*
X22827Y123855D01*
X23218Y123179D01*
X23770Y122627D01*
X24446Y122237D01*
X25200Y122035D01*
X25981D01*
X26735Y122237D01*
X27411Y122627D01*
X27963Y123179D01*
X28354Y123855D01*
X28556Y124610D01*
Y125390D01*
X28354Y126145D01*
X27963Y126821D01*
X27411Y127373D01*
X26735Y127763D01*
X25981Y127965D01*
D02*
G37*
G36*
X47245Y120091D02*
X46456D01*
X45728Y119790D01*
X45171Y119232D01*
X44869Y118504D01*
Y118201D01*
X44866Y118188D01*
X44864Y118184D01*
X44862Y118174D01*
X44859Y118161D01*
X44849Y118143D01*
X44828Y118109D01*
X44802Y118073D01*
X44768Y118033D01*
X42501Y115766D01*
X42194Y115306D01*
X42086Y114764D01*
Y108203D01*
X42083Y108178D01*
X42075Y108124D01*
X42066Y108085D01*
X42060Y108065D01*
X42053Y108053D01*
X42048Y108046D01*
X42046Y108041D01*
X42039Y108029D01*
X41824Y107815D01*
X41523Y107087D01*
Y106299D01*
X41824Y105571D01*
X42382Y105013D01*
X43110Y104712D01*
X43413D01*
X43426Y104709D01*
X43431Y104707D01*
X43440Y104705D01*
X43453Y104701D01*
X43472Y104692D01*
X43505Y104671D01*
X43541Y104644D01*
X43581Y104611D01*
X45177Y103015D01*
Y87167D01*
X45165Y87155D01*
X45122Y87119D01*
X45078D01*
X44350Y86817D01*
X43793Y86260D01*
X43491Y85532D01*
Y84744D01*
X43793Y84016D01*
X44350Y83458D01*
X45078Y83157D01*
X45867D01*
X46595Y83458D01*
X47152Y84016D01*
X47453Y84744D01*
Y85433D01*
X47597Y85577D01*
X47680Y85701D01*
X47696Y85718D01*
X47704Y85737D01*
X47905Y86037D01*
X48012Y86580D01*
Y103602D01*
X47905Y104145D01*
X47597Y104605D01*
X45574Y106628D01*
X45558Y106647D01*
X45526Y106692D01*
X45505Y106725D01*
X45495Y106744D01*
X45492Y106757D01*
X45490Y106766D01*
X45488Y106771D01*
X45485Y106784D01*
Y107087D01*
X45183Y107815D01*
X44969Y108029D01*
X44962Y108041D01*
X44960Y108046D01*
X44955Y108053D01*
X44948Y108065D01*
X44942Y108085D01*
X44933Y108124D01*
X44926Y108168D01*
X44922Y108220D01*
Y114176D01*
X46785Y116040D01*
X46805Y116056D01*
X46849Y116088D01*
X46883Y116109D01*
X46901Y116119D01*
X46914Y116122D01*
X46924Y116124D01*
X46928Y116126D01*
X46941Y116129D01*
X47245D01*
X47973Y116431D01*
X48530Y116988D01*
X48831Y117716D01*
Y118504D01*
X48530Y119232D01*
X47973Y119790D01*
X47245Y120091D01*
D02*
G37*
G36*
X46063Y65761D02*
X45275D01*
X44547Y65459D01*
X43990Y64902D01*
X43688Y64174D01*
Y63385D01*
X43990Y62657D01*
X44204Y62443D01*
X44211Y62431D01*
X44213Y62427D01*
X44218Y62419D01*
X44225Y62407D01*
X44231Y62387D01*
X44240Y62349D01*
X44247Y62304D01*
X44251Y62253D01*
Y59449D01*
X44359Y58906D01*
X44667Y58446D01*
X47142Y55971D01*
X47158Y55951D01*
X47190Y55907D01*
X47211Y55873D01*
X47221Y55854D01*
X47225Y55841D01*
X47226Y55832D01*
X47228Y55827D01*
X47232Y55815D01*
Y55511D01*
X47533Y54783D01*
X48090Y54226D01*
X48818Y53924D01*
X49607D01*
X50335Y54226D01*
X50892Y54783D01*
X51194Y55511D01*
Y56300D01*
X50892Y57028D01*
X50335Y57585D01*
X49607Y57887D01*
X49303D01*
X49291Y57890D01*
X49286Y57892D01*
X49277Y57894D01*
X49264Y57897D01*
X49245Y57907D01*
X49211Y57928D01*
X49175Y57954D01*
X49136Y57988D01*
X47087Y60036D01*
Y62270D01*
X47090Y62295D01*
X47098Y62349D01*
X47107Y62387D01*
X47113Y62407D01*
X47120Y62419D01*
X47126Y62427D01*
X47128Y62431D01*
X47134Y62443D01*
X47349Y62657D01*
X47650Y63385D01*
Y64174D01*
X47349Y64902D01*
X46791Y65459D01*
X46063Y65761D01*
D02*
G37*
G36*
X38583D02*
X37795D01*
X37067Y65459D01*
X36509Y64902D01*
X36208Y64174D01*
Y63385D01*
X36509Y62657D01*
X36724Y62443D01*
X36731Y62431D01*
X36733Y62427D01*
X36738Y62419D01*
X36745Y62407D01*
X36751Y62387D01*
X36760Y62349D01*
X36767Y62304D01*
X36771Y62253D01*
Y59449D01*
X36879Y58906D01*
X37187Y58446D01*
X39662Y55971D01*
X39678Y55951D01*
X39710Y55907D01*
X39731Y55873D01*
X39741Y55854D01*
X39744Y55841D01*
X39746Y55832D01*
X39748Y55827D01*
X39751Y55815D01*
Y55511D01*
X40053Y54783D01*
X40610Y54226D01*
X41338Y53924D01*
X42126D01*
X42854Y54226D01*
X43412Y54783D01*
X43713Y55511D01*
Y56300D01*
X43412Y57028D01*
X42854Y57585D01*
X42126Y57887D01*
X41823D01*
X41810Y57890D01*
X41806Y57892D01*
X41796Y57894D01*
X41783Y57897D01*
X41765Y57907D01*
X41731Y57928D01*
X41695Y57954D01*
X41655Y57988D01*
X39607Y60036D01*
Y62270D01*
X39609Y62295D01*
X39618Y62349D01*
X39627Y62387D01*
X39633Y62407D01*
X39640Y62419D01*
X39645Y62427D01*
X39647Y62431D01*
X39654Y62443D01*
X39869Y62657D01*
X40170Y63385D01*
Y64174D01*
X39869Y64902D01*
X39311Y65459D01*
X38583Y65761D01*
D02*
G37*
%LPD*%
G36*
X46839Y116929D02*
X46771Y116925D01*
X46701Y116912D01*
X46628Y116889D01*
X46553Y116857D01*
X46474Y116816D01*
X46394Y116765D01*
X46310Y116705D01*
X46224Y116635D01*
X46044Y116468D01*
X45208Y117303D01*
X45297Y117395D01*
X45445Y117570D01*
X45505Y117654D01*
X45556Y117734D01*
X45597Y117813D01*
X45629Y117888D01*
X45652Y117961D01*
X45665Y118031D01*
X45669Y118098D01*
X46839Y116929D01*
D02*
G37*
G36*
X44097Y108297D02*
X44116Y108069D01*
X44132Y107967D01*
X44153Y107874D01*
X44179Y107790D01*
X44210Y107714D01*
X44246Y107646D01*
X44286Y107587D01*
X44331Y107536D01*
X42677D01*
X42722Y107587D01*
X42762Y107646D01*
X42798Y107714D01*
X42828Y107790D01*
X42854Y107874D01*
X42876Y107967D01*
X42892Y108069D01*
X42904Y108179D01*
X42913Y108424D01*
X44094D01*
X44097Y108297D01*
D02*
G37*
G36*
X44689Y106614D02*
X44702Y106544D01*
X44725Y106471D01*
X44757Y106395D01*
X44799Y106317D01*
X44849Y106236D01*
X44909Y106153D01*
X44979Y106067D01*
X45146Y105886D01*
X44311Y105051D01*
X44219Y105139D01*
X44044Y105287D01*
X43961Y105348D01*
X43880Y105398D01*
X43802Y105440D01*
X43726Y105472D01*
X43653Y105494D01*
X43583Y105508D01*
X43516Y105512D01*
X44685Y106681D01*
X44689Y106614D01*
D02*
G37*
G36*
X47012Y86162D02*
X46924Y86071D01*
X46779Y85902D01*
X46722Y85824D01*
X46677Y85752D01*
X46642Y85684D01*
X46617Y85621D01*
X46604Y85562D01*
X46601Y85509D01*
X46609Y85460D01*
X45344Y86312D01*
X45380Y86320D01*
X45423Y86338D01*
X45473Y86365D01*
X45529Y86402D01*
X45591Y86448D01*
X45735Y86568D01*
X45905Y86726D01*
X46000Y86820D01*
X47012Y86162D01*
D02*
G37*
G36*
X46451Y62885D02*
X46411Y62826D01*
X46376Y62759D01*
X46345Y62683D01*
X46319Y62598D01*
X46298Y62505D01*
X46281Y62404D01*
X46269Y62294D01*
X46260Y62048D01*
X45079D01*
X45076Y62175D01*
X45057Y62404D01*
X45041Y62505D01*
X45020Y62598D01*
X44994Y62683D01*
X44963Y62759D01*
X44928Y62826D01*
X44887Y62885D01*
X44842Y62936D01*
X46496D01*
X46451Y62885D01*
D02*
G37*
G36*
X48497Y57459D02*
X48672Y57311D01*
X48756Y57251D01*
X48837Y57200D01*
X48915Y57159D01*
X48990Y57127D01*
X49063Y57104D01*
X49133Y57091D01*
X49201Y57086D01*
X48032Y55917D01*
X48028Y55985D01*
X48014Y56055D01*
X47991Y56128D01*
X47959Y56203D01*
X47918Y56281D01*
X47867Y56362D01*
X47807Y56446D01*
X47738Y56532D01*
X47571Y56712D01*
X48406Y57547D01*
X48497Y57459D01*
D02*
G37*
G36*
X38971Y62885D02*
X38931Y62826D01*
X38895Y62759D01*
X38865Y62683D01*
X38839Y62598D01*
X38817Y62505D01*
X38801Y62404D01*
X38789Y62294D01*
X38780Y62048D01*
X37598D01*
X37596Y62175D01*
X37577Y62404D01*
X37561Y62505D01*
X37539Y62598D01*
X37513Y62683D01*
X37483Y62759D01*
X37447Y62826D01*
X37407Y62885D01*
X37362Y62936D01*
X39016D01*
X38971Y62885D01*
D02*
G37*
G36*
X41017Y57459D02*
X41192Y57311D01*
X41276Y57251D01*
X41356Y57200D01*
X41434Y57159D01*
X41510Y57127D01*
X41583Y57104D01*
X41653Y57091D01*
X41721Y57086D01*
X40551Y55917D01*
X40547Y55985D01*
X40534Y56055D01*
X40511Y56128D01*
X40479Y56203D01*
X40438Y56281D01*
X40387Y56362D01*
X40327Y56446D01*
X40257Y56532D01*
X40090Y56712D01*
X40925Y57547D01*
X41017Y57459D01*
D02*
G37*
%LPC*%
G36*
X51415Y237808D02*
X50627D01*
X49899Y237506D01*
X49342Y236949D01*
X49040Y236221D01*
Y235433D01*
X49342Y234705D01*
X49556Y234490D01*
X49563Y234478D01*
X49565Y234474D01*
X49570Y234467D01*
X49577Y234455D01*
X49583Y234435D01*
X49592Y234396D01*
X49599Y234352D01*
X49604Y234300D01*
Y218205D01*
X49601Y218180D01*
X49592Y218126D01*
X49583Y218087D01*
X49577Y218067D01*
X49570Y218056D01*
X49565Y218048D01*
X49563Y218043D01*
X49556Y218032D01*
X49342Y217817D01*
X49040Y217089D01*
Y216301D01*
X49342Y215573D01*
X49899Y215016D01*
X50627Y214714D01*
X51415D01*
X52144Y215016D01*
X52701Y215573D01*
X53002Y216301D01*
Y217089D01*
X52701Y217817D01*
X52486Y218032D01*
X52480Y218043D01*
X52478Y218048D01*
X52473Y218056D01*
X52466Y218067D01*
X52459Y218087D01*
X52451Y218126D01*
X52443Y218170D01*
X52439Y218222D01*
Y234317D01*
X52442Y234342D01*
X52451Y234396D01*
X52459Y234435D01*
X52466Y234455D01*
X52473Y234467D01*
X52478Y234474D01*
X52480Y234478D01*
X52486Y234490D01*
X52701Y234705D01*
X53002Y235433D01*
Y236221D01*
X52701Y236949D01*
X52144Y237506D01*
X51415Y237808D01*
D02*
G37*
%LPD*%
G36*
X51803Y234933D02*
X51763Y234874D01*
X51728Y234806D01*
X51697Y234730D01*
X51671Y234646D01*
X51650Y234553D01*
X51633Y234451D01*
X51621Y234341D01*
X51612Y234095D01*
X50431D01*
X50428Y234222D01*
X50410Y234451D01*
X50393Y234553D01*
X50372Y234646D01*
X50346Y234730D01*
X50315Y234806D01*
X50280Y234874D01*
X50239Y234933D01*
X50195Y234983D01*
X51848D01*
X51803Y234933D01*
D02*
G37*
G36*
X51614Y218300D02*
X51633Y218071D01*
X51650Y217969D01*
X51671Y217877D01*
X51697Y217792D01*
X51728Y217716D01*
X51763Y217648D01*
X51803Y217589D01*
X51848Y217539D01*
X50195D01*
X50239Y217589D01*
X50280Y217648D01*
X50315Y217716D01*
X50346Y217792D01*
X50372Y217877D01*
X50393Y217969D01*
X50410Y218071D01*
X50421Y218181D01*
X50431Y218427D01*
X51612D01*
X51614Y218300D01*
D02*
G37*
%LPC*%
G36*
X17717Y221666D02*
X16929D01*
X16201Y221364D01*
X15643Y220807D01*
X15342Y220079D01*
Y219291D01*
X15643Y218563D01*
X16201Y218006D01*
X16929Y217704D01*
X17232D01*
X17245Y217701D01*
X17249Y217699D01*
X17259Y217697D01*
X17272Y217694D01*
X17290Y217684D01*
X17324Y217663D01*
X17360Y217636D01*
X17400Y217603D01*
X19448Y215554D01*
Y213321D01*
X19446Y213296D01*
X19437Y213242D01*
X19428Y213203D01*
X19422Y213183D01*
X19415Y213171D01*
X19410Y213164D01*
X19408Y213159D01*
X19401Y213148D01*
X19187Y212933D01*
X18885Y212205D01*
Y211417D01*
X19187Y210689D01*
X19744Y210132D01*
X20472Y209830D01*
X21260D01*
X21988Y210132D01*
X22546Y210689D01*
X22847Y211417D01*
Y212205D01*
X22546Y212933D01*
X22331Y213148D01*
X22324Y213159D01*
X22322Y213164D01*
X22317Y213171D01*
X22310Y213183D01*
X22304Y213203D01*
X22295Y213242D01*
X22288Y213286D01*
X22284Y213338D01*
Y216142D01*
X22176Y216684D01*
X21869Y217144D01*
X19393Y219620D01*
X19377Y219639D01*
X19345Y219684D01*
X19324Y219718D01*
X19314Y219736D01*
X19311Y219749D01*
X19309Y219759D01*
X19307Y219763D01*
X19304Y219776D01*
Y220079D01*
X19002Y220807D01*
X18445Y221364D01*
X17717Y221666D01*
D02*
G37*
G36*
X10237D02*
X9448D01*
X8720Y221364D01*
X8163Y220807D01*
X7861Y220079D01*
Y219291D01*
X8163Y218563D01*
X8720Y218006D01*
X9448Y217704D01*
X9752D01*
X9764Y217701D01*
X9769Y217699D01*
X9778Y217697D01*
X9792Y217694D01*
X9810Y217684D01*
X9844Y217663D01*
X9880Y217636D01*
X9920Y217603D01*
X11968Y215554D01*
Y213321D01*
X11965Y213296D01*
X11957Y213242D01*
X11948Y213203D01*
X11942Y213183D01*
X11935Y213171D01*
X11929Y213164D01*
X11928Y213159D01*
X11921Y213148D01*
X11706Y212933D01*
X11405Y212205D01*
Y211417D01*
X11706Y210689D01*
X12264Y210132D01*
X12992Y209830D01*
X13780D01*
X14508Y210132D01*
X15065Y210689D01*
X15367Y211417D01*
Y212205D01*
X15065Y212933D01*
X14851Y213148D01*
X14844Y213159D01*
X14842Y213164D01*
X14837Y213171D01*
X14830Y213183D01*
X14824Y213203D01*
X14815Y213242D01*
X14808Y213286D01*
X14804Y213338D01*
Y216142D01*
X14696Y216684D01*
X14388Y217144D01*
X11913Y219620D01*
X11897Y219639D01*
X11865Y219684D01*
X11844Y219718D01*
X11834Y219736D01*
X11831Y219749D01*
X11829Y219759D01*
X11827Y219763D01*
X11824Y219776D01*
Y220079D01*
X11522Y220807D01*
X10965Y221364D01*
X10237Y221666D01*
D02*
G37*
G36*
X13977Y192434D02*
X13189D01*
X12461Y192132D01*
X11903Y191575D01*
X11602Y190847D01*
Y190157D01*
X11458Y190014D01*
X11375Y189890D01*
X11359Y189873D01*
X11351Y189854D01*
X11151Y189553D01*
X11043Y189011D01*
Y171988D01*
X11151Y171446D01*
X11458Y170986D01*
X13481Y168963D01*
X13497Y168943D01*
X13529Y168899D01*
X13550Y168865D01*
X13560Y168847D01*
X13563Y168834D01*
X13565Y168824D01*
X13567Y168820D01*
X13570Y168807D01*
Y168504D01*
X13872Y167775D01*
X14086Y167561D01*
X14093Y167549D01*
X14095Y167545D01*
X14100Y167537D01*
X14107Y167525D01*
X14113Y167506D01*
X14122Y167467D01*
X14129Y167423D01*
X14133Y167371D01*
Y161414D01*
X12270Y159550D01*
X12250Y159535D01*
X12206Y159503D01*
X12172Y159482D01*
X12154Y159472D01*
X12141Y159468D01*
X12131Y159467D01*
X12127Y159465D01*
X12114Y159461D01*
X11811D01*
X11083Y159160D01*
X10525Y158602D01*
X10224Y157874D01*
Y157086D01*
X10525Y156358D01*
X11083Y155801D01*
X11811Y155499D01*
X12599D01*
X13327Y155801D01*
X13884Y156358D01*
X14186Y157086D01*
Y157389D01*
X14189Y157402D01*
X14191Y157407D01*
X14193Y157416D01*
X14196Y157429D01*
X14206Y157448D01*
X14227Y157481D01*
X14253Y157518D01*
X14287Y157557D01*
X16554Y159824D01*
X16861Y160284D01*
X16969Y160827D01*
Y167388D01*
X16972Y167413D01*
X16980Y167467D01*
X16989Y167506D01*
X16995Y167525D01*
X17002Y167537D01*
X17008Y167545D01*
X17009Y167549D01*
X17016Y167561D01*
X17231Y167775D01*
X17532Y168504D01*
Y169292D01*
X17231Y170020D01*
X16673Y170577D01*
X15945Y170879D01*
X15642D01*
X15629Y170882D01*
X15625Y170884D01*
X15615Y170886D01*
X15602Y170889D01*
X15584Y170899D01*
X15550Y170920D01*
X15514Y170946D01*
X15474Y170980D01*
X13878Y172576D01*
Y188424D01*
X13890Y188435D01*
X13933Y188472D01*
X13977D01*
X14705Y188773D01*
X15262Y189331D01*
X15564Y190059D01*
Y190847D01*
X15262Y191575D01*
X14705Y192132D01*
X13977Y192434D01*
D02*
G37*
G36*
X33855Y153556D02*
X33074D01*
X32320Y153354D01*
X31644Y152963D01*
X31092Y152411D01*
X30701Y151735D01*
X30499Y150981D01*
Y150200D01*
X30701Y149446D01*
X31092Y148770D01*
X31644Y148218D01*
X32320Y147827D01*
X33074Y147625D01*
X33855D01*
X34609Y147827D01*
X35285Y148218D01*
X35837Y148770D01*
X36228Y149446D01*
X36430Y150200D01*
Y150981D01*
X36228Y151735D01*
X35837Y152411D01*
X35285Y152963D01*
X34609Y153354D01*
X33855Y153556D01*
D02*
G37*
G36*
X25981D02*
X25200D01*
X24446Y153354D01*
X23770Y152963D01*
X23218Y152411D01*
X22827Y151735D01*
X22625Y150981D01*
Y150200D01*
X22827Y149446D01*
X23218Y148770D01*
X23770Y148218D01*
X24446Y147827D01*
X25200Y147625D01*
X25981D01*
X26735Y147827D01*
X27411Y148218D01*
X27963Y148770D01*
X28354Y149446D01*
X28556Y150200D01*
Y150981D01*
X28354Y151735D01*
X27963Y152411D01*
X27411Y152963D01*
X26735Y153354D01*
X25981Y153556D01*
D02*
G37*
%LPD*%
G36*
X18508Y219606D02*
X18521Y219536D01*
X18544Y219463D01*
X18576Y219387D01*
X18618Y219309D01*
X18668Y219228D01*
X18728Y219145D01*
X18798Y219059D01*
X18965Y218878D01*
X18130Y218043D01*
X18038Y218131D01*
X17863Y218280D01*
X17780Y218340D01*
X17699Y218390D01*
X17621Y218432D01*
X17545Y218464D01*
X17472Y218487D01*
X17402Y218500D01*
X17335Y218504D01*
X18504Y219673D01*
X18508Y219606D01*
D02*
G37*
G36*
X21459Y213416D02*
X21478Y213187D01*
X21495Y213085D01*
X21516Y212992D01*
X21542Y212908D01*
X21572Y212832D01*
X21608Y212764D01*
X21648Y212705D01*
X21693Y212654D01*
X20039D01*
X20084Y212705D01*
X20124Y212764D01*
X20160Y212832D01*
X20190Y212908D01*
X20216Y212992D01*
X20238Y213085D01*
X20254Y213187D01*
X20266Y213297D01*
X20276Y213543D01*
X21457D01*
X21459Y213416D01*
D02*
G37*
G36*
X11028Y219606D02*
X11041Y219536D01*
X11064Y219463D01*
X11096Y219387D01*
X11137Y219309D01*
X11188Y219228D01*
X11248Y219145D01*
X11317Y219059D01*
X11485Y218878D01*
X10649Y218043D01*
X10558Y218131D01*
X10383Y218280D01*
X10299Y218340D01*
X10218Y218390D01*
X10140Y218432D01*
X10065Y218464D01*
X9992Y218487D01*
X9922Y218500D01*
X9854Y218504D01*
X11024Y219673D01*
X11028Y219606D01*
D02*
G37*
G36*
X13979Y213416D02*
X13998Y213187D01*
X14014Y213085D01*
X14035Y212992D01*
X14061Y212908D01*
X14092Y212832D01*
X14128Y212764D01*
X14168Y212705D01*
X14213Y212654D01*
X12559D01*
X12604Y212705D01*
X12644Y212764D01*
X12679Y212832D01*
X12710Y212908D01*
X12736Y212992D01*
X12757Y213085D01*
X12774Y213187D01*
X12786Y213297D01*
X12795Y213543D01*
X13976D01*
X13979Y213416D01*
D02*
G37*
G36*
X13711Y189279D02*
X13675Y189270D01*
X13632Y189252D01*
X13582Y189225D01*
X13527Y189189D01*
X13464Y189143D01*
X13320Y189022D01*
X13150Y188864D01*
X13056Y188771D01*
X12043Y189428D01*
X12131Y189520D01*
X12276Y189689D01*
X12333Y189766D01*
X12378Y189839D01*
X12413Y189907D01*
X12438Y189970D01*
X12451Y190028D01*
X12454Y190082D01*
X12446Y190131D01*
X13711Y189279D01*
D02*
G37*
G36*
X14836Y170451D02*
X15011Y170303D01*
X15094Y170243D01*
X15175Y170192D01*
X15253Y170151D01*
X15329Y170119D01*
X15402Y170096D01*
X15472Y170083D01*
X15539Y170079D01*
X14370Y168910D01*
X14366Y168977D01*
X14353Y169047D01*
X14330Y169120D01*
X14298Y169195D01*
X14257Y169274D01*
X14206Y169354D01*
X14146Y169438D01*
X14076Y169524D01*
X13909Y169704D01*
X14744Y170540D01*
X14836Y170451D01*
D02*
G37*
G36*
X16333Y168004D02*
X16293Y167945D01*
X16258Y167877D01*
X16227Y167801D01*
X16201Y167716D01*
X16180Y167623D01*
X16163Y167522D01*
X16151Y167412D01*
X16142Y167166D01*
X14961D01*
X14958Y167293D01*
X14939Y167522D01*
X14923Y167623D01*
X14902Y167716D01*
X14876Y167801D01*
X14845Y167877D01*
X14809Y167945D01*
X14769Y168004D01*
X14724Y168054D01*
X16378D01*
X16333Y168004D01*
D02*
G37*
G36*
X13847Y158287D02*
X13758Y158196D01*
X13610Y158021D01*
X13550Y157937D01*
X13499Y157856D01*
X13458Y157778D01*
X13426Y157703D01*
X13403Y157630D01*
X13390Y157560D01*
X13386Y157492D01*
X12217Y158661D01*
X12284Y158665D01*
X12354Y158679D01*
X12427Y158701D01*
X12503Y158733D01*
X12581Y158775D01*
X12662Y158826D01*
X12745Y158886D01*
X12831Y158955D01*
X13012Y159122D01*
X13847Y158287D01*
D02*
G37*
D21*
X33465Y150591D02*
D03*
X25591D02*
D03*
X33465Y125000D02*
D03*
X25591D02*
D03*
D26*
X51968Y137795D02*
D03*
X40157D02*
D03*
X42520D02*
D03*
X30709D02*
D03*
X35433D02*
D03*
X44882D02*
D03*
X49606D02*
D03*
X37795D02*
D03*
X54331D02*
D03*
X47244D02*
D03*
X28346D02*
D03*
X25984D02*
D03*
X23622D02*
D03*
X21260D02*
D03*
X18898D02*
D03*
X16535D02*
D03*
X14173D02*
D03*
X11811D02*
D03*
X9449D02*
D03*
X2362D02*
D03*
X56693D02*
D03*
D41*
X30709Y220079D02*
Y226772D01*
X30709Y226772D01*
X30709Y220079D02*
X33936Y216851D01*
Y205996D02*
Y216851D01*
X33935Y205995D02*
X33936Y205996D01*
X51021Y216695D02*
Y235827D01*
X40748Y201565D02*
X44978Y205795D01*
X40748Y171555D02*
X43504Y168799D01*
X43504D01*
X40748Y171555D02*
Y201565D01*
X12461Y171988D02*
X15551Y168898D01*
X12461Y171988D02*
Y189011D01*
X13583Y190133D02*
Y190453D01*
X12461Y189011D02*
X13583Y190133D01*
X15551Y160827D02*
Y168898D01*
X12205Y157480D02*
X15551Y160827D01*
X20866Y211811D02*
Y216142D01*
X17323Y219685D02*
X20866Y216142D01*
X13386Y211811D02*
Y216142D01*
X9843Y219685D02*
X13386Y216142D01*
X45669Y59449D02*
X49213Y55905D01*
X45669Y59449D02*
Y63779D01*
X38189Y59449D02*
X41732Y55905D01*
X38189Y59449D02*
Y63779D01*
X43504Y114764D02*
X46850Y118110D01*
X43504Y106693D02*
Y114764D01*
X45472Y85457D02*
X46595Y86580D01*
X45472Y85138D02*
Y85457D01*
X46595Y86580D02*
Y103602D01*
X43504Y106693D02*
X46595Y103602D01*
X18307Y74026D02*
Y104035D01*
X15551Y106791D02*
X15551D01*
X18307Y104035D01*
X14077Y69796D02*
X18307Y74026D01*
X8034Y39764D02*
Y58895D01*
X25119Y69595D02*
X25120Y69596D01*
X25119Y58739D02*
Y69595D01*
Y58739D02*
X28346Y55512D01*
X28346Y48819D02*
X28346Y48819D01*
Y55512D01*
D43*
X54724Y2756D02*
D03*
Y10433D02*
D03*
X32677D02*
D03*
Y2756D02*
D03*
X3543Y131496D02*
D03*
Y134252D02*
D03*
X5906D02*
D03*
Y141339D02*
D03*
X3543D02*
D03*
X3477Y144041D02*
D03*
X30709Y215748D02*
D03*
X53150Y146850D02*
D03*
X44978Y205795D02*
D03*
X51021Y235827D02*
D03*
X50787Y146850D02*
D03*
X49606Y176772D02*
D03*
X55512Y146850D02*
D03*
X53150Y141339D02*
D03*
X55512Y144095D02*
D03*
X50787D02*
D03*
Y141339D02*
D03*
X55512D02*
D03*
X30709Y228346D02*
D03*
Y234646D02*
D03*
Y240945D02*
D03*
X9449Y212402D02*
D03*
X8231Y144053D02*
D03*
X8231Y146809D02*
D03*
X5869D02*
D03*
X8231Y141297D02*
D03*
X3506Y146809D02*
D03*
X5869Y144053D02*
D03*
X53150Y144095D02*
D03*
X33280Y222047D02*
D03*
X33935Y205995D02*
D03*
X51021Y216695D02*
D03*
X20472Y144488D02*
D03*
Y147638D02*
D03*
Y150787D02*
D03*
Y153937D02*
D03*
X38583D02*
D03*
Y150787D02*
D03*
Y147638D02*
D03*
Y144488D02*
D03*
X15551Y168898D02*
D03*
X43320Y181417D02*
D03*
X43504Y168898D02*
D03*
X13583Y190453D02*
D03*
X12205Y157480D02*
D03*
X9449Y176772D02*
D03*
X15748Y181417D02*
D03*
X41339Y220463D02*
D03*
X49213Y272835D02*
D03*
X43701D02*
D03*
Y267717D02*
D03*
X46457Y272835D02*
D03*
X40945Y270276D02*
D03*
X49213D02*
D03*
X54724Y272835D02*
D03*
X46457Y270276D02*
D03*
X35433D02*
D03*
X54724D02*
D03*
X38189D02*
D03*
X54724Y267717D02*
D03*
X46457D02*
D03*
X32677Y270276D02*
D03*
X40945Y267717D02*
D03*
X32677Y272835D02*
D03*
X43701Y270276D02*
D03*
X32677Y267717D02*
D03*
X35433D02*
D03*
X51968D02*
D03*
X49213D02*
D03*
X38189D02*
D03*
X51968Y270276D02*
D03*
X35433Y265158D02*
D03*
X54724D02*
D03*
X32677D02*
D03*
X40945Y272835D02*
D03*
X38189Y265158D02*
D03*
X49213D02*
D03*
X46457D02*
D03*
X43701D02*
D03*
X35433Y272835D02*
D03*
X40945Y265158D02*
D03*
X38189Y272835D02*
D03*
X51968Y265158D02*
D03*
Y272835D02*
D03*
X23622Y272835D02*
D03*
Y265158D02*
D03*
X9843Y272835D02*
D03*
X12598Y265158D02*
D03*
X7087Y272835D02*
D03*
X15354Y265158D02*
D03*
X18110D02*
D03*
X20866D02*
D03*
X9843D02*
D03*
X12598Y272835D02*
D03*
X4331Y265158D02*
D03*
X26378D02*
D03*
X7087D02*
D03*
X23622Y270276D02*
D03*
X9843Y267717D02*
D03*
X20866D02*
D03*
X23622D02*
D03*
X7087D02*
D03*
X4331D02*
D03*
X15354Y270276D02*
D03*
X4331Y272835D02*
D03*
X12598Y267717D02*
D03*
X4331Y270276D02*
D03*
X18110Y267717D02*
D03*
X26378D02*
D03*
X9843Y270276D02*
D03*
X26378D02*
D03*
X7087D02*
D03*
X18110D02*
D03*
X26378Y272835D02*
D03*
X20866Y270276D02*
D03*
X12598D02*
D03*
X18110Y272835D02*
D03*
X15354Y267717D02*
D03*
Y272835D02*
D03*
X20866D02*
D03*
X15748Y237795D02*
D03*
X9843Y219685D02*
D03*
X17323D02*
D03*
X13386Y211811D02*
D03*
X20866D02*
D03*
X38189Y63779D02*
D03*
X45669D02*
D03*
X41732Y55905D02*
D03*
X49213D02*
D03*
X43307Y37795D02*
D03*
X38189Y2756D02*
D03*
X43701D02*
D03*
Y7874D02*
D03*
X40945Y2756D02*
D03*
X46457Y5315D02*
D03*
X38189D02*
D03*
X40945D02*
D03*
X51968D02*
D03*
X32677D02*
D03*
X49213D02*
D03*
X32677Y7874D02*
D03*
X40945D02*
D03*
X54724Y5315D02*
D03*
X46457Y7874D02*
D03*
X43701Y5315D02*
D03*
X54724Y7874D02*
D03*
X51968D02*
D03*
X35433D02*
D03*
X38189D02*
D03*
X49213D02*
D03*
X35433Y5315D02*
D03*
X51968Y10433D02*
D03*
X46457Y2756D02*
D03*
X49213Y10433D02*
D03*
X38189D02*
D03*
X40945D02*
D03*
X43701D02*
D03*
X51968Y2756D02*
D03*
X46457Y10433D02*
D03*
X49213Y2756D02*
D03*
X35433Y10433D02*
D03*
Y2756D02*
D03*
X7087Y2756D02*
D03*
Y10433D02*
D03*
X20866Y2756D02*
D03*
X18110Y10433D02*
D03*
X23622Y2756D02*
D03*
X15354Y10433D02*
D03*
X12598D02*
D03*
X9843D02*
D03*
X20866D02*
D03*
X18110Y2756D02*
D03*
X26378Y10433D02*
D03*
X4331D02*
D03*
X23622D02*
D03*
X7087Y5315D02*
D03*
X20866Y7874D02*
D03*
X9843D02*
D03*
X7087D02*
D03*
X23622D02*
D03*
X26378D02*
D03*
X15354Y5315D02*
D03*
X26378Y2756D02*
D03*
X18110Y7874D02*
D03*
X26378Y5315D02*
D03*
X12598Y7874D02*
D03*
X4331D02*
D03*
X20866Y5315D02*
D03*
X4331D02*
D03*
X23622D02*
D03*
X12598D02*
D03*
X4331Y2756D02*
D03*
X9843Y5315D02*
D03*
X18110D02*
D03*
X12598Y2756D02*
D03*
X15354Y7874D02*
D03*
Y2756D02*
D03*
X9843D02*
D03*
X17717Y55128D02*
D03*
X43307Y94173D02*
D03*
X49606Y98819D02*
D03*
X46850Y118110D02*
D03*
X45472Y85138D02*
D03*
X15551Y106693D02*
D03*
X15735Y94173D02*
D03*
X43504Y106693D02*
D03*
X20472Y131102D02*
D03*
Y127953D02*
D03*
Y124803D02*
D03*
Y121653D02*
D03*
X38583D02*
D03*
Y124803D02*
D03*
Y127953D02*
D03*
Y131102D02*
D03*
X8034Y58895D02*
D03*
X25120Y69596D02*
D03*
X25775Y53543D02*
D03*
X28346Y59842D02*
D03*
X5906Y131496D02*
D03*
X53187Y131538D02*
D03*
X55549Y128782D02*
D03*
X50824Y134294D02*
D03*
X53187Y128782D02*
D03*
X53187Y134294D02*
D03*
X55549D02*
D03*
X50824Y128782D02*
D03*
X55549Y131538D02*
D03*
X50824D02*
D03*
X49606Y63189D02*
D03*
X28346Y34646D02*
D03*
Y40945D02*
D03*
Y47244D02*
D03*
X8268Y134252D02*
D03*
Y131496D02*
D03*
X3543Y128740D02*
D03*
X9449Y98819D02*
D03*
X8268Y128740D02*
D03*
X8034Y39764D02*
D03*
X14077Y69796D02*
D03*
X5906Y128740D02*
D03*
D44*
X35315Y198130D02*
D03*
X34252Y232736D02*
D03*
X22835Y195571D02*
D03*
X36220Y80020D02*
D03*
X24803Y42854D02*
D03*
X23740Y77461D02*
D03*
M02*
